<?xml version="1.0" encoding="utf-8"?>
<!-- Generator: Adobe Illustrator 24.0.2, SVG Export Plug-In . SVG Version: 6.00 Build 0)  -->
<svg version="1.1" id="Capa_1" xmlns="http://www.w3.org/2000/svg" xmlns:xlink="http://www.w3.org/1999/xlink" x="0px" y="0px"
	 viewBox="0 0 102.2 106" style="enable-background:new 0 0 102.2 106;" xml:space="preserve">
<style type="text/css">
	.st0{fill:#FFDC00;}
	.st1{fill:#FF9801;}
	.st2{fill:#607D8B;}
	.st3{fill:#37474F;}
	.st4{fill:#DFC49C;}
	.st5{fill:#FFE0B2;}
	.st6{fill:#707070;}
	.st7{fill:#9E9E9E;}
	.st8{fill:#0377BC;}
	.st9{fill:#02A9F4;}
	.st10{fill:#606060;}
	.st11{fill:#283593;}
	.st12{fill:#3F51B5;}
</style>
<g id="_x30_55---Comic-Collecting_2_">
	<g id="Icons_2_" transform="translate(1 1)">
		<path id="Shape_68_" class="st0" d="M55.6,6.4v46.1c-6.6,4.7-9.6,13-7.5,20.8H6.6c-1.8,0-3.3,1.5-3.3,3.3V8.1
			c0-1.8,1.5-3.3,3.3-3.3H54C54.9,4.8,55.6,5.5,55.6,6.4z"/>
		<path id="Shape_67_" class="st1" d="M51.1,79.9H6.6c-1.8,0-3.3-1.5-3.3-3.3c0-1.8,1.5-3.3,3.3-3.3h41.4
			C48.7,75.7,49.7,78,51.1,79.9z"/>
		<path id="Shape_66_" class="st2" d="M44.2,32.6v19.8c0,4.7-2.5,9-6.5,11.3v-5c0-2.7-2.2-4.9-4.9-4.9h-6.5c-2.7,0-4.9,2.2-4.9,4.9
			v5c-4.1-2.3-6.6-6.7-6.5-11.3V32.6c0-0.6,0.4-1.2,0.9-1.5c0.6-0.3,1.2-0.2,1.7,0.2c6.8,5.3,5.5,4.4,6.5,5.2
			c3.6-0.9,7.4-0.9,11.1,0c5.1-4.1,3.7-3,6.5-5.2c0.5-0.4,1.2-0.5,1.7-0.2S44.2,31.9,44.2,32.6L44.2,32.6z"/>
		<path id="Shape_65_" class="st3" d="M41.5,31.3l-2.3,1.8v19.3c0,2.2-0.6,4.4-1.6,6.4v5c4.1-2.3,6.6-6.7,6.5-11.3V32.6
			c0-0.6-0.4-1.2-0.9-1.5S42,30.9,41.5,31.3L41.5,31.3z"/>
		<path id="Shape_64_" class="st4" d="M37.7,58.7v5c-1.7,1-3.7,1.5-5.7,1.5c-4.7,0-7.3,0.3-10.6-1.5v-5c0-2.7,2.2-4.9,4.9-4.9h6.5
			C35.5,53.8,37.7,56,37.7,58.7z"/>
		<path id="Shape_63_" class="st5" d="M32.8,58.7v5c-3.6,2-7.9,2-11.4,0v-5c0-2.7,2.2-4.9,4.9-4.9h1.6C30.6,53.8,32.8,56,32.8,58.7z
			"/>
		<path id="Shape_62_" class="st6" d="M83.9,78.5C79.3,86.4,69.7,90,61,87.1c-8.7-2.8-14.3-11.3-13.5-20.5c0.9-9.1,8-16.5,17.1-17.6
			c7.4-0.9,14.7,2.5,18.8,8.7S87.7,72,83.9,78.5L83.9,78.5z"/>
		<path id="Shape_61_" class="st7" d="M79,78.5c-3.1,5.2-8.4,8.7-14.4,9.5c-9.8-1.2-17.2-9.6-17.2-19.4S54.8,50.3,64.6,49
			c6.5,0.8,12.2,4.9,15.1,10.8C82.6,65.8,82.4,72.8,79,78.5z"/>
		<circle id="Oval_2_" class="st8" cx="67.1" cy="68.5" r="14.7"/>
		<path id="Shape_60_" class="st9" d="M75.2,68.5c0,6.9-4.7,12.8-11.4,14.3c-2.7-0.6-5.2-2-7.2-3.9c-3.8-3.8-5.2-9.3-3.7-14.5
			c1.5-5.1,5.6-9.1,10.8-10.3C70.5,55.7,75.2,61.6,75.2,68.5z"/>
		<path id="Shape_59_" class="st10" d="M89,83.5l-6.9,6.9h0l-5-5.1c2.9-1.7,5.2-4.1,6.9-6.9L89,83.5z"/>
		<path id="Shape_58_" class="st11" d="M96.6,98.1c-1.6,1.6-4,1.9-5.9,0.8c-0.8-0.5-0.8-0.6-8.7-8.4l6.9-6.9l7.6,7.6
			C98.5,93.1,98.5,96.2,96.6,98.1L96.6,98.1z"/>
		<path id="Shape_57_" class="st12" d="M90.7,98.8c-0.8-0.5-0.8-0.6-8.7-8.4l4.5-4.5l5.2,5.2c1.1,1.1,1.6,2.6,1.4,4.1
			C92.9,96.8,92,98.1,90.7,98.8L90.7,98.8z"/>
	</g>
	<g id="Outline_2_">
		<path id="Shape_56_" d="M21.7,66.2c2,1.1,4.1,1.6,6.4,1.6c4.8,0,7.6,0.4,11.2-1.6c4.7-2.6,7.6-7.5,7.5-12.9V33.6
			c0-1.3-0.7-2.4-1.8-2.9c-1.1-0.5-2.5-0.4-3.4,0.4l-5.9,4.7c-3.4-0.7-6.8-0.7-10.2,0l-6-4.8c-1-0.8-2.3-0.9-3.4-0.4
			s-1.8,1.7-1.8,2.9v19.8C14.1,58.7,17,63.7,21.7,66.2z M28,64.6c-1.4,0-2.8-0.3-4.1-0.9v-4c0-1.8,1.5-3.3,3.3-3.3h6.5
			c1.8,0,3.3,1.5,3.3,3.3v4C34.5,64.9,32.7,64.6,28,64.6z M17.4,33.6c6.9,5.5,6.8,5.6,7.7,5.6l0.2,0c3.5-0.8,7.1-0.8,10.6,0
			c0.9,0.1,0.8-0.1,7.6-5.5v19.8c0,3-1.2,5.9-3.3,8.1v-1.8c0-3.6-2.9-6.5-6.5-6.5c-3.6,0-3.4,0.1-3.6-0.2S30,52.9,32,49
			c0.4-0.8,0.1-1.8-0.7-2.2s-1.8-0.1-2.2,0.7c-1.8,3.5-2.3,4.2-2.1,5.7c-3.5,0.2-6.2,3-6.2,6.5v1.8c-2.1-2.2-3.3-5.1-3.3-8.1
			L17.4,33.6z"/>
		<path id="Shape_55_" d="M24,48.3h1.6c0.9,0,1.6-0.7,1.6-1.6c0-0.9-0.7-1.6-1.6-1.6H24c-0.9,0-1.6,0.7-1.6,1.6
			C22.3,47.5,23.1,48.3,24,48.3z"/>
		<path id="Shape_54_" d="M35.4,48.3H37c0.9,0,1.6-0.7,1.6-1.6c0-0.9-0.7-1.6-1.6-1.6h-1.6c-0.9,0-1.6,0.7-1.6,1.6
			C33.8,47.5,34.5,48.3,35.4,48.3z"/>
		<path id="Shape_53_" d="M32.1,58.1h-3.3c-0.9,0-1.6,0.7-1.6,1.6c0,0.9,0.7,1.6,1.6,1.6h3.3c0.9,0,1.6-0.7,1.6-1.6
			C33.8,58.8,33,58.1,32.1,58.1z"/>
		<path id="Shape_52_" d="M24,23.8h0.5l-0.4,1.1c-0.3,0.8,0.1,1.8,1,2.1c0.8,0.3,1.8-0.1,2.1-1l0.8-2.2h3l-0.4,1.1
			c-0.3,0.8,0.1,1.8,1,2.1c0.8,0.3,1.8-0.1,2.1-1l0.8-2.2H37c0.9,0,1.6-0.7,1.6-1.6s-0.7-1.6-1.6-1.6h-1.3l1.2-3.3h1.7
			c0.9,0,1.6-0.7,1.6-1.6c0-0.9-0.7-1.6-1.6-1.6h-0.5l0.4-1.1c0.3-0.8-0.1-1.8-1-2.1c-0.8-0.3-1.8,0.1-2.1,1L34.7,14h-3l0.4-1.1
			c0.3-0.8-0.1-1.8-1-2.1c-0.8-0.3-1.8,0.1-2.1,1L28.1,14h-2.5c-0.9,0-1.6,0.7-1.6,1.6s0.7,1.6,1.6,1.6h1.3l-1.2,3.3H24
			c-0.9,0-1.6,0.7-1.6,1.6S23.1,23.8,24,23.8L24,23.8z M30.4,17.2h3l-1.2,3.3h-3L30.4,17.2z"/>
		<path id="Shape_51_" d="M41.9,27h8.2c0.9,0,1.6-0.7,1.6-1.6s-0.7-1.6-1.6-1.6h-2.5l4.1-10.9c0.3-0.7,0-1.4-0.5-1.9
			c-0.6-0.4-1.3-0.5-1.9-0.1l-4.9,3.3c-0.5,0.3-0.8,0.9-0.7,1.5s0.4,1.1,0.9,1.4c0.5,0.3,1.1,0.2,1.6-0.1l0.7-0.5l-2.7,7.3h-2.1
			c-0.9,0-1.6,0.7-1.6,1.6S41,27,41.9,27L41.9,27z"/>
		<path id="Shape_50_" d="M78.4,59.1c-4.2-4.2-10.5-5.5-16-3.2c-5.5,2.3-9.1,7.6-9.1,13.6s3.6,11.3,9.1,13.6c5.5,2.3,11.8,1,16-3.2
			C84.2,74.1,84.2,64.8,78.4,59.1z M76.1,77.6C71.7,82,64.4,82,60,77.6s-4.5-11.7,0-16.2s11.7-4.5,16.2,0c2.1,2.1,3.3,5.1,3.3,8.1
			S78.3,75.4,76.1,77.6L76.1,77.6z"/>
		<path id="Shape_49_" d="M86.9,79.2c4.2-8.2,2.6-18.2-3.9-24.7s-16.5-8-24.7-3.8V7.4c0-1.8-1.5-3.3-3.3-3.3H7.6
			c-2.7,0-4.9,2.2-4.9,4.9v68.6c0,2.7,2.2,4.9,4.9,4.9h43.7c6.3,8,17.3,10.5,26.4,5.8c25.1,25.1,0.5,0.5,11.9,11.8
			c2.6,2.4,6.6,2.3,9.1-0.2c2.5-2.5,2.6-6.5,0.2-9.1C81.9,74.1,102.3,94.5,86.9,79.2L86.9,79.2z M7.6,7.4H55v45.3
			c-6.1,4.7-9.1,12.4-7.9,20C3.9,72.8,7.2,72.6,6,73.1v-64C6,8.2,6.7,7.4,7.6,7.4z M7.6,79.3c-0.9,0-1.6-0.7-1.6-1.6
			C6,76.8,6.7,76,7.6,76h40.2c0.4,1.1,0.8,2.2,1.3,3.3H7.6z M55.4,82.2c-5.1-5.1-6.7-12.9-3.9-19.6s9.3-11.1,16.6-11.1
			s13.8,4.4,16.6,11.1s1.2,14.4-3.9,19.6C73.7,89.2,62.4,89.2,55.4,82.2L55.4,82.2z M85.2,82l2.5,2.5l-4.6,4.6l-2.5-2.5
			C82.3,85.3,83.9,83.8,85.2,82z M96.5,97.9c-1.3,1.2-3.3,1.2-4.6,0l-6.5-6.5l4.6-4.6l6.5,6.5C97.8,94.6,97.8,96.7,96.5,97.9z"/>
		<path id="Shape_48_" d="M65.7,61.2c-0.2,0.1-6,2.1-6,8.1c0,0.9,0.7,1.6,1.6,1.6s1.6-0.7,1.6-1.6c0.1-2.3,1.6-4.2,3.8-5
			c0.6-0.2,1-0.7,1.1-1.2c0.1-0.6-0.1-1.2-0.5-1.6C66.8,61.1,66.2,61,65.7,61.2L65.7,61.2z"/>
		<path id="Shape_47_" d="M10.9,15.6c0.9,0,1.6-0.7,1.6-1.6v-1.6c0-0.9-0.7-1.6-1.6-1.6c-0.9,0-1.6,0.7-1.6,1.6V14
			C9.3,14.9,10,15.6,10.9,15.6z"/>
		<path id="Shape_46_" d="M10.9,31.9c0.9,0,1.6-0.7,1.6-1.6v-9.8c0-0.9-0.7-1.6-1.6-1.6c-0.9,0-1.6,0.7-1.6,1.6v9.8
			C9.3,31.2,10,31.9,10.9,31.9z"/>
	</g>
</g>
</svg>
