<?xml version="1.0" encoding="utf-8"?>
<!-- Generator: Adobe Illustrator 24.0.2, SVG Export Plug-In . SVG Version: 6.00 Build 0)  -->
<svg version="1.1" id="Capa_1" xmlns="http://www.w3.org/2000/svg" xmlns:xlink="http://www.w3.org/1999/xlink" x="0px" y="0px"
	 viewBox="0 0 102.2 106" style="enable-background:new 0 0 102.2 106;" xml:space="preserve">
<style type="text/css">
	.st0{fill-rule:evenodd;clip-rule:evenodd;fill:#FFC144;}
	.st1{fill-rule:evenodd;clip-rule:evenodd;fill:#FFF2A0;}
	.st2{fill-rule:evenodd;clip-rule:evenodd;fill:#FFDCD5;}
	.st3{fill-rule:evenodd;clip-rule:evenodd;fill:#8481E2;}
</style>
<g>
	<g>
		<g>
			<path class="st0" d="M14.8,54c0-20.1,16.3-36.4,36.4-36.4S87.5,33.9,87.5,54S71.2,90.3,51.1,90.3S14.8,74,14.8,54L14.8,54z
				 M60,10.4l-5.2-2.6c-2.2-1.2-5-1.3-7.4,0l-4.7,2.5L37,9.9c-2.6-0.3-5.2,0.7-7,2.8l-3.4,4.1l-5,1.7c-2.7,0.6-4.9,2.6-5.8,5.4
				l-1.5,5.1L9.8,33c-1.9,1.6-3,4.1-2.7,6.8L7.6,45L5,50.2c-1.2,2.2-1.3,5,0,7.4l2.5,4.7l-0.4,5.8c-0.3,2.6,0.7,5.2,2.8,7l4.1,3.4
				l1.7,5c0.6,2.7,2.6,4.9,5.4,5.8l5.1,1.5l3.9,4.5c1.6,1.9,4.1,3,6.8,2.7l5.3-0.5l5.2,2.6c2.2,1.2,5,1.3,7.4,0l4.7-2.5l5.8,0.4
				c2.6,0.3,5.2-0.7,7-2.8l3.4-4.1l5-1.7c2.7-0.6,4.9-2.6,5.8-5.4l1.5-5.1l4.5-3.9c1.9-1.6,3-4.1,2.7-6.8l-0.5-5.3l2.6-5.2
				c1.2-2.2,1.3-5,0-7.4l-2.5-4.7l0.4-5.8c0.3-2.6-0.7-5.2-2.8-7l-4.1-3.4l-1.7-5c-0.6-2.7-2.6-4.9-5.4-5.8L76,17.1l-3.9-4.5
				c-1.6-1.9-4.1-3-6.8-2.7L60,10.4z"/>
			<circle class="st1" cx="51.1" cy="54" r="36.4"/>
		</g>
		<g>
			<path class="st2" d="M58,44.4c-2.1-2-2.9-5.2-1.8-7.8c1.2-2.8,1.1-5-0.2-7.5c-1.3-2.5-5.8-4.6-6.5-1.5c-0.3,1.4,0.2,4.4-1.8,8.2
				c-2.3,4.4,0,9.9-6.6,9.9V72c4.5,0,9.1,2.5,13.6,2.5h11c5.6,0,7.2-6.1,5.3-7.9c2.8-1.2,3.7-5.3,2.2-7.2c3-1.5,3.3-6.1,1.3-7.2
				c2.2,0,3.9-1.8,3.9-3.9c0-2.3-1.8-3.9-4-3.9L58,44.4z"/>
			<path class="st3" d="M41.1,72V45.7v-1.3H31v29h10.1V72z"/>
		</g>
	</g>
	<g>
		<path d="M60.1,16.8c-1-0.2-2.1,0.4-2.3,1.4c-0.2,1,0.4,2.1,1.4,2.3C74.7,24.2,85.6,38,85.6,54c0,19-15.5,34.4-34.4,34.4
			S16.7,73,16.7,54c0-16,10.8-29.7,26.3-33.5c1-0.2,1.7-1.3,1.4-2.3c-0.2-1-1.3-1.7-2.3-1.4c-8.2,2-15.6,6.7-20.9,13.4
			C15.7,37,12.9,45.2,12.9,54c0,21.1,17.2,38.3,38.3,38.3S89.4,75.1,89.4,54c0-8.8-2.9-17-8.3-23.8C75.8,23.5,68.3,18.7,60.1,16.8z"
			/>
		<path d="M99,49.4l-2.2-4.2l0.4-5.2c0.4-3.3-1-6.5-3.5-8.6l-3.7-3l-1.5-4.4c-0.8-3.4-3.4-6.1-6.7-7.1l-4.6-1.4l-3.5-4.1
			C71.5,9,68.4,7.7,65.2,8l-4.8,0.5l-4.7-2.3c-2.9-1.5-6.3-1.5-9.2,0l-4.2,2.2L37.2,8c-3.3-0.4-6.5,1-8.6,3.5l-3,3.7l-4.4,1.5
			c-3.4,0.8-6.1,3.4-7.1,6.7L12.6,28l-4.1,3.5c-2.4,2.1-3.7,5.2-3.4,8.4l0.5,4.8l-2.3,4.7c-1.5,2.9-1.5,6.3,0,9.2l2.2,4.2l-0.4,5.2
			c-0.4,3.3,1,6.5,3.5,8.6l3.7,3l1.5,4.4c0.8,3.4,3.4,6.1,6.7,7.1l4.6,1.4l3.5,4.1c2.1,2.4,5.2,3.7,8.4,3.4l4.8-0.5l4.7,2.3
			c1.4,0.8,3,1.2,4.6,1.2c1.6,0,3.2-0.4,4.6-1.2l4.2-2.2l5.2,0.4c3.3,0.4,6.5-1,8.6-3.5l3-3.7l4.4-1.5c3.4-0.8,6.1-3.4,7.1-6.7
			l1.4-4.6l4.1-3.5c2.4-2.1,3.7-5.2,3.4-8.4l-0.5-4.8l2.3-4.7C100.5,55.7,100.5,52.3,99,49.4L99,49.4z M95.6,56.8
			C95.6,56.8,95.5,56.8,95.6,56.8L92.9,62c-0.2,0.3-0.2,0.7-0.2,1l0.5,5.3c0.2,1.9-0.6,3.9-2.1,5.1l-4.5,3.9
			c-0.3,0.2-0.5,0.5-0.6,0.9l-1.5,5.1c-0.6,2-2.3,3.6-4.4,4.1c-0.1,0-0.1,0-0.2,0l-5,1.7c-0.3,0.1-0.6,0.3-0.9,0.6L70.7,94
			c-1.3,1.6-3.3,2.4-5.3,2.2c0,0-0.1,0-0.1,0l-5.8-0.4c-0.4,0-0.7,0.1-1,0.2l-4.7,2.5c-1.8,0.9-3.9,0.9-5.6,0c0,0,0,0,0,0l-5.2-2.6
			c-0.3-0.1-0.6-0.2-0.9-0.2c-0.1,0-0.1,0-0.2,0l-5.3,0.5c-1.9,0.2-3.9-0.6-5.1-2.1l-3.9-4.5c-0.2-0.3-0.5-0.5-0.9-0.6l-5.1-1.5
			c-2-0.6-3.6-2.3-4.1-4.4c0-0.1,0-0.1,0-0.2l-1.7-5c-0.1-0.3-0.3-0.6-0.6-0.9l-4.1-3.4c-1.6-1.3-2.4-3.3-2.2-5.3c0,0,0-0.1,0-0.1
			l0.4-5.8c0-0.4-0.1-0.7-0.2-1l-2.5-4.7c-0.9-1.8-0.9-3.9,0-5.6c0,0,0,0,0,0l2.6-5.2c0.2-0.3,0.2-0.7,0.2-1L9,39.5
			c-0.2-1.9,0.6-3.9,2.1-5.1l4.5-3.9c0.3-0.2,0.5-0.5,0.6-0.9l1.5-5.1c0.6-2,2.3-3.6,4.4-4.1c0.1,0,0.1,0,0.2,0l5-1.7
			c0.3-0.1,0.6-0.3,0.9-0.6l3.4-4.1c1.3-1.6,3.3-2.4,5.3-2.2c0,0,0.1,0,0.1,0l5.8,0.4c0.4,0,0.7-0.1,1-0.2l4.7-2.5
			c1.8-0.9,3.9-0.9,5.6,0c0,0,0,0,0,0l5.2,2.6c0.3,0.2,0.7,0.2,1,0.2l5.3-0.5c1.9-0.2,3.9,0.6,5.1,2.1l3.9,4.5
			c0.2,0.3,0.5,0.5,0.9,0.6l5.1,1.5c2,0.6,3.6,2.3,4.1,4.4c0,0.1,0,0.1,0,0.2l1.7,5c0.1,0.3,0.3,0.6,0.6,0.9l4.1,3.4
			c1.6,1.3,2.4,3.3,2.2,5.3c0,0,0,0.1,0,0.1l-0.4,5.8c0,0.4,0.1,0.7,0.2,1l2.5,4.7C96.5,52.9,96.5,55,95.6,56.8L95.6,56.8z"/>
		<path d="M42.8,43.5c-0.3-0.6-1-1.1-1.7-1.1H31c-1.1,0-1.9,0.9-1.9,1.9v29c0,1.1,0.9,1.9,1.9,1.9h10.1c0.8,0,1.5-0.5,1.8-1.2
			c1.5,0.2,3,0.6,4.5,1.1c2.4,0.7,4.8,1.3,7.3,1.3h11c3.4,0,6.2-1.8,7.4-4.8c0.6-1.5,0.7-3,0.4-4.3c0.6-0.6,1.2-1.3,1.6-2.1
			c0.8-1.7,1-3.6,0.5-5.2c0.9-0.8,1.5-1.9,1.9-3.3c0.3-1.2,0.3-2.4,0-3.5c1.7-1,2.9-2.9,2.9-4.9c0-1.6-0.6-3.1-1.8-4.2
			c-1.1-1.1-2.6-1.6-4.2-1.6l-15.6,0C57.7,41,57.3,39,58,37.4c1.4-3.3,1.3-6.1-0.3-9.1c-1.2-2.2-4.3-4.4-7-4c-1.6,0.2-2.8,1.4-3.1,3
			c-0.1,0.5-0.1,1-0.2,1.6c-0.1,1.5-0.2,3.6-1.5,6.1c-0.9,1.7-1.2,3.4-1.4,5C44.2,42.1,44,43.1,42.8,43.5L42.8,43.5z M32.9,46.3h6.3
			v25.1h-6.3V46.3z M48.3,40.5c0.2-1.3,0.5-2.7,1.1-3.8c1.7-3.2,1.8-6,1.9-7.6c0-0.4,0-0.9,0.1-1.1c0,0,0,0,0,0
			c0.7,0,2.3,0.9,2.9,2.1c1,2,1.1,3.6,0.1,5.9c-0.9,2.1-0.8,4.5,0.1,6.6c-0.9,0.1-1.6,0.9-1.6,1.9c0,1.1,0.9,1.9,1.9,1.9l19.7,0
			c0.6,0,1.1,0.2,1.5,0.6c0.3,0.3,0.6,0.7,0.6,1.5c0,1-0.9,1.9-2.1,1.9l-4.9,0.1c-1.1,0-1.9,0.9-1.9,2c0,1,0.9,1.9,1.9,1.9
			c0,0,0,0,0,0l4.1-0.1c0.1,0.4,0.2,1.1-0.1,1.9c-0.2,0.7-0.9,1.9-2.5,1.9c-1.1,0-1.9,0.9-1.9,1.9c0,1.1,0.9,1.9,1.9,1.9
			c0.3,0,0.6,0,0.9-0.1c0,0.5-0.1,1.2-0.4,1.8c-0.4,0.7-1,1.6-2.4,1.6c-1.1,0-1.9,0.9-1.9,1.9s0.9,1.9,1.9,1.9c0.2,0,0.4,0,0.6,0
			c0,0.4-0.1,0.8-0.3,1.3c-0.3,0.7-1.3,2.4-3.8,2.4h-11c-2,0-4.1-0.6-6.3-1.2c-1.8-0.5-3.5-1-5.4-1.2V47.4
			C47.3,46.6,47.9,43.1,48.3,40.5z"/>
		<path d="M51.1,19.5c1.1,0,1.9-0.9,1.9-1.9s-0.9-1.9-1.9-1.9h0c-1.1,0-1.9,0.9-1.9,1.9S50.1,19.5,51.1,19.5z"/>
	</g>
</g>
</svg>
