<?xml version="1.0" encoding="utf-8"?>
<!-- Generator: Adobe Illustrator 24.0.2, SVG Export Plug-In . SVG Version: 6.00 Build 0)  -->
<svg version="1.1" id="Capa_1" xmlns="http://www.w3.org/2000/svg" xmlns:xlink="http://www.w3.org/1999/xlink" x="0px" y="0px"
	 viewBox="0 0 102.2 106" style="enable-background:new 0 0 102.2 106;" xml:space="preserve">
<style type="text/css">
	.st0{fill:#77718C;}
	.st1{fill:#5C586F;}
	.st2{fill:#5BD6FD;}
	.st3{fill:#FFBD86;}
	.st4{fill:#FED2A4;}
	.st5{fill:#F9F097;}
	.st6{fill:#00C4FC;}
	.st7{fill:#FF748F;}
</style>
<g>
	<g>
		<path class="st0" d="M10.5,47.2c0-11.4,2.5-22,10.5-30.1c8-8,18.7-12.5,30.1-12.5c11.4,0,22,4.4,30.1,12.5
			c8,8,10.5,18.7,10.5,30.1H10.5z"/>
		<path class="st1" d="M54.9,4.8c-1.3-0.1-2.5-0.2-3.8-0.2c-11.4,0-22,4.4-30.1,12.5c-8,8-10.5,18.7-10.5,30.1h7.7
			c0-11.4,2.5-22,10.5-30.1C35.8,10,45,5.7,54.9,4.8z"/>
		<path class="st0" d="M91.7,47.2c7.7,42.1-17.4,44.2-17.4,44.2H28c0,0-25.2-2.2-17.4-44.2H91.7z"/>
		<path class="st1" d="M18.2,47.2h-7.7C2.8,89.2,28,91.4,28,91.4h7.7C35.6,91.4,10.4,89.2,18.2,47.2z"/>
		<path class="st2" d="M16.6,42.5c2.3-17,16.8-30.2,34.5-30.2s32.2,13.1,34.5,30.2H16.6z"/>
		<circle class="st3" cx="85.9" cy="51" r="8.2"/>
		<path class="st4" d="M65.8,78.7H36.4c0,0-11.1,7-11.1,21h8.3l17.6-2.9l17.6,2.9h8.3C76.9,85.7,65.8,78.7,65.8,78.7L65.8,78.7z"/>
		<path class="st3" d="M41.2,78.7h-4.8c0,0-11.1,7-11.1,21h4.8C30.1,85.7,41.2,78.7,41.2,78.7L41.2,78.7z"/>
		<path class="st5" d="M36.4,78.7h7.1v16.2h-7.1V78.7z"/>
		<path class="st5" d="M65.8,94.9h-7.1V78.7h7.1V94.9z"/>
		<path class="st6" d="M41.8,13.6c-12,3.3-21.4,12.9-24.4,25c-0.3,1.3-0.6,2.6-0.8,3.9h5.7c1.6-11.8,9.1-21.8,19.4-26.7L41.8,13.6
			L41.8,13.6z"/>
		<path class="st4" d="M85.9,47.2C85.9,66.4,70.3,82,51.1,82S16.3,66.4,16.3,47.2c0-1.6,0.1-3.1,0.3-4.6c1.9-2,12.6-12.4,34.5-12.4
			s32.6,10.3,34.5,12.4C85.8,44,85.9,45.6,85.9,47.2L85.9,47.2z"/>
		<path class="st3" d="M22.1,47.2c0-1.6,0.1-3.1,0.3-4.6c0.2-1.8,0.6-3.6,1.2-5.4c-3.9,2.3-6.1,4.5-6.9,5.4c0,0.1,0,0.2,0,0.3
			c-0.1,0-0.2,0-0.3,0c-4.5,0-8.2,3.6-8.2,8.2s3.6,8.2,8.2,8.2c0.8,0,1.4-0.1,2-0.3C23.1,72.3,36,82,51.1,82h0c0.9,0,2,0,2.9-0.1
			C36.1,80.4,22.1,65.4,22.1,47.2L22.1,47.2z"/>
		<g>
			<circle class="st5" cx="18.4" cy="60.9" r="4.2"/>
			<circle class="st5" cx="83.8" cy="60.9" r="4.2"/>
			<path class="st5" d="M59,9.9l-5.4,1.7c-1.6,0.5-3.3,0.5-4.9,0l-5.4-1.7c-1.9-0.6-3.9,0.8-3.9,2.9v13.9c0,2,0.9,3.9,2.4,5.2l7,5.9
				c1.4,1.2,3.4,1.2,4.8,0l7-5.9c1.5-1.3,2.4-3.2,2.4-5.2V12.8C62.9,10.8,60.9,9.3,59,9.9L59,9.9z"/>
		</g>
		<ellipse class="st7" cx="51.1" cy="24.2" rx="4.2" ry="6"/>
		<path class="st7" d="M68.7,99.7c0-5.4-4.4-9.7-9.7-9.7c-3.2,0-6,1.5-7.8,3.9c-1.8-2.4-4.6-3.9-7.8-3.9c-5.4,0-9.7,4.3-9.7,9.7
			H68.7z"/>
		<g>
			<ellipse class="st3" cx="32" cy="55.9" rx="7.1" ry="5.6"/>
			<ellipse class="st3" cx="70.2" cy="55.9" rx="7.1" ry="5.6"/>
		</g>
	</g>
	<g>
		<path d="M36.1,46.2c-0.8,0-1.4,0.6-1.4,1.4v2.9c0,0.8,0.6,1.4,1.4,1.4c0.8,0,1.4-0.6,1.4-1.4v-2.9C37.6,46.8,36.9,46.2,36.1,46.2z
			"/>
		<path d="M66.1,46.2c-0.8,0-1.4,0.6-1.4,1.4v2.9c0,0.8,0.6,1.4,1.4,1.4c0.8,0,1.4-0.6,1.4-1.4v-2.9C67.6,46.8,66.9,46.2,66.1,46.2z
			"/>
		<path d="M56,49.3c-0.6-0.5-1.5-0.5-2,0.1c-1.5,1.7-4.2,1.7-5.7,0c-0.5-0.6-1.4-0.7-2-0.1c-0.6,0.5-0.7,1.4-0.1,2
			c2.7,3.1,7.4,3.1,10.1,0C56.7,50.8,56.6,49.8,56,49.3L56,49.3z"/>
		<path d="M51.1,31.6c3.2,0,5.7-3.2,5.7-7.4s-2.5-7.4-5.7-7.4c-3.2,0-5.7,3.2-5.7,7.4S47.9,31.6,51.1,31.6L51.1,31.6z M51.1,19.7
			c1.5,0,2.8,2.1,2.8,4.5s-1.3,4.5-2.8,4.5s-2.8-2.1-2.8-4.5S49.6,19.7,51.1,19.7z"/>
		<path d="M93.1,44.7c-0.4-12.3-4-21.7-10.9-28.6C65-1.1,37.2-1.1,20,16.1C13.1,23,9.6,32.4,9.2,44.7c-2.7,3-3.2,7.4-1.2,11
			c-1.1,12.7,1,22.5,6.3,29.1c3.6,4.5,7.8,6.5,10.7,7.4c-0.7,2.3-1.1,4.8-1.1,7.6c0,0.8,0.6,1.4,1.4,1.4h51.7c0.8,0,1.4-0.6,1.4-1.4
			c0-2.8-0.4-5.3-1.1-7.6c2.8-0.9,6.9-2.8,10.4-7c0.5-0.6,0.4-1.5-0.2-2c-0.6-0.5-1.5-0.4-2,0.2c-3.2,3.8-6.9,5.5-9.2,6.2
			c-2.2-5.2-5.7-8.7-7.8-10.5c5.5-3,10.1-7.4,13.4-12.7c3.6,1.2,7.5-1.4,7.5-5.3c0,0,0-0.5-0.1-0.9c0.8-0.3,1.6-0.8,2.3-1.3
			c0.4,8.1-0.7,14.8-3.2,20c-0.3,0.7,0,1.6,0.7,1.9c0.7,0.3,1.6,0,1.9-0.7c3-6.3,4.1-14.5,3.3-24.3C96.3,52.1,95.8,47.7,93.1,44.7
			L93.1,44.7z M88.2,57.3c-0.5-0.6-1.1-1.1-1.9-1.5c0.9-3.6,1.2-7.5,0.9-11.4c5.4,1.1,7.3,7.9,3.2,11.6C89.8,56.6,89,57,88.2,57.3
			L88.2,57.3z M83.8,63.7c-1.5,0-2.8-1.3-2.8-2.8c0-3.3,5-3.9,5.5-0.4c0,0.3,0,0.4,0,0.4C86.6,62.5,85.2,63.7,83.8,63.7L83.8,63.7z
			 M22.7,64.6c1.5-1.7,1.4-3.7,1.4-3.7c0-3-2.4-5.5-5.3-5.6c-0.9-3.8-1.3-7.9-0.8-12.1c7.1-7.3,18.6-9.9,22.3-10.6
			c0.5,0.5,0.6,0.5,7.5,6.3c1.9,1.6,4.7,1.6,6.6,0c6.3-5.3,6.9-5.8,7.5-6.3c13.3,2.4,20.4,8.7,22.3,10.7c0.5,4.2,0.2,8.2-0.8,12.1
			c-4.7,0.3-7,5.9-3.9,9.4C66.7,85.7,35.9,85.9,22.7,64.6L22.7,64.6z M57.3,82.9v5.9c-2.3,0.3-4.5,1.4-6.2,3.1
			c-1.6-1.6-3.8-2.7-6.2-3.1v-5.9C49,83.6,53.3,83.6,57.3,82.9L57.3,82.9z M64.4,80.9V90c-1.3-0.8-2.8-1.2-4.2-1.4v-6.4
			C61.7,81.9,63,81.4,64.4,80.9z M37.8,80.9c1.4,0.6,2.9,1,4.2,1.4v6.4c-1.4,0.1-2.9,0.6-4.2,1.4V80.9z M38.4,93.1
			c3.7-2.7,8.8-1.9,11.5,1.7c0.5,0.6,1.1,0.6,1.1,0.6c0,0,0.7,0,1.1-0.6c1.8-2.4,4.6-3.6,7.5-3.3c3.6,0.3,6.7,3.1,7.4,6.8h-32
			C35.5,96.1,36.8,94.3,38.4,93.1L38.4,93.1z M9.6,51c0-3.2,2.3-6,5.4-6.6c-0.3,3.8,0,7.6,0.9,11.4c-0.7,0.4-1.3,0.9-1.9,1.5
			C11.4,56.4,9.6,53.8,9.6,51z M16.7,63.1c-1.6-1.3-1.3-3.9,0.6-4.7c1.9-0.8,4.1,0.7,3.9,2.9C21,63.3,18.5,64.4,16.7,63.1L16.7,63.1
			z M42.6,11.2c0.2,0-0.1,0,5.7,1.7c1.8,0.6,3.8,0.6,5.7,0l5.4-1.7c1-0.3,2.1,0.4,2.1,1.5v13.9c0,1.5-0.6,2.9-1.6,3.8
			c-0.3,0.3,0.1-0.1-7.3,6.2c-0.9,0.7-2.1,0.7-2.9,0c-7.5-6.3-7.1-6-7.4-6.2c-1-1-1.5-2.4-1.5-3.8c0-15,0-14,0-14.2
			C41,11.6,41.8,11.1,42.6,11.2L42.6,11.2z M64.4,26.7V16.5c9.2,4,16.3,12,19,22c-3.7-2.9-10.1-6.7-19.7-8.6
			C64.1,28.9,64.4,27.8,64.4,26.7z M22.1,18.1c16.1-16.1,42-16.1,58.1,0c5.9,5.9,9.2,13.9,9.9,24.3c-1-0.5-2.1-0.8-3.2-0.9
			c-2-12.7-10.7-23.4-22.6-28.1c0-0.2,0.4-2.6-1.8-4.2c-0.8-0.6-1.7-0.9-2.7-0.9c-1.2,0-1.4,0.3-6.8,1.9c-1.3,0.4-2.7,0.4-4,0
			l-5.4-1.7c-1.4-0.4-2.8-0.2-4,0.7c-2.2,1.6-1.8,4-1.8,4.2c-4.3,1.7-8.3,4.2-11.7,7.4c-0.6,0.5-0.6,1.5-0.1,2
			c0.5,0.6,1.5,0.6,2,0.1c2.9-2.7,6.1-4.9,9.7-6.4v10.1c0,1.1,0.2,2.2,0.7,3.3c-9.6,1.9-16,5.8-19.7,8.6c1.1-4.2,3-8.1,5.7-11.6
			c0.5-0.6,0.4-1.5-0.3-2c-0.6-0.5-1.5-0.4-2,0.3c-3.6,4.8-6,10.3-6.9,16.2c-1.1,0.1-2.2,0.4-3.2,0.9C12.9,32,16.1,24.1,22.1,18.1
			L22.1,18.1z M10.6,58.7c0.7,0.5,1.5,1,2.3,1.3c-0.1,0.3-0.1,0.6-0.1,0.9c0,4,3.9,6.6,7.5,5.3c3.2,5.1,7.8,9.6,13.4,12.7
			c-2.2,1.8-5.6,5.3-7.8,10.5C20.7,87.9,9.4,81.8,10.6,58.7L10.6,58.7z M35,81.7v10.7c-1.5,1.8-2.5,3.8-2.8,6h-5.5
			C27.1,91.9,30.1,86.1,35,81.7z M70,98.3c-0.3-2.2-1.2-4.3-2.8-6V81.7c4.8,4.4,7.8,10.2,8.2,16.6H70z"/>
	</g>
</g>
</svg>
