<?xml version="1.0" encoding="utf-8"?>
<!-- Generator: Adobe Illustrator 24.0.2, SVG Export Plug-In . SVG Version: 6.00 Build 0)  -->
<svg version="1.1" id="Capa_1" xmlns="http://www.w3.org/2000/svg" xmlns:xlink="http://www.w3.org/1999/xlink" x="0px" y="0px"
	 viewBox="0 0 189 169" style="enable-background:new 0 0 189 169;" xml:space="preserve">
<g>
	<g>
		<path d="M168.33,90.3c-0.81-0.08-1.63-0.14-2.44-0.1c-0.37,0.02-0.78,0.24-1.07,0.49c-0.56,0.49-1.07,1.04-1.54,1.61
			c-0.2,0.25-0.31,0.6-0.39,0.92c-0.16,0.62-0.15,1.31-0.42,1.87c-0.97,2.02-2.01,4.01-3.04,6c-0.64,1.23-1.31,2.44-1.96,3.67
			c-0.57,1.08-1.09,2.19-1.7,3.24c-1.94,3.37-3.81,6.79-6.31,9.8c-0.93,1.12-2.09,1.82-3.49,2.13c-0.26,0.06-0.57,0.02-0.81-0.08
			c-0.51-0.21-1-0.48-1.49-0.74c-0.56-0.29-0.82-0.77-0.87-1.39c-0.18-1.96-0.05-3.84,0.6-5.74c0.91-2.68,1.98-5.28,3.33-7.75
			c1.37-2.5,2.88-4.93,4.39-7.34c1.08-1.73,2.25-3.4,3.41-5.07c0.51-0.74,0.9-1.48,0.67-2.42c-0.05-0.22,0.01-0.48,0.05-0.71
			c0.16-0.87-0.04-1.13-0.92-0.98c-0.94,0.17-1.86,0.47-2.8,0.68c-1.18,0.27-2.2,0.88-3.18,1.55c-0.74,0.5-1.26,0.55-2,0.07
			c-0.38-0.25-0.63-0.19-0.88,0.18c-0.63,0.92-0.78,1.99-0.91,3.05c-0.06,0.45-0.16,0.81-0.48,1.13c-0.56,0.55-1.05,1.13-1.14,1.98
			c-0.05,0.49-0.57,0.6-0.92,0.23c-0.15-0.16-0.23-0.39-0.39-0.54c-0.28-0.26-0.56-0.55-0.9-0.7c-0.59-0.27-0.96-0.02-1.08,0.61
			c-0.04,0.23-0.1,0.47-0.2,0.69c-0.42,0.9-0.86,1.78-1.28,2.68c-0.08,0.16-0.1,0.36-0.13,0.54c-0.34,1.67-0.61,3.36-1.02,5.01
			c-0.38,1.5-0.66,3-0.58,4.56c0.02,0.34-0.08,0.7-0.17,1.04c-0.22,0.82-0.51,1.63-0.69,2.46c-0.4,1.84-0.61,3.71-0.18,5.57
			c0.22,0.95,0.55,1.88,0.9,2.8c0.16,0.42,0.42,0.82,0.7,1.18c0.65,0.85,1.63,1.25,2.52,1.79c1.55,0.95,3.16,0.91,4.81,0.37
			c0.36-0.12,0.72-0.31,1.01,0.08c0.28,0.39,0.2,0.8-0.02,1.2c-0.18,0.32-0.32,0.66-0.48,0.99c-0.16,0.35-0.28,0.73-0.48,1.06
			c-1.06,1.8-2.15,3.59-3.19,5.4c-0.37,0.64-0.64,1.34-0.91,2.02c-0.26,0.67-0.45,1.36-0.71,2.02c-0.11,0.27-0.29,0.61-0.53,0.71
			c-1.68,0.72-2.97,1.86-3.89,3.43c-0.45,0.76-1.26,0.75-1.73,0.01c-0.22-0.36-0.49-0.46-0.83-0.22c-0.51,0.36-1.07,0.68-1.48,1.14
			c-1.48,1.66-3.41,2.93-4.4,5.03c-0.09,0.19-0.29,0.33-0.44,0.5c-0.46,0.53-0.95,1.04-1.36,1.61c-0.76,1.05-1.44,2.16-2.21,3.2
			c-0.31,0.42-0.77,0.74-1.18,1.08c-0.63,0.51-1.33,0.94-1.9,1.51c-1.59,1.61-3.48,2.55-5.72,2.8c-0.36,0.04-0.66,0.11-0.77,0.51
			c-0.11,0.41,0.08,0.7,0.42,0.88c0.69,0.36,1.39,0.71,2.1,1c0.29,0.12,0.49,0.26,0.58,0.47c0.05,0.01,0.1,0.02,0.15,0.03
			c0.35,0.03,0.7,0.07,1.06,0.1c0.46-0.02,0.92-0.06,1.39-0.09c0.12-0.04,0.25-0.08,0.37-0.12c0.08-0.23,0.27-0.3,0.73-0.39
			c0.22-0.04,0.44-0.07,0.65-0.15c1.86-0.73,3.65-1.62,5.32-2.71c1.34-0.86,2.58-1.89,3.93-2.72c2.24-1.38,4.04-3.24,5.95-4.99
			c0.88-0.81,1.78-1.61,2.71-2.37c0.59-0.48,1.29-0.81,1.86-1.32c0.8-0.71,1.54-1.5,2.25-2.3c0.61-0.68,1.04-1.59,1.76-2.11
			c1.11-0.79,1.71-1.93,2.48-2.96c1.24-1.66,2.38-3.4,3.63-5.05c0.73-0.97,1.36-1.97,1.78-3.12c0.38-1.03,0.84-2.04,1.29-3.05
			c0.84-1.92,1.69-3.83,2.55-5.75c0.75-1.67,1.5-3.34,2.29-4.99c0.64-1.34,1.36-2.63,2-3.97c0.57-1.19,1.07-2.4,1.6-3.6
			c0.26-0.58,0.52-1.15,0.8-1.71c0.21-0.4,0.39-0.87,0.71-1.15c0.66-0.56,1.11-1.23,1.39-2.03c0.11-0.31,0.29-0.6,0.43-0.91
			c0.26-0.57,0.69-1.13,0.75-1.72c0.11-1.16,0.76-1.99,1.37-2.86c0.67-0.96,1.02-2.03,1.17-3.19c0.09-0.69,0.14-1.44,0.44-2.03
			c0.36-0.7,0.49-1.39,0.52-2.13C169.54,90.91,169.12,90.38,168.33,90.3z"/>
		<path d="M189,48.76c0-0.02,0-0.04,0-0.06c-0.01-0.11-0.03-0.23-0.03-0.34c0-0.05,0-0.09,0-0.14c-0.01-0.03-0.02-0.05-0.03-0.08
			c-0.03-0.1-0.05-0.19-0.06-0.29c-0.09-0.12-0.15-0.28-0.19-0.44c-0.28-1.08-1.1-1.56-2.02-1.98c-0.54-0.24-1.05-0.55-1.57-0.82
			c-0.67-0.35-1.34-0.85-2.13-0.68c-1.01,0.22-1.98,0.59-2.97,0.89c-0.35,0.1-0.7,0.25-1.05,0.25c-1.24,0-2.48-0.08-3.73-0.1
			c-1.03-0.01-1.92,0.31-2.62,1.12c-0.73,0.86-1.49,1.7-2.24,2.54c-0.96,1.08-1.93,2.16-2.88,3.25c-0.41,0.47-0.29,0.87,0.29,1.13
			c0.15,0.07,0.36,0.17,0.4,0.31c0.2,0.55-0.27,2.1-0.78,2.38c-0.72,0.4-1.16,0.94-1.29,1.76c-0.02,0.12-0.11,0.24-0.16,0.36
			c-0.37,0.91-0.87,1.79-1.08,2.73c-0.4,1.71-1.03,3.36-1.16,5.14c-0.13,1.68-0.04,3.3,0.78,4.76c0.55,0.98,1.27,1.9,2.55,2.14
			c0.41,0.08,0.81,0.42,1.11,0.74c0.38,0.41,0.77,0.83,1.33,0.82c1.16-0.03,2.34-0.06,3.47-0.27c1.45-0.27,2.89-0.68,4.2-1.43
			c0.16-0.09,0.35-0.12,0.53-0.16c0.72-0.18,1.21-0.65,1.51-1.29c0.16-0.35,0.24-0.74,0.34-1.12c0.16-0.58,0.4-0.67,0.91-0.34
			c0.09,0.06,0.17,0.14,0.27,0.2c0.57,0.36,1,0.17,1.16-0.48c0.1-0.41,0.16-0.86,0.37-1.21c0.46-0.76,0.53-1.61,0.67-2.45
			c0.09-0.53-0.17-0.89-0.65-1.01c-0.7-0.17-1.42-0.38-1.98,0.35c-0.16,0.21-0.42,0.36-0.66,0.5c-1.59,0.91-3.17,1.86-4.8,2.69
			c-0.85,0.43-1.78,0.73-2.71,0.92c-0.42,0.09-1.02-0.12-1.39-0.4c-1.03-0.78-1.54-2.91-1.09-4.13c0.35-0.94,0.69-1.88,1.06-2.81
			c0.22-0.55,0.41-1.12,0.72-1.62c0.82-1.33,1.63-2.66,2.55-3.91c0.93-1.26,1.93-2.49,3.01-3.62c1.64-1.72,3.62-2.99,5.76-4
			c0.61-0.29,1.22-0.45,1.77,0.03c0.53,0.47,0.37,1.12,0.15,1.66c-0.56,1.42-1.58,2.5-2.79,3.37c-0.49,0.35-0.85,0.72-1.14,1.23
			c-0.25,0.44-0.61,0.81-0.93,1.21c-0.63,0.8-1.19,1.81-0.56,2.73c0.18,0.27,0.28,0.6,0.39,0.92c0.27,0.75,0.8,0.87,1.32,0.29
			c1.28-1.42,2.54-2.85,3.85-4.24c1.7-1.81,3.33-3.64,3.99-6.12c0.03-0.11,0.07-0.23,0.13-0.33C188.9,49.11,188.92,48.93,189,48.76z
			"/>
		<path d="M40.95,48.58c0.39,0,0.78,0.04,1.17-0.01c1.08-0.13,2.02,0.19,2.88,0.8c0.13,0.1,0.3,0.19,0.37,0.33
			c0.49,0.92,1.09,1.79,1.1,2.92c0.01,1.55-0.2,3.04-0.6,4.55c-0.55,2.07-1.52,3.93-2.39,5.85c-1.23,2.72-3.01,5.11-4.54,7.64
			c-1.08,1.79-2.24,3.53-3.42,5.26c-0.45,0.65-1.02,1.22-1.56,1.81c-2.36,2.57-4.73,5.13-7.09,7.69c-0.15,0.16-0.27,0.37-0.45,0.49
			c-0.17,0.11-0.43,0.24-0.59,0.19c-0.47-0.17-0.8,0.01-1.19,0.23c-1.32,0.74-2.65,1.5-4.02,2.14c-1.73,0.8-3.48,1.58-5.28,2.19
			c-1.43,0.49-2.94,0.78-4.44,1.01c-0.64,0.1-1.34-0.18-2-0.34c-0.38-0.09-0.72-0.35-1.1-0.38c-1.04-0.1-1.85-0.67-2.61-1.27
			c-0.84-0.67-1.42-1.56-1.82-2.59c-0.43-1.11-0.84-2.21-0.97-3.41c-0.05-0.42-0.34-0.48-0.71-0.35c-0.68,0.25-0.9,0.07-0.88-0.66
			c0.07-2.93,0.05-5.86,0.23-8.79c0.12-2.01,0.5-4.01,0.82-6c0.06-0.37,0.36-0.73,0.6-1.05c0.54-0.69,0.81-1.43,0.78-2.31
			c-0.03-1.14,0.27-2.21,1.07-3.06c0.18-0.19,0.5-0.31,0.76-0.32c0.44-0.02,0.69-0.2,0.81-0.6c0.28-0.92,0.55-1.85,0.85-2.76
			c0.08-0.24,0.21-0.47,0.36-0.67c0.19-0.25,0.44-0.45,0.65-0.69c0.16-0.18,0.43-0.36,0.45-0.55c0.14-1.29,1.44-2.03,1.56-3.32
			c0.02-0.18,0.08-0.36,0.09-0.55c0.04-0.66-0.08-0.8-0.73-0.78c-0.52,0.01-0.69-0.23-0.7-0.7c-0.01-0.59,0.1-1.12,0.43-1.64
			c0.46-0.73,0.81-1.54,1.27-2.28c0.19-0.32,0.51-0.56,0.8-0.81c0.65-0.57,1.33-1.12,1.99-1.68c0.11-0.09,0.23-0.2,0.29-0.33
			c0.67-1.52,1.96-2.54,3.03-3.72c0.83-0.92,1.75-1.77,2.7-2.57c0.45-0.38,1.05-0.61,1.61-0.83c0.19-0.07,0.5,0.08,0.71,0.19
			c0.6,0.31,0.93,0.21,1.42-0.25c1.05-0.99,2.11-1.98,3.23-2.89c1.61-1.31,3.24-2.59,4.92-3.81c0.74-0.54,1.6-0.94,2.44-1.31
			c1.28-0.58,2.61-1.03,3.88-1.63c1.45-0.68,2.84-1.49,4.29-2.18c0.98-0.47,2-0.87,3.03-1.24c0.24-0.09,0.58,0.01,0.86,0.1
			c0.65,0.21,1.23,0.22,1.75-0.31c0.16-0.16,0.41-0.24,0.63-0.33c0.42-0.19,0.87-0.33,1.27-0.55c0.43-0.24,0.7-0.16,0.89,0.27
			c0.14,0.3,0.28,0.61,0.41,0.91c0.31,0.69,0.57,1.41,1.41,1.69c0.16,0.05,0.31,0.38,0.32,0.59c0.02,0.52,0.24,0.87,0.67,1.13
			c0.48,0.29,0.6,0.7,0.3,1.18c-1.47,2.38-2.89,4.79-4.48,7.09c-2.23,3.24-5.06,5.96-7.88,8.68c-1.29,1.23-2.82,1.95-4.66,1.86
			c-0.55-0.03-1.11,0.06-1.67,0.04c-0.23-0.01-0.45-0.19-0.68-0.29c0.14-0.19,0.24-0.44,0.42-0.57c0.35-0.24,0.72-0.46,1.12-0.61
			c0.49-0.19,0.82-0.52,0.87-1c0.14-1.48,1.13-2.51,1.86-3.67c0.77-1.22,1.57-2.42,2.38-3.61c0.35-0.52,0.8-0.98,1.14-1.5
			c0.24-0.36,0.45-0.78,0.54-1.2c0.12-0.51-0.16-0.76-0.69-0.74c-0.15,0.01-0.3,0.03-0.43,0.09c-1.22,0.54-2.47,1.02-3.63,1.66
			c-1.06,0.59-2.03,1.36-3.03,2.06c-1.32,0.92-2.69,1.78-3.94,2.8c-0.99,0.8-1.84,1.77-2.71,2.7c-0.4,0.43-0.71,0.94-1.04,1.42
			c-0.98,1.44-1.96,2.88-2.93,4.32c-0.26,0.38-0.46,0.81-0.72,1.18c-0.76,1.08-1.52,2.17-2.33,3.22c-0.1,0.13-0.52,0.18-0.66,0.08
			c-0.46-0.35-0.6-0.14-0.81,0.28c-0.71,1.41-1.48,2.78-2.18,4.19c-0.96,1.9-1.96,3.79-2.79,5.75c-0.85,2.02-1.57,4.1-2.24,6.19
			c-0.39,1.23-0.63,2.51-0.86,3.79c-0.28,1.59-0.48,3.19-0.68,4.79c-0.13,1-0.14,1.98,0.14,2.98c0.2,0.71,0.21,1.47,0.36,2.19
			c0.21,1.04,1.06,1.48,1.9,1.87c0.25,0.11,0.65-0.03,0.96-0.13c1.64-0.58,3.11-1.48,4.54-2.46c0.43-0.29,0.83-0.64,1.29-0.88
			c0.4-0.2,0.86-0.27,1.29-0.41c0.37-0.12,0.82-0.17,1.11-0.4c1.1-0.88,2.18-1.79,3.21-2.75c1.38-1.29,2.8-2.56,4.01-4
			c1.53-1.81,2.86-3.78,4.28-5.68c0.65-0.88,1.38-1.7,1.96-2.63c1.22-1.97,2.36-4,2.92-6.28c0.14-0.56,0.12-1.18,0.08-1.76
			c-0.03-0.5-0.35-0.65-0.78-0.38c-0.39,0.24-0.73,0.17-1.15,0.12c-0.45-0.05-0.98,0.12-1.39,0.35c-1.3,0.74-2.58,1.53-3.84,2.35
			c-0.59,0.38-1.09,0.89-1.64,1.33c-0.72,0.58-1.42,1.18-2.17,1.71c-0.95,0.67-1.94,1.27-2.68,2.2c-1.48,1.85-3.01,3.66-4.46,5.54
			c-0.54,0.69-0.88,1.54-1.32,2.3c-0.2,0.33-0.41,0.67-0.68,0.95c-0.15,0.17-0.45,0.37-0.61,0.32c-0.22-0.06-0.49-0.33-0.53-0.55
			c-0.11-0.58-0.14-1.18-0.16-1.77c-0.04-0.94-0.02-1.89-0.09-2.83c-0.06-0.8-0.03-1.48,0.66-2.1c1.23-1.11,1.85-2.66,2.69-4.06
			c1.16-1.93,2.37-3.85,4.18-5.29c0.72-0.57,1.35-1.27,2.07-1.85c1.18-0.95,2.36-1.92,3.61-2.77c1.27-0.87,2.62-1.62,3.93-2.42
			c1.83-1.12,3.85-1.48,5.96-1.47c0.37,0,0.74,0,1.11,0C40.95,48.57,40.95,48.58,40.95,48.58z"/>
		<path d="M42.21,105.7c0.03,0-0.04,0.01-0.12,0.01c-2.74-0.22-5.3,0.74-7.94,1.19c-0.36,0.06-0.71,0.22-1.06,0.34
			c-0.39,0.14-0.53,0.4-0.49,0.82c0.02,0.23-0.09,0.47-0.14,0.7c-0.3-0.08-0.7-0.06-0.89-0.25c-0.32-0.32-0.63-0.42-1.04-0.34
			c-0.42,0.09-0.57,0.3-0.38,0.71c0.29,0.65,0.14,0.96-0.57,0.97c-1.49,0.04-2.97,0-4.09-1.27c-0.19-0.22-0.64-0.31-0.96-0.29
			c-1.73,0.11-2.9-0.79-3.87-2.07c-0.4-0.53-0.57-1.14-0.57-1.83c0-0.81-0.13-1.63-0.1-2.44c0.03-0.83,0.1-0.83,0.91-0.68
			c0.18,0.03,0.46-0.06,0.57-0.2c0.79-1,1.58-2,1.92-3.29c0.1-0.38,0.54-0.74,0.9-0.98c0.49-0.32,0.75-0.69,0.75-1.26
			c0.01-0.83,0.49-1.38,1.05-1.94c0.79-0.78,1.69-1.04,2.79-1.13c0.82-0.07,1.61-0.58,2.41-0.9c0.08-0.03,0.17-0.11,0.2-0.19
			c0.45-1.34,1.81-1.52,2.79-2.19c0.61-0.42,1.22-0.82,1.85-1.21c0.54-0.33,1.06-0.74,1.65-0.9c1.01-0.27,1.87-0.81,2.74-1.32
			c1.01-0.59,2.09-0.72,3.22-0.61c0.87,0.09,0.97,0.03,1.3-0.77c0.25-0.6,0.42-0.7,1.02-0.46c0.51,0.21,0.92,0.1,1.42-0.12
			c0.89-0.4,1.83-0.69,2.78-0.97c0.94-0.27,1.9-0.55,2.86-0.67c1.52-0.19,3.06-0.3,4.6-0.35c0.65-0.02,1.03,0.52,1.27,1.11
			c0.22,0.52,0.16,0.98-0.19,1.45c-0.53,0.71-0.98,1.48-1.47,2.22c-1.33,2-2.83,3.82-5.03,4.91c-0.49,0.24-1.04,0.39-1.58,0.52
			c-0.53,0.13-1.25-0.69-1.36-1.44c-0.1-0.77,0.37-1.29,0.78-1.83c0.09-0.12,0.26-0.18,0.32-0.31c0.13-0.29,0.2-0.59,0.3-0.89
			c-0.27-0.04-0.58-0.18-0.81-0.1c-1.94,0.74-3.88,1.47-5.78,2.3c-1.31,0.56-2.56,1.25-3.84,1.9c-0.59,0.3-1.19,0.61-1.75,0.97
			c-0.15,0.1-0.27,0.41-0.24,0.6c0.07,0.46-0.09,0.75-0.48,0.95c-0.59,0.3-1.2,0.57-1.78,0.9c-0.83,0.48-1.68,0.95-2.43,1.54
			c-1.21,0.95-2.35,1.98-3.5,3c-0.52,0.47-0.99,0.99-1.49,1.49c-0.35,0.35-0.52,0.76-0.28,1.21c0.26,0.47,0.73,0.48,1.18,0.36
			c2.73-0.75,5.46-1.52,8.19-2.27c0.13-0.03,0.25-0.09,0.38-0.09c2.07-0.01,4-0.76,5.99-1.16c1.27-0.26,2.54-0.27,3.81,0
			c1.6,0.33,3.24,0.54,4.77,1.06c1.99,0.68,3.84,1.69,4.71,3.83c0.28,0.68,0.61,1.34,0.9,2.02c0.81,1.9,1.1,3.88,0.55,5.87
			c-0.28,1.03-0.81,2.02-1.4,2.93c-0.52,0.79-1,1.52-1.28,2.47c-0.51,1.71-1.43,3.23-2.63,4.59c-1.62,1.85-3.4,3.52-5.24,5.14
			c-0.75,0.66-1.3,1.52-2.02,2.21c-0.55,0.53-1.22,0.95-1.85,1.4c-0.32,0.22-0.71,0.35-1,0.59c-0.98,0.85-2.07,1.48-3.27,1.95
			c-0.03,0.01-0.07,0.03-0.1,0.05c-1.53,1.05-3.05,2.09-4.57,3.14c-0.41,0.29-0.39,0.5,0.02,0.82c0.75,0.58,0.77,0.9,0.01,1.45
			c-1.95,1.39-4.01,2.61-6.3,3.35c-0.58,0.19-1.25,0.04-1.88,0.12c-0.63,0.08-1.28,0.17-1.88,0.37c-1.12,0.38-2.21,0.85-3.32,1.27
			c-0.26,0.09-0.54,0.11-0.82,0.14c-1.27,0.13-2.54,0.27-3.81,0.36c-0.53,0.04-1.07,0.01-1.6-0.06c-0.62-0.08-1.28-0.13-1.84-0.39
			c-0.76-0.35-1.47-0.83-2.13-1.35c-0.48-0.37-0.91-0.84-1.25-1.34c-0.39-0.57-0.62-1.24-0.98-1.82c-1.35-2.14-1.61-4.52-1.22-6.91
			c0.35-2.16,1.3-4.15,2.73-5.84c0.8-0.95,1.68-1.83,2.56-2.7c0.55-0.54,0.87-0.53,1.43,0.01c0.37,0.36,0.72,0.75,1.01,1.18
			c0.42,0.62,0.34,1.29,0.06,1.97c-0.65,1.61-1.42,3.18-1.68,4.93c-0.17,1.18,0.19,2.17,1.14,2.74c0.54,0.32,1.09,0.37,1.69,0.09
			c2.28-1.06,4.58-2.07,6.87-3.13c0.79-0.37,1.54-0.81,2.32-1.2c1.31-0.66,2.64-1.27,3.93-1.96c1.75-0.94,3.48-1.91,5.18-2.93
			c0.69-0.41,1.28-1,1.94-1.48c0.69-0.5,1.43-0.93,2.11-1.43c1.31-0.94,2.64-1.86,3.87-2.89c1.65-1.37,3.26-2.8,4.8-4.29
			c1.28-1.24,2.17-2.72,2.48-4.55c0.2-1.16-0.22-1.86-1.1-2.49c-0.7-0.51-1.32-1.13-2.01-1.65C46.2,105.53,44.26,105.59,42.21,105.7
			z"/>
		<path d="M120.81,78.62c-0.11-1.33-0.22-2.66-0.32-3.99c-0.02-0.22-0.03-0.45,0-0.67c0.13-1.23,0.25-2.47,0.43-3.69
			c0.05-0.31,0.25-0.71,0.5-0.86c0.61-0.36,0.97-0.86,1.15-1.51c0.37-1.36,0.7-2.73,1.05-4.09c0.12-0.49,0.29-0.96,0.37-1.46
			c0.06-0.43,0.08-0.89,0-1.31c-0.23-1.34,0.2-2.47,0.95-3.54c0.25-0.36,0.46-0.74,0.66-1.13c0.35-0.67,0.72-1.33,1-2.03
			c0.31-0.77,0.53-1.57,0.77-2.36c0.35-1.15,0.67-2.31,1.03-3.46c0.14-0.46,0.31-0.91,0.5-1.35c0.44-1.03,0.9-2.06,1.36-3.09
			c0.08-0.17,0.19-0.32,0.24-0.5c0.32-1.12,0.59-2.26,0.93-3.37c0.38-1.26,0.82-2.5,1.23-3.74c0.44-1.34,0.89-2.67,1.33-4.01
			c0.3-0.91,0.56-1.84,0.9-2.74c0.34-0.9,0.75-1.77,1.14-2.64c0.42-0.96,0.85-1.93,1.29-2.89c0.13-0.28,0.31-0.55,0.5-0.79
			c0.32-0.39,0.7-0.42,1.12-0.12c0.54,0.39,1.15,0.69,1.64,1.13c0.29,0.26,0.44,0.69,0.58,1.08c0.14,0.4,0.09,0.88,0.29,1.23
			c0.18,0.31,0.56,0.56,0.91,0.7c0.39,0.15,0.48-0.29,0.65-0.54c1.48-2.07,2.85-4.22,4.45-6.23c1.3-1.64,2.97-2.83,4.36-4.33
			c0.3-0.32,0.62-0.25,0.91,0.08c0.6,0.7,0.54,0.63,1.23-0.01c0.69-0.64,1.51-1.13,2.26-1.7c0.52-0.39,1.06-0.76,1.54-1.19
			c0.42-0.38,0.82-0.73,1.43-0.78c0.16-0.01,0.41-0.34,0.41-0.53c0.01-0.55,0.26-0.92,0.69-1.2c0.86-0.55,1.56-1.37,2.67-1.52
			c0.21-0.03,0.41-0.24,0.57-0.4c0.56-0.57,1.08-1.17,1.64-1.74c0.47-0.47,0.67-0.44,1.04,0.1c0.46,0.68,1.05,1.13,1.93,1.11
			c1.4-0.03,2.58,0.59,3.73,1.29c0.15,0.09,0.29,0.23,0.4,0.38c0.23,0.31,0.17,0.56-0.21,0.68c-2.72,0.82-5.14,2.27-7.57,3.67
			c-1.68,0.96-3.29,2.09-4.81,3.3c-2,1.59-3.94,3.26-5.8,5.01c-1.85,1.74-3.61,3.58-5.33,5.44c-1.73,1.88-3.42,3.8-5.04,5.77
			c-0.76,0.92-1.33,2.01-1.95,3.04c-0.93,1.57-1.84,3.17-2.74,4.76c-0.32,0.57-0.06,0.95,0.59,0.91c0.15-0.01,0.3-0.02,0.44-0.08
			c0.99-0.42,1.94-1.04,2.96-1.22c1.4-0.24,2.86-0.14,4.29-0.18c1.07,0.72,2.05,1.45,2.62,2.75c0.75,1.72,0.72,3.46,0.67,5.23
			c-0.04,1.41-0.18,2.81-0.26,4.22c-0.03,0.57-0.24,0.93-0.84,1.07c-0.71,0.16-1.04,0.71-1.25,1.37c-0.33,1.04-0.67,2.08-1.02,3.11
			c-0.06,0.19-0.13,0.41-0.27,0.54c-0.61,0.57-0.7,1.27-0.61,2.04c0.02,0.16,0.01,0.35-0.05,0.49c-0.55,1.23-0.89,2.63-1.72,3.63
			c-1.08,1.29-1.34,2.9-2.21,4.24c-0.24,0.37-0.39,0.61-0.84,0.26c-0.34-0.26-0.67-0.18-0.88,0.21c-0.54,1.01-1.45,1.34-2.52,1.59
			c-1.24,0.28-2.44,0.41-3.59-0.11c-0.63-0.29-1.19-0.79-1.71-1.28c-0.35-0.33-0.07-0.68,0.19-0.97c0.63-0.73,1.31-1.42,1.89-2.18
			c1.03-1.36,1.99-2.77,3-4.14c2.21-2.98,3.84-6.27,5.07-9.73c0.56-1.57,0.75-3.27,1.09-4.92c0.08-0.4,0.13-0.81,0.11-1.21
			c-0.02-0.27-0.13-0.65-0.32-0.75c-0.22-0.11-0.65-0.07-0.86,0.08c-0.95,0.67-1.94,1.32-2.77,2.12c-1.74,1.66-3.5,3.32-4.94,5.27
			c-2.21,2.99-4.15,6.14-5.61,9.56c-0.49,1.14-0.9,2.31-1.34,3.47c-0.07,0.19-0.12,0.39-0.17,0.59c-0.47,1.82-0.95,3.65-1.41,5.48
			c-0.11,0.45-0.14,0.92-0.21,1.37c-0.14,0.95-0.31,1.9-0.42,2.85c-0.04,0.36-0.01,0.74,0.09,1.09c0.14,0.48,0.1,0.87-0.24,1.23
			c-1.12,1.2-2.36,2.14-4.11,2.12c-0.72-0.01-0.97-0.21-0.98-0.95c-0.01-0.82,0-1.63,0-2.45C120.7,78.62,120.76,78.62,120.81,78.62z
			"/>
		<path d="M104.89,75.8c-1.18-0.17-2.37-0.31-3.55-0.52c-1.41-0.26-1.45-0.26-1.6,1.12c-0.27,2.4-0.32,4.8-0.07,7.2
			c0.03,0.26,0.02,0.52,0,0.78c-0.03,0.5-0.24,0.86-0.73,1.08c-0.51,0.23-0.98,0.53-1.48,0.77c-0.31,0.15-0.64,0.3-0.98,0.37
			c-1.19,0.25-1.52-0.05-1.57-1.26c-0.03-0.66-0.19-1.31-0.29-1.97c-0.21-1.35-0.46-2.7-0.59-4.06c-0.04-0.41,0.17-0.94,0.44-1.25
			c0.44-0.51,0.61-1.03,0.43-1.63c-0.41-1.44,0.14-2.88-0.07-4.31c-0.02-0.12,0.05-0.25,0.09-0.37c0.56-1.6,1.14-3.2,1.68-4.81
			c0.48-1.43,0.9-2.89,1.38-4.32c0.61-1.84,1.16-3.71,1.92-5.49c0.68-1.59,1.62-3.08,2.44-4.61c0.12-0.23,0.33-0.43,0.38-0.67
			c0.05-0.26,0.06-0.61-0.08-0.81c-0.26-0.38-0.17-0.68,0.02-1.03c0.21-0.39,0.37-0.8,0.59-1.18c0.27-0.48,0.53-0.98,0.87-1.4
			c0.11-0.14,0.52-0.15,0.73-0.08c0.87,0.32,1.15,0.17,1.32-0.75c0.24-1.28,0.83-2.32,2.11-2.86c0.3-0.13,0.55-0.37,0.83-0.55
			c0.53-0.34,1.05-0.68,1.6-0.99c0.59-0.34,1.17-0.72,1.81-0.96c1.21-0.45,2.46-0.8,3.68-1.21c0.47-0.16,0.92-0.4,1.41-0.5
			c0.91-0.18,1.72,0.11,2.43,0.69c0.64,0.52,1.31,0.95,2.16,1.09c0.3,0.05,0.57,0.32,0.82,0.53c1.33,1.09,1.86,2.53,1.86,4.21
			c0,1.73,0.07,3.48-0.49,5.13c-0.39,1.16-0.61,2.34-0.85,3.52c-0.17,0.87-0.68,1.67-1.04,2.5c-0.1,0.22-0.19,0.44-0.29,0.66
			c-0.82,1.7-1.61,3.41-2.48,5.08c-0.3,0.58-0.69,1.09-0.85,1.77c-0.11,0.45-0.56,0.86-0.93,1.2c-0.55,0.51-0.87,1.02-0.54,1.81
			c0.19,0.45-0.17,0.76-0.46,1.05c-1.51,1.48-3,2.97-4.52,4.43c-0.55,0.52-1.13,1.03-1.76,1.44c-0.49,0.31-1.07,0.53-1.63,0.63
			C107.7,75.48,106.32,75.62,104.89,75.8z M103.06,64.71c0,0.24-0.03,0.49,0.01,0.72c0.29,1.84,1.66,2.75,3.48,1.95
			c0.22-0.1,0.46-0.14,0.67-0.25c1-0.52,2.08-0.93,2.96-1.6c0.96-0.73,1.78-1.68,2.59-2.59c0.63-0.7,1.2-1.46,1.71-2.25
			c0.83-1.29,1.66-2.59,2.37-3.96c0.56-1.09,0.94-2.28,1.38-3.44c0.13-0.35,0.18-0.72,0.31-1.07c0.37-0.98,0.33-1.97,0.1-2.96
			c-0.23-1-1.31-1.77-2.33-1.71c-0.53,0.03-1.07-0.01-1.61,0.02c-0.29,0.02-0.62,0.04-0.84,0.19c-1.57,1.05-3.08,2.18-4.38,3.56
			c-0.8,0.85-1.5,1.73-1.89,2.85c-0.12,0.34-0.33,0.66-0.54,0.96c-1.09,1.52-2.22,3.01-2.79,4.83
			C103.77,61.54,103.23,63.08,103.06,64.71z"/>
		<path d="M61.48,121.68c0.1-1.54,0.15-2.88,0.28-4.2c0.04-0.45,0.22-0.9,0.41-1.31c0.52-1.13,1.07-2.24,1.64-3.35
			c0.27-0.52,0.62-1.01,0.91-1.52c0.2-0.35,0.37-0.72,0.51-1.1c0.34-0.89,0.74-1.67,1.59-2.26c0.59-0.4,0.96-1.15,1.36-1.79
			c1.76-2.81,3.5-5.64,5.75-8.1c1.18-1.28,2.33-2.59,3.51-3.87c0.22-0.24,0.51-0.43,0.78-0.61c0.34-0.23,0.6-0.51,0.42-0.92
			c-0.18-0.42-0.6-0.44-0.96-0.32c-0.35,0.11-0.65,0.35-0.98,0.51c-0.48,0.23-0.96,0.46-1.45,0.67c-0.86,0.38-1.72,0.77-2.59,1.13
			c-0.85,0.35-1.71,0.66-2.56,1.01c-0.32,0.13-0.62,0.32-0.91,0.51c-0.71,0.47-1.41,0.94-2.09,1.45c-0.81,0.6-1.64,1.21-2.39,1.88
			c-0.74,0.67-1.43,1.26-2.51,1.38c-0.85,0.09-1.65,0.53-2.49,0.77c-1.45,0.42-2.91-0.1-3.8-1.31c-0.4-0.56-0.33-0.97,0.14-1.46
			c0.78-0.81,1.56-1.64,2.26-2.52c0.66-0.82,1.44-1.31,2.5-1.33c0.72-0.01,1.25-0.29,1.69-0.88c1.03-1.39,2.39-2.35,4.02-2.96
			c0.83-0.31,1.59-0.79,2.41-1.15c1.02-0.44,2.05-0.86,3.09-1.24c2.68-0.99,5.52-1.3,8.31-1.77c1.43-0.24,2.91-0.11,4.37-0.15
			c0.91-0.03,1.81-0.06,2.72-0.1c0.76-0.03,1.38,0.22,1.97,0.74c0.38,0.33,0.91,0.54,1.41,0.68c0.77,0.22,1,0.52,0.73,1.29
			c-0.14,0.4-0.34,0.78-0.52,1.17c-0.29,0.65-0.79,0.9-1.5,1.05c-0.85,0.18-1.62,0.67-2.45,0.99c-2.46,0.96-4.26,2.79-6.09,4.58
			c-1.57,1.54-2.59,3.44-3.6,5.36c-0.88,1.67-2,3.21-2.93,4.85c-0.56,0.99-0.97,2.07-1.46,3.1c-0.38,0.8-0.78,1.6-1.16,2.4
			c-0.66,1.41-1.38,2.79-1.96,4.23c-0.51,1.27-0.43,2.64-0.1,3.95c0.5,1.99,3.04,3.01,4.79,1.95c0.82-0.5,1.63-1.03,2.4-1.61
			c0.34-0.26,0.56-0.69,0.87-1c0.17-0.17,0.43-0.4,0.62-0.37c0.18,0.03,0.35,0.33,0.46,0.55c0.15,0.29,0.31,0.61,0.35,0.93
			c0.05,0.36,0.03,0.75-0.05,1.12c-0.06,0.3-0.28,0.57-0.36,0.87c-0.38,1.33-1.06,2.52-1.83,3.65c-0.39,0.58-0.85,1.13-1.33,1.64
			c-0.26,0.27-0.6,0.55-0.96,0.63c-1.11,0.26-1.98,0.92-2.87,1.55c-0.51,0.36-1,0.4-1.57,0.26c-0.97-0.23-1.97-0.37-2.92-0.65
			c-0.49-0.14-1.01-0.43-1.33-0.8c-0.93-1.1-1.75-2.29-2.65-3.42C62.21,124.98,61.45,123.38,61.48,121.68z"/>
		<path d="M94.62,49.8c0.24,1.53-0.18,3.2-0.43,4.88c-0.12,0.81-0.21,1.62-0.28,2.43c-0.09,1.07-0.18,2.14-0.22,3.21
			c-0.04,0.94-0.03,1.89-0.02,2.84c0,0.51-0.12,0.93-0.66,1.1c-0.54,0.17-0.73,0.55-0.76,1.09c-0.06,1.24-0.09,2.49-0.27,3.72
			c-0.12,0.79-0.48,1.54-0.73,2.31c-0.22,0.69-0.38,1.39-0.65,2.06c-0.13,0.31-0.41,0.64-0.7,0.78c-0.77,0.37-1.56,0.76-2.38,0.9
			c-0.74,0.13-1.55,0.05-2.29-0.14c-0.71-0.18-0.79-0.71-0.33-1.29c0.78-0.97,1.44-2.01,1.78-3.23c0.04-0.16,0.26-0.26,0.34-0.41
			c0.12-0.23,0.24-0.48,0.24-0.73c0-0.13-0.29-0.4-0.38-0.37c-0.21,0.06-0.42,0.24-0.57,0.41c-1.08,1.2-2.15,2.4-3.21,3.61
			c-0.74,0.84-1.67,1.35-2.7,1.79c-1.46,0.63-2.97,0.56-4.48,0.62c-0.85,0.03-1.7-0.08-2.55-0.16c-1.12-0.11-2.14-0.45-2.88-1.36
			c-0.15-0.18-0.27-0.41-0.34-0.63c-0.32-0.95-0.61-1.9-0.91-2.85c-0.06-0.19-0.16-0.4-0.15-0.59c0.09-1.75-0.15-3.52,0.36-5.25
			c0.21-0.71,0.28-1.45,0.45-2.17c0.1-0.41,0.25-0.81,0.4-1.2c0.09-0.24,0.25-0.46,0.33-0.71c0.34-1.03,0.62-2.09,1-3.11
			c0.23-0.62,0.63-1.17,0.89-1.78c0.55-1.27,1.5-2.28,2.22-3.43c1.1-1.77,2.76-2.99,4.16-4.46c0.08-0.08,0.18-0.14,0.24-0.24
			c0.79-1.23,2.07-1.87,3.27-2.58c1.02-0.61,2.12-1.06,3.17-1.62c1.27-0.67,2.63-0.46,3.97-0.5c1.19-0.03,2.22,0.44,3.15,1.09
			c0.43,0.29,0.75,0.76,1.06,1.19c0.6,0.83,0.95,1.75,0.87,2.81C94.58,48.41,94.62,49,94.62,49.8z M86.01,49.09
			c-0.55,0.12-1.17,0.12-1.65,0.38c-1.36,0.75-2.68,1.57-3.75,2.73c-0.22,0.24-0.57,0.37-0.77,0.62c-0.42,0.54-0.79,1.12-1.16,1.69
			c-0.12,0.18-0.17,0.4-0.24,0.61c-0.17,0.44-0.25,0.94-0.51,1.32c-0.54,0.82-1.22,1.54-1.76,2.36c-0.53,0.82-1.07,1.66-1.39,2.57
			c-0.47,1.34-0.78,2.74-1.09,4.12c-0.08,0.37,0.01,0.84,0.16,1.2c0.34,0.78,1.1,0.91,1.85,1.03c1.66,0.27,3.04-0.47,4.42-1.19
			c0.68-0.35,1.36-0.79,1.92-1.31c2.09-1.99,3.63-4.37,4.95-6.92c0.85-1.64,1.46-3.35,1.91-5.13
			C89.43,51.06,88.11,48.87,86.01,49.09z"/>
		<path d="M83.58,118.16c0.34-2.27,0.38-4.36,1.11-6.33c0.61-1.65,1.19-3.31,1.92-4.9c0.59-1.29,1.4-2.48,2.1-3.72
			c1.08-1.92,2.49-3.59,3.86-5.29c2.09-2.59,4.52-4.75,7.46-6.29c1.02-0.53,2.15-1.07,3.27-1.18c2.34-0.22,4.72-0.16,6.51,1.74
			c0.75,0.79,1.24,1.74,1.39,2.89c0.36,2.88-0.22,5.61-1.23,8.27c-0.03,0.09-0.08,0.18-0.08,0.27c-0.1,1.78-1.02,3.27-1.69,4.85
			c-0.33,0.78-0.59,1.6-0.95,2.37c-0.33,0.7-0.77,1.35-1.14,2.03c-0.3,0.55-0.56,1.12-0.87,1.66c-0.18,0.31-0.39,0.63-0.65,0.87
			c-0.55,0.49-0.9,1-0.66,1.8c0.07,0.24-0.07,0.64-0.26,0.83c-1.7,1.74-3.39,3.49-5.17,5.14c-1.17,1.08-2.64,1.67-4.23,1.76
			c-1.49,0.09-3,0.09-4.49,0.03c-0.62-0.03-1.26-0.29-1.85-0.52c-0.77-0.3-1.58-0.47-2.23-1.08c-0.7-0.65-1.11-1.46-1.41-2.3
			C83.94,120.05,83.78,119,83.58,118.16z M105.16,100.3c-0.13-0.54-0.24-1.08-0.39-1.61c-0.15-0.55-0.53-0.73-1.1-0.69
			c-0.47,0.04-0.95-0.11-1.42-0.11c-0.49-0.01-1.03-0.07-1.44,0.11c-0.65,0.28-1.21,0.76-1.82,1.14c-1.7,1.07-3.11,2.44-4.34,4.01
			c-0.16,0.21-0.19,0.53-0.26,0.81c-0.09,0.38-0.07,0.84-0.27,1.14c-0.99,1.5-2.09,2.93-3.05,4.45c-0.83,1.32-1.77,2.59-2.09,4.2
			c-0.23,1.13,0.24,2.11,0.94,2.7c0.65,0.56,1.73,0.79,2.63,0.82c0.78,0.03,1.62-0.36,2.37-0.7c2.05-0.93,3.6-2.45,4.9-4.26
			c1.35-1.88,2.61-3.8,3.61-5.91C104.37,104.47,105.1,102.51,105.16,100.3z"/>
		<path d="M45.32,73.53c0.14-1.68,0.19-3.36,0.45-5.02c0.16-1.03,0.62-2.01,0.99-3c0.05-0.13,0.4-0.24,0.58-0.21
			c0.92,0.16,1.34-0.08,1.6-0.99c0.38-1.33,0.76-2.67,1.14-4c0.04-0.14,0.13-0.27,0.18-0.41c0.5-1.29,0.98-2.58,1.49-3.87
			c0.09-0.24,0.21-0.47,0.38-0.66c0.34-0.4,0.45-0.81,0.17-1.27c-0.35-0.58-1.04-0.93-1.54-0.76c-0.31,0.11-0.61,0.28-0.89,0.45
			c-0.54,0.32-0.88,0.21-1.37-0.48c-0.32-0.46-0.24-0.75,0.15-1.15c0.88-0.92,1.85-1.71,2.92-2.38c0.36-0.22,0.72-0.44,1.1-0.63
			c0.86-0.45,1.74-0.87,2.6-1.32c0.72-0.38,1.43-0.76,2.24-0.9c0.87-0.15,1.74-0.4,2.61-0.49c0.45-0.04,0.94,0.15,1.39,0.3
			c0.32,0.11,0.36,0.38,0.21,0.69c-0.36,0.75-0.69,1.51-1.05,2.25c-0.13,0.27-0.3,0.51-0.46,0.76c-0.4,0.64-0.8,1.28-1.18,1.93
			c-0.05,0.08,0.03,0.23,0.05,0.34c0.14-0.04,0.31-0.06,0.43-0.14c1.34-0.86,2.05-2.33,3.27-3.32c1-0.82,1.99-1.65,3.21-2.14
			c0.22-0.09,0.43-0.21,0.64-0.34c1.63-0.97,3.39-1.44,5.28-1.38c0.38,0.01,0.81,0.15,1.13,0.36c0.47,0.31,0.71,0.75,0.28,1.31
			c-0.09,0.11-0.12,0.28-0.13,0.42c-0.13,1.99-1.01,3.76-1.78,5.53c-0.77,1.75-1.73,3.42-2.73,5.06c-1.24,2.05-2.82,3.82-4.87,5.11
			c-0.29,0.18-0.63,0.31-0.96,0.42c-0.47,0.15-0.82-0.01-1.08-0.44c-0.2-0.33-0.47-0.61-0.68-0.93c-0.07-0.12-0.07-0.3-0.06-0.45
			c0.01-0.08,0.13-0.15,0.14-0.23c0.13-1.46,1.23-2.37,2-3.46c0.61-0.86,1.3-1.66,1.87-2.55c0.58-0.92,1.05-1.9,1.58-2.86
			c0.13-0.24,0.24-0.51,0.42-0.71c0.25-0.28,0.42-0.59,0.15-0.88c-0.29-0.31-0.66-0.17-0.95,0.07c-0.71,0.57-1.45,1.1-2.1,1.73
			c-1.09,1.05-2.09,2.2-3.17,3.25c-0.86,0.84-1.71,1.69-2.34,2.73c-0.28,0.46-0.56,0.91-0.83,1.38c-0.97,1.66-1.94,3.32-2.9,4.99
			c-0.3,0.51-0.56,1.04-0.85,1.56c-1.08,1.92-1,4.12-1.56,6.17c-0.22,0.8-0.42,1.61-0.66,2.41c-0.23,0.76-0.16,1.51,0.11,2.23
			c0.45,1.2,0.24,1.77-0.81,2.5c-1.22,0.85-2.44,1.05-3.81,0.32c-0.88-0.47-1.13-1.3-1.41-2.1c-0.55-1.55-0.47-3.18-0.44-4.8
			C45.42,73.53,45.37,73.53,45.32,73.53z"/>
		<path d="M117.78,120.23c0.08,0.68,0.16,1.35,0.25,2.03c0.08,0.58-0.18,1.09-0.8,1.39c-1.07,0.52-2.13,0.89-3.37,0.48
			c-0.71-0.23-1.18-0.58-1.54-1.23c-0.95-1.72-0.96-3.59-0.96-5.46c0-1.48-0.1-3,0.16-4.44c0.25-1.42,0.85-2.78,1.36-4.14
			c0.14-0.38,0.53-0.39,0.9-0.18c0.71,0.39,0.82,0.28,1.03-0.49c0.4-1.48,0.84-2.95,1.37-4.39c0.7-1.91,1.51-3.77,2.24-5.67
			c0.08-0.2-0.03-0.55-0.16-0.75c-0.23-0.34-0.62-0.56-1.02-0.37c-0.61,0.3-1.38,0.08-1.89,0.68c-0.19,0.22-0.43,0.07-0.54-0.22
			c-0.49-1.27-0.34-1.85,0.76-2.69c1.42-1.09,2.93-2.02,4.53-2.8c1.02-0.49,2-1.07,3.06-1.46c0.75-0.27,1.59-0.3,2.39-0.38
			c0.51-0.05,1.04,0,1.56,0.01c0.57,0.02,0.86,0.37,0.63,0.88c-0.38,0.84-0.82,1.66-1.27,2.47c-0.37,0.66-0.82,1.28-1.17,1.96
			c-0.1,0.19,0,0.49,0.01,0.74c0.23-0.11,0.5-0.18,0.69-0.33c0.28-0.23,0.51-0.53,0.76-0.79c0.13-0.13,0.3-0.24,0.38-0.4
			c0.7-1.4,1.89-2.29,3.19-3.06c0.92-0.55,1.83-1.14,2.79-1.61c1.65-0.82,3.41-1.13,5.24-0.92c0.96,0.11,1.17,0.36,1.02,1.3
			c-0.32,2.07-1.01,4.01-1.98,5.86c-0.75,1.44-1.43,2.93-2.19,4.37c-0.94,1.76-2.03,3.42-3.57,4.72c-0.82,0.69-1.72,1.29-2.63,1.86
			c-0.24,0.15-0.69,0.08-0.99-0.03c-0.12-0.05-0.1-0.46-0.17-0.71c-0.08-0.29-0.17-0.57-0.26-0.85c-0.08-0.26-0.23-0.52-0.24-0.79
			c-0.04-1.2,0.58-2.05,1.5-2.73c0.1-0.08,0.2-0.17,0.27-0.28c0.76-1.15,1.53-2.3,2.28-3.46c0.44-0.68,0.86-1.38,1.29-2.07
			c0.08-0.13,0.22-0.26,0.21-0.38c-0.02-0.35,0.01-0.79-0.18-1.03c-0.26-0.32-0.69-0.1-0.93,0.15c-0.93,0.98-2.14,1.62-3,2.7
			c-0.77,0.96-1.76,1.75-2.57,2.68c-0.67,0.76-1.24,1.6-1.82,2.43c-0.74,1.06-1.48,2.12-2.13,3.23c-0.74,1.26-1.38,2.58-2.07,3.87
			c-0.74,1.39-1.09,2.88-1.3,4.44c-0.12,0.9-0.33,1.79-0.59,2.66C118.04,118.05,117.74,119.1,117.78,120.23z"/>
		<path d="M154.47,49.02c0.56-0.58,1.08-1.21,1.69-1.73c1.21-1.03,2.43-2.05,3.73-2.96c1.59-1.12,3.3-2.06,5.21-2.57
			c0.66-0.17,1.32-0.35,1.97-0.53c1-0.27,1.95,0.1,2.9,0.28c0.17,0.03,0.39,0.27,0.42,0.45c0.03,0.17-0.12,0.41-0.27,0.55
			c-0.59,0.56-1.23,1.07-1.82,1.62c-0.77,0.72-1.56,1.43-2.27,2.21c-1.59,1.74-2.97,3.64-4.16,5.68c-0.32,0.56-0.73,1.07-1.04,1.63
			c-0.21,0.38-0.35,0.81-0.49,1.23c-0.23,0.66-0.45,1.33-0.67,2c-0.02,0.07-0.08,0.13-0.09,0.2c-0.29,1.69-0.81,3.35-0.64,5.09
			c0.07,0.69,0.28,0.83,0.99,0.77c0.32-0.03,0.87-0.01,0.94,0.15c0.13,0.31,0.03,0.74-0.04,1.11c-0.07,0.32-0.27,0.61-0.34,0.93
			c-0.36,1.57-1.16,2.9-2.21,4.1c-1.63,1.85-3.71,2.17-5.93,1.55c-0.81-0.23-1.49-0.99-2.18-1.56c-0.19-0.16-0.25-0.52-0.31-0.81
			c-0.22-0.99-0.38-1.99-0.64-2.97c-0.12-0.46-0.05-0.73,0.19-1.15c0.41-0.72,0.62-1.56,0.88-2.37c0.3-0.95,0.65-1.89,0.82-2.87
			c0.29-1.64,1.38-2.89,1.98-4.38c0.36-0.88,0.79-1.83,1.74-2.38c0.4-0.24,0.66-0.73,0.97-1.12c0.25-0.32,0.5-0.65,0.73-0.98
			c0.13-0.18,0.31-0.37,0.32-0.57c0.02-0.53,0.32-0.83,0.69-1.14c0.31-0.26,0.56-0.59,0.81-0.91c0.07-0.09,0.15-0.28,0.11-0.33
			c-0.08-0.09-0.24-0.17-0.37-0.16c-0.21,0.01-0.46,0.05-0.63,0.16c-0.73,0.5-1.42,1.04-2.14,1.55c-0.22,0.16-0.49,0.27-0.73,0.4
			C154.55,49.14,154.51,49.08,154.47,49.02z"/>
		<path d="M158.05,35.93c0.01-1.23,0.28-1.6,1.47-1.83c0.75-0.15,1.22-0.58,1.67-1.17c0.56-0.73,1.25-1.35,1.92-1.99
			c0.13-0.12,0.38-0.11,0.57-0.18c0.69-0.23,1.44-0.37,2.06-0.73c1.24-0.71,2.46-1.42,3.89-1.7c1.53-0.29,3.47,1.05,3.43,2.53
			c-0.03,1.29-0.51,2.45-1.61,3.26c-1.38,1.02-2.7,2.14-4.13,3.1c-1.13,0.75-2.3,1.48-3.74,1.58c-0.46,0.03-0.92,0.27-1.35,0.48
			c-1.43,0.71-2.86,0.24-3.5-1.21c-0.3-0.68-0.55-1.39-0.82-2.09C157.95,35.97,158,35.95,158.05,35.93z"/>
		<path d="M145.49,19.85c-0.03,0.49-0.3,0.84-0.78,0.95c-0.51,0.11-0.92,0.33-1.27,0.73c-0.2,0.23-0.48,0.41-0.76,0.56
			c-0.4,0.22-0.75,0.08-1.04-0.24c-0.29-0.32-0.09-0.58,0.11-0.83c0.49-0.63,0.96-1.27,1.46-1.89c0.34-0.42,0.88-0.49,1.48-0.26
			C145.13,19.03,145.44,19.33,145.49,19.85z"/>
		<path d="M122,148.12c0.29,0.05,0.49,0.09,0.69,0.13c0.41,0.08,0.81,0.27,0.78,0.71c-0.02,0.25-0.31,0.53-0.55,0.72
			c-0.67,0.54-1.56,0.74-2.11,1.49c-0.13,0.18-0.63,0.22-0.89,0.13c-0.14-0.04-0.29-0.58-0.19-0.75c0.42-0.75,0.89-1.47,1.42-2.14
			C121.32,148.2,121.75,148.2,122,148.12z"/>
		<path d="M164.17,75.46c-0.01,0.59-0.59,0.96-0.96,0.59c-0.61-0.6-1.16-1.28-1.59-2.02c-0.25-0.42,0.13-0.87,0.48-1.2
			c0.31-0.29,0.68-0.32,1.02-0.11c0.18,0.11,0.4,0.35,0.41,0.53c0.01,0.71,0.22,1.34,0.58,1.94
			C164.15,75.29,164.15,75.41,164.17,75.46z"/>
		<path d="M77,115.83c0.25-0.32,0.53-0.73,0.87-1.06c0.09-0.08,0.46,0.02,0.61,0.15c0.16,0.15,0.21,0.42,0.3,0.64
			c0.22,0.58,0.42,1.16,0.65,1.74c0.15,0.38,0.3,0.79-0.05,1.07c-0.36,0.29-0.74,0.09-1.05-0.18C77.66,117.6,77.25,116.85,77,115.83
			z"/>
		<path d="M31.47,43.99c0.02-1.03,0.38-1.83,1.31-2.33c0.38-0.2,0.71-0.2,1.01,0.1c0.29,0.29,0.41,0.66,0.14,1
			c-0.56,0.7-1.15,1.38-1.75,2.05c-0.22,0.24-0.45,0.16-0.56-0.12C31.54,44.47,31.52,44.22,31.47,43.99z"/>
		<path d="M43.07,83.68c0.08-0.87,0.61-1.49,1.21-1.42c0.23,0.03,0.53,0.25,0.64,0.46c0.15,0.3-0.1,0.47-0.38,0.61
			c-0.31,0.15-0.56,0.41-0.86,0.58c-0.12,0.07-0.33,0.1-0.45,0.05C43.13,83.92,43.09,83.72,43.07,83.68z"/>
	</g>
</g>
</svg>
