<?xml version="1.0" encoding="utf-8"?>
<!-- Generator: Adobe Illustrator 24.0.2, SVG Export Plug-In . SVG Version: 6.00 Build 0)  -->
<svg version="1.1" id="Capa_1" xmlns="http://www.w3.org/2000/svg" xmlns:xlink="http://www.w3.org/1999/xlink" x="0px" y="0px"
	 viewBox="0 0 206 169" style="enable-background:new 0 0 206 169;" xml:space="preserve">
<style type="text/css">
	.st0{fill:#FFFFFF;}
</style>
<g>
	<g>
		<path class="st0" d="M183.5,91.71c-0.89-0.09-1.79-0.15-2.68-0.11c-0.4,0.02-0.85,0.26-1.17,0.54c-0.61,0.53-1.17,1.13-1.69,1.76
			c-0.22,0.27-0.34,0.66-0.43,1.01c-0.17,0.68-0.17,1.43-0.46,2.04c-1.06,2.21-2.2,4.39-3.33,6.57c-0.7,1.35-1.44,2.67-2.15,4.01
			c-0.63,1.18-1.2,2.39-1.86,3.55c-2.13,3.69-4.17,7.44-6.92,10.74c-1.02,1.22-2.29,1.99-3.82,2.33c-0.28,0.06-0.62,0.02-0.89-0.08
			c-0.56-0.23-1.1-0.53-1.64-0.81c-0.61-0.32-0.89-0.84-0.96-1.52c-0.2-2.14-0.05-4.21,0.65-6.29c1-2.93,2.17-5.79,3.65-8.49
			c1.5-2.74,3.15-5.39,4.81-8.04c1.18-1.89,2.46-3.72,3.73-5.56c0.56-0.81,0.99-1.62,0.74-2.65c-0.06-0.24,0.01-0.53,0.06-0.78
			c0.18-0.95-0.04-1.24-1.01-1.07c-1.03,0.18-2.04,0.51-3.07,0.75c-1.29,0.3-2.41,0.97-3.48,1.7c-0.81,0.55-1.37,0.6-2.19,0.07
			c-0.41-0.27-0.69-0.2-0.96,0.2c-0.69,1.01-0.85,2.18-1,3.35c-0.06,0.49-0.17,0.89-0.53,1.24c-0.61,0.6-1.15,1.23-1.24,2.17
			c-0.05,0.54-0.63,0.66-1.01,0.25c-0.17-0.17-0.25-0.43-0.43-0.59c-0.3-0.28-0.61-0.6-0.98-0.77c-0.65-0.29-1.05-0.02-1.18,0.67
			c-0.05,0.26-0.11,0.52-0.21,0.75c-0.46,0.98-0.95,1.95-1.41,2.94c-0.08,0.18-0.1,0.39-0.14,0.59c-0.37,1.83-0.66,3.68-1.12,5.49
			c-0.42,1.65-0.72,3.28-0.64,4.99c0.02,0.37-0.09,0.76-0.19,1.13c-0.24,0.9-0.55,1.78-0.75,2.69c-0.44,2.02-0.66,4.06-0.2,6.1
			c0.24,1.04,0.61,2.06,0.98,3.06c0.17,0.46,0.46,0.89,0.76,1.29c0.71,0.93,1.79,1.37,2.76,1.96c1.7,1.04,3.46,1,5.27,0.4
			c0.39-0.13,0.79-0.34,1.1,0.09c0.31,0.42,0.22,0.87-0.03,1.32c-0.19,0.35-0.35,0.72-0.52,1.09c-0.18,0.39-0.31,0.8-0.52,1.16
			c-1.16,1.98-2.36,3.93-3.5,5.91c-0.4,0.7-0.7,1.46-0.99,2.22c-0.29,0.73-0.49,1.49-0.78,2.22c-0.12,0.3-0.32,0.67-0.58,0.78
			c-1.84,0.79-3.25,2.04-4.26,3.76c-0.49,0.83-1.38,0.83-1.89,0.01c-0.24-0.39-0.54-0.5-0.91-0.24c-0.56,0.39-1.17,0.75-1.62,1.25
			c-1.62,1.82-3.74,3.21-4.82,5.5c-0.1,0.21-0.32,0.36-0.48,0.55c-0.5,0.59-1.04,1.14-1.49,1.77c-0.83,1.15-1.58,2.37-2.42,3.51
			c-0.34,0.46-0.84,0.81-1.29,1.18c-0.69,0.56-1.46,1.03-2.08,1.66c-1.74,1.76-3.82,2.79-6.27,3.07c-0.39,0.04-0.73,0.12-0.85,0.55
			c-0.12,0.45,0.09,0.77,0.46,0.96c0.76,0.39,1.52,0.77,2.3,1.09c0.31,0.13,0.54,0.28,0.63,0.51c0.05,0.01,0.11,0.02,0.16,0.03
			c0.39,0.04,0.77,0.08,1.16,0.11c0.51-0.02,1.01-0.07,1.52-0.1c0.14-0.04,0.27-0.09,0.41-0.13c0.09-0.25,0.3-0.33,0.79-0.42
			c0.24-0.04,0.49-0.08,0.71-0.17c2.04-0.8,3.99-1.78,5.83-2.96c1.47-0.95,2.82-2.07,4.31-2.98c2.45-1.51,4.43-3.54,6.52-5.47
			c0.97-0.89,1.95-1.76,2.97-2.59c0.64-0.52,1.42-0.89,2.03-1.44c0.87-0.78,1.68-1.64,2.47-2.52c0.67-0.75,1.14-1.75,1.93-2.31
			c1.22-0.87,1.88-2.12,2.72-3.24c1.36-1.82,2.61-3.72,3.97-5.53c0.8-1.06,1.49-2.16,1.95-3.42c0.41-1.13,0.92-2.23,1.41-3.34
			c0.92-2.1,1.85-4.2,2.79-6.29c0.82-1.83,1.64-3.66,2.5-5.47c0.7-1.46,1.49-2.88,2.19-4.35c0.62-1.3,1.17-2.63,1.75-3.95
			c0.28-0.63,0.56-1.26,0.88-1.88c0.23-0.44,0.42-0.96,0.78-1.26c0.72-0.62,1.21-1.35,1.53-2.22c0.12-0.34,0.31-0.66,0.47-0.99
			c0.29-0.63,0.76-1.24,0.82-1.89c0.12-1.27,0.83-2.18,1.5-3.14c0.73-1.06,1.11-2.23,1.28-3.49c0.1-0.76,0.15-1.57,0.48-2.23
			c0.39-0.76,0.53-1.52,0.57-2.33C184.83,92.37,184.37,91.8,183.5,91.71z"/>
		<path class="st0" d="M206.14,46.21c0-0.02,0-0.05,0-0.07c-0.01-0.12-0.03-0.25-0.03-0.37c0-0.05,0-0.1,0-0.15
			c-0.01-0.03-0.02-0.06-0.03-0.08c-0.03-0.11-0.05-0.21-0.06-0.32c-0.1-0.14-0.17-0.31-0.21-0.48c-0.3-1.19-1.2-1.71-2.21-2.17
			c-0.59-0.26-1.15-0.6-1.72-0.9c-0.74-0.38-1.47-0.93-2.33-0.74c-1.1,0.24-2.17,0.65-3.26,0.97c-0.38,0.11-0.77,0.28-1.15,0.28
			c-1.36,0-2.72-0.09-4.08-0.11c-1.13-0.02-2.11,0.34-2.87,1.23c-0.8,0.94-1.63,1.86-2.45,2.79c-1.05,1.19-2.11,2.36-3.15,3.55
			c-0.45,0.52-0.32,0.95,0.32,1.23c0.17,0.08,0.39,0.19,0.44,0.34c0.21,0.6-0.3,2.3-0.85,2.61c-0.79,0.44-1.27,1.03-1.41,1.92
			c-0.02,0.14-0.12,0.26-0.17,0.39c-0.41,1-0.95,1.96-1.19,2.99c-0.44,1.87-1.12,3.68-1.27,5.63c-0.14,1.84-0.05,3.61,0.85,5.21
			c0.61,1.08,1.39,2.09,2.79,2.35c0.44,0.08,0.88,0.46,1.22,0.81c0.42,0.44,0.84,0.91,1.46,0.89c1.27-0.03,2.56-0.06,3.8-0.29
			c1.59-0.3,3.17-0.74,4.59-1.57c0.17-0.1,0.38-0.13,0.58-0.18c0.79-0.2,1.32-0.71,1.66-1.42c0.18-0.38,0.26-0.81,0.37-1.22
			c0.18-0.64,0.43-0.74,0.99-0.38c0.1,0.07,0.19,0.16,0.29,0.22c0.62,0.39,1.09,0.19,1.27-0.53c0.11-0.45,0.17-0.95,0.41-1.33
			c0.51-0.84,0.58-1.77,0.74-2.68c0.1-0.58-0.18-0.97-0.72-1.1c-0.76-0.19-1.55-0.41-2.17,0.39c-0.18,0.23-0.46,0.4-0.73,0.55
			c-1.74,0.99-3.47,2.03-5.25,2.94c-0.93,0.47-1.95,0.8-2.97,1.01c-0.46,0.09-1.12-0.14-1.52-0.44c-1.13-0.85-1.68-3.18-1.19-4.52
			c0.38-1.03,0.76-2.06,1.16-3.08c0.24-0.6,0.45-1.23,0.79-1.77c0.89-1.45,1.79-2.91,2.8-4.28c1.02-1.38,2.11-2.73,3.3-3.97
			c1.79-1.88,3.96-3.27,6.31-4.38c0.67-0.31,1.34-0.49,1.94,0.04c0.58,0.52,0.4,1.22,0.17,1.82c-0.61,1.55-1.73,2.74-3.05,3.69
			c-0.54,0.38-0.93,0.79-1.25,1.35c-0.27,0.48-0.67,0.89-1.02,1.33c-0.69,0.87-1.3,1.98-0.61,2.99c0.2,0.29,0.31,0.66,0.43,1
			c0.29,0.82,0.88,0.95,1.45,0.31c1.4-1.55,2.78-3.12,4.21-4.64c1.86-1.98,3.65-3.99,4.37-6.71c0.03-0.12,0.08-0.25,0.14-0.36
			C206.03,46.6,206.05,46.39,206.14,46.21z"/>
		<path class="st0" d="M44,46.02c0.43,0,0.86,0.04,1.28-0.01c1.18-0.14,2.21,0.2,3.15,0.88c0.15,0.11,0.33,0.21,0.41,0.36
			c0.54,1.01,1.2,1.96,1.21,3.2c0.02,1.7-0.21,3.32-0.66,4.98c-0.61,2.27-1.66,4.3-2.62,6.41c-1.35,2.98-3.29,5.6-4.98,8.37
			c-1.19,1.96-2.46,3.87-3.75,5.76c-0.49,0.72-1.12,1.34-1.71,1.98c-2.58,2.81-5.18,5.61-7.77,8.42c-0.17,0.18-0.3,0.4-0.49,0.54
			c-0.18,0.12-0.47,0.27-0.64,0.2c-0.51-0.19-0.87,0.01-1.3,0.26c-1.45,0.81-2.9,1.64-4.41,2.34c-1.89,0.87-3.81,1.73-5.78,2.4
			c-1.57,0.53-3.22,0.86-4.86,1.11c-0.7,0.1-1.46-0.2-2.19-0.37c-0.41-0.1-0.79-0.38-1.2-0.42c-1.14-0.11-2.03-0.74-2.86-1.39
			c-0.92-0.73-1.56-1.71-1.99-2.84c-0.47-1.22-0.92-2.42-1.06-3.73C1.73,84,1.41,83.93,1.01,84.08c-0.74,0.27-0.98,0.07-0.96-0.72
			c0.08-3.21,0.05-6.42,0.25-9.62c0.13-2.2,0.54-4.39,0.89-6.57c0.07-0.41,0.39-0.8,0.66-1.15c0.59-0.75,0.89-1.56,0.86-2.53
			c-0.04-1.25,0.3-2.42,1.18-3.35c0.19-0.2,0.55-0.34,0.84-0.35c0.49-0.02,0.76-0.22,0.89-0.66c0.3-1.01,0.6-2.02,0.93-3.03
			c0.08-0.26,0.23-0.52,0.39-0.73c0.21-0.27,0.48-0.5,0.71-0.75c0.18-0.19,0.47-0.39,0.49-0.61c0.15-1.41,1.58-2.22,1.7-3.63
			c0.02-0.2,0.08-0.4,0.09-0.6c0.04-0.72-0.08-0.88-0.8-0.86c-0.57,0.02-0.76-0.26-0.77-0.77c-0.01-0.65,0.11-1.22,0.47-1.79
			c0.51-0.8,0.89-1.68,1.39-2.49c0.21-0.35,0.56-0.62,0.88-0.89c0.72-0.62,1.45-1.22,2.17-1.84c0.12-0.1,0.26-0.22,0.32-0.36
			c0.73-1.66,2.14-2.78,3.32-4.07c0.91-1.01,1.92-1.94,2.96-2.81c0.5-0.42,1.15-0.67,1.77-0.91c0.21-0.08,0.54,0.08,0.78,0.21
			c0.66,0.34,1.02,0.23,1.56-0.28c1.15-1.09,2.31-2.16,3.54-3.16c1.76-1.44,3.55-2.84,5.38-4.18c0.81-0.59,1.75-1.02,2.67-1.44
			c1.4-0.63,2.86-1.13,4.25-1.78c1.59-0.75,3.11-1.63,4.7-2.39c1.08-0.52,2.19-0.95,3.31-1.36c0.27-0.1,0.64,0.01,0.94,0.11
			c0.71,0.23,1.34,0.25,1.91-0.34c0.17-0.18,0.45-0.26,0.69-0.36c0.46-0.21,0.95-0.36,1.39-0.61c0.47-0.26,0.76-0.18,0.98,0.29
			c0.15,0.33,0.3,0.67,0.45,1c0.34,0.76,0.62,1.55,1.54,1.85c0.17,0.06,0.34,0.42,0.35,0.64c0.03,0.57,0.26,0.95,0.74,1.24
			c0.53,0.32,0.66,0.76,0.33,1.3c-1.61,2.6-3.17,5.25-4.91,7.77c-2.45,3.54-5.54,6.53-8.63,9.5c-1.41,1.35-3.09,2.13-5.11,2.04
			c-0.61-0.03-1.22,0.07-1.83,0.04c-0.25-0.01-0.49-0.2-0.74-0.31c0.15-0.21,0.26-0.48,0.46-0.62c0.38-0.27,0.79-0.51,1.22-0.67
			c0.53-0.21,0.9-0.57,0.95-1.09c0.15-1.62,1.24-2.75,2.04-4.02c0.84-1.34,1.72-2.65,2.61-3.96c0.39-0.57,0.87-1.07,1.25-1.65
			c0.26-0.4,0.49-0.85,0.6-1.31c0.13-0.56-0.17-0.84-0.75-0.81c-0.16,0.01-0.33,0.04-0.47,0.1c-1.33,0.59-2.7,1.11-3.97,1.82
			c-1.17,0.65-2.22,1.49-3.32,2.26c-1.45,1.01-2.95,1.95-4.32,3.06c-1.08,0.88-2.02,1.94-2.97,2.96c-0.44,0.47-0.78,1.03-1.14,1.56
			c-1.08,1.57-2.15,3.15-3.21,4.73c-0.28,0.42-0.5,0.88-0.79,1.3c-0.83,1.19-1.67,2.37-2.55,3.52c-0.11,0.14-0.57,0.2-0.72,0.09
			c-0.51-0.38-0.66-0.15-0.89,0.3c-0.77,1.54-1.62,3.05-2.39,4.59c-1.05,2.08-2.15,4.15-3.05,6.29c-0.93,2.21-1.72,4.49-2.45,6.77
			c-0.43,1.34-0.69,2.75-0.94,4.15c-0.3,1.74-0.52,3.5-0.75,5.25c-0.14,1.09-0.16,2.17,0.16,3.26c0.22,0.77,0.23,1.6,0.39,2.4
			c0.23,1.13,1.16,1.62,2.08,2.05c0.27,0.13,0.72-0.03,1.05-0.14c1.8-0.63,3.4-1.62,4.97-2.69c0.47-0.32,0.91-0.7,1.41-0.96
			c0.43-0.22,0.94-0.3,1.41-0.45c0.41-0.13,0.89-0.18,1.21-0.43c1.2-0.96,2.39-1.96,3.51-3.01c1.51-1.42,3.07-2.8,4.39-4.38
			c1.67-1.98,3.13-4.14,4.68-6.23c0.72-0.96,1.52-1.86,2.14-2.88c1.34-2.16,2.59-4.38,3.2-6.87c0.15-0.62,0.13-1.29,0.08-1.93
			c-0.04-0.55-0.38-0.71-0.85-0.41c-0.42,0.27-0.79,0.18-1.26,0.13c-0.49-0.06-1.07,0.13-1.52,0.39c-1.43,0.81-2.83,1.68-4.2,2.58
			c-0.64,0.42-1.2,0.97-1.8,1.45c-0.79,0.63-1.56,1.29-2.38,1.87c-1.04,0.73-2.12,1.39-2.94,2.4c-1.62,2.03-3.3,4.01-4.88,6.07
			c-0.59,0.76-0.96,1.68-1.45,2.52c-0.22,0.37-0.45,0.73-0.74,1.04c-0.17,0.18-0.49,0.41-0.67,0.36c-0.24-0.07-0.53-0.36-0.58-0.6
			c-0.13-0.63-0.15-1.29-0.18-1.94c-0.05-1.03-0.03-2.07-0.1-3.1c-0.06-0.88-0.03-1.62,0.72-2.3c1.34-1.22,2.03-2.91,2.95-4.44
			c1.27-2.11,2.59-4.21,4.57-5.79c0.79-0.63,1.48-1.39,2.26-2.02c1.29-1.05,2.59-2.1,3.95-3.04c1.39-0.95,2.86-1.77,4.3-2.65
			c2.01-1.22,4.22-1.62,6.53-1.6c0.41,0,0.81,0,1.22,0C44,46,44,46.01,44,46.02z"/>
		<path class="st0" d="M45.38,108.57c0.04,0-0.05,0.01-0.13,0.01c-3-0.24-5.81,0.81-8.7,1.3c-0.4,0.07-0.77,0.24-1.16,0.37
			c-0.43,0.15-0.58,0.44-0.53,0.9c0.02,0.25-0.1,0.51-0.16,0.77c-0.33-0.08-0.77-0.07-0.98-0.28c-0.35-0.35-0.69-0.46-1.14-0.37
			c-0.46,0.09-0.62,0.32-0.41,0.78c0.32,0.71,0.15,1.05-0.63,1.07c-1.64,0.05-3.25,0-4.48-1.39c-0.21-0.24-0.7-0.34-1.05-0.32
			c-1.9,0.12-3.18-0.86-4.24-2.27c-0.44-0.58-0.62-1.25-0.62-2c0-0.89-0.14-1.78-0.11-2.67c0.03-0.91,0.11-0.91,1-0.75
			c0.19,0.03,0.51-0.07,0.63-0.22c0.86-1.1,1.73-2.19,2.1-3.6c0.11-0.42,0.59-0.81,0.99-1.07c0.53-0.35,0.82-0.76,0.83-1.38
			c0.01-0.91,0.53-1.51,1.15-2.12c0.87-0.86,1.85-1.14,3.05-1.23c0.9-0.07,1.76-0.63,2.64-0.99c0.09-0.04,0.19-0.12,0.22-0.2
			c0.5-1.47,1.99-1.66,3.05-2.4c0.66-0.46,1.34-0.9,2.03-1.33c0.59-0.36,1.16-0.82,1.81-0.99c1.11-0.3,2.05-0.89,3-1.45
			c1.11-0.65,2.29-0.79,3.53-0.67c0.95,0.09,1.06,0.03,1.42-0.84c0.27-0.66,0.46-0.77,1.12-0.5c0.56,0.23,1.01,0.11,1.55-0.14
			c0.97-0.44,2.01-0.76,3.04-1.06c1.03-0.3,2.08-0.6,3.14-0.74c1.67-0.21,3.35-0.33,5.03-0.38c0.71-0.02,1.12,0.57,1.39,1.21
			c0.24,0.57,0.17,1.07-0.21,1.59c-0.58,0.78-1.07,1.62-1.61,2.43c-1.45,2.19-3.1,4.18-5.51,5.38c-0.54,0.27-1.14,0.43-1.73,0.57
			c-0.59,0.14-1.37-0.75-1.49-1.58c-0.11-0.85,0.41-1.41,0.86-2.01c0.1-0.13,0.29-0.2,0.35-0.34c0.14-0.31,0.22-0.65,0.33-0.98
			c-0.3-0.04-0.64-0.2-0.88-0.11c-2.12,0.81-4.24,1.62-6.33,2.51c-1.43,0.62-2.81,1.37-4.2,2.08c-0.65,0.33-1.3,0.67-1.91,1.06
			c-0.17,0.11-0.29,0.45-0.26,0.66c0.08,0.51-0.1,0.82-0.53,1.04c-0.65,0.33-1.32,0.62-1.94,0.99c-0.91,0.53-1.84,1.04-2.66,1.69
			c-1.32,1.04-2.57,2.17-3.83,3.29c-0.57,0.51-1.09,1.09-1.63,1.63c-0.38,0.38-0.57,0.83-0.3,1.32c0.28,0.51,0.8,0.53,1.29,0.4
			c2.99-0.82,5.98-1.66,8.97-2.49c0.14-0.04,0.28-0.1,0.41-0.1c2.27-0.01,4.38-0.83,6.56-1.27c1.39-0.29,2.79-0.29,4.18,0
			c1.75,0.36,3.55,0.59,5.22,1.17c2.18,0.75,4.2,1.85,5.15,4.19c0.3,0.75,0.67,1.47,0.98,2.21c0.88,2.08,1.2,4.25,0.6,6.43
			c-0.31,1.13-0.89,2.22-1.53,3.2c-0.56,0.87-1.09,1.67-1.4,2.71c-0.56,1.87-1.57,3.53-2.88,5.03c-1.77,2.03-3.72,3.85-5.74,5.63
			c-0.82,0.72-1.43,1.67-2.22,2.42c-0.61,0.58-1.33,1.04-2.02,1.53c-0.35,0.24-0.78,0.38-1.09,0.65c-1.07,0.93-2.27,1.62-3.58,2.14
			c-0.04,0.01-0.07,0.04-0.11,0.06c-1.67,1.15-3.35,2.28-5.01,3.44c-0.45,0.31-0.43,0.54,0.02,0.89c0.82,0.63,0.85,0.99,0.01,1.58
			c-2.14,1.52-4.39,2.85-6.89,3.67c-0.63,0.2-1.37,0.04-2.05,0.13c-0.69,0.08-1.4,0.18-2.06,0.41c-1.23,0.42-2.42,0.94-3.63,1.39
			c-0.28,0.1-0.6,0.12-0.9,0.15c-1.39,0.14-2.78,0.29-4.18,0.39c-0.58,0.04-1.17,0.01-1.75-0.07c-0.68-0.09-1.41-0.15-2.01-0.43
			c-0.83-0.38-1.61-0.91-2.34-1.47c-0.52-0.4-0.99-0.92-1.37-1.46c-0.43-0.62-0.68-1.36-1.08-2c-1.48-2.34-1.76-4.95-1.34-7.57
			c0.39-2.36,1.42-4.54,2.99-6.4c0.87-1.04,1.84-2,2.8-2.95c0.6-0.59,0.95-0.58,1.57,0.01c0.41,0.39,0.79,0.82,1.11,1.29
			c0.46,0.68,0.37,1.41,0.07,2.15c-0.71,1.77-1.56,3.48-1.84,5.4c-0.19,1.29,0.21,2.38,1.25,3c0.59,0.35,1.19,0.41,1.85,0.1
			c2.5-1.16,5.02-2.27,7.52-3.43c0.87-0.4,1.69-0.89,2.54-1.32c1.43-0.72,2.89-1.39,4.3-2.15c1.91-1.03,3.81-2.09,5.68-3.21
			c0.76-0.45,1.4-1.1,2.12-1.62c0.76-0.54,1.56-1.02,2.32-1.57c1.43-1.03,2.89-2.03,4.24-3.16c1.8-1.5,3.57-3.07,5.26-4.7
			c1.41-1.36,2.37-2.98,2.71-4.99c0.22-1.27-0.25-2.04-1.2-2.73c-0.77-0.56-1.44-1.24-2.2-1.81
			C49.75,108.38,47.62,108.45,45.38,108.57z"/>
		<path class="st0" d="M131.46,78.91c-0.12-1.45-0.24-2.91-0.35-4.36c-0.02-0.24-0.03-0.49,0-0.73c0.14-1.35,0.27-2.7,0.47-4.05
			c0.05-0.34,0.27-0.77,0.55-0.94c0.67-0.4,1.06-0.95,1.25-1.65c0.4-1.49,0.77-2.99,1.15-4.48c0.14-0.53,0.32-1.06,0.4-1.6
			c0.07-0.47,0.09-0.97,0-1.44c-0.26-1.47,0.22-2.71,1.04-3.88c0.27-0.39,0.51-0.81,0.73-1.23c0.38-0.73,0.79-1.46,1.09-2.23
			c0.33-0.84,0.58-1.72,0.84-2.59c0.38-1.26,0.74-2.53,1.12-3.78c0.15-0.5,0.34-1,0.55-1.48c0.48-1.13,0.99-2.25,1.49-3.38
			c0.08-0.19,0.21-0.36,0.26-0.55c0.35-1.23,0.65-2.47,1.02-3.69c0.42-1.38,0.9-2.73,1.35-4.1c0.49-1.46,0.97-2.93,1.45-4.39
			c0.33-1,0.61-2.02,0.98-3c0.37-0.98,0.83-1.93,1.25-2.9c0.46-1.06,0.93-2.11,1.41-3.16c0.14-0.31,0.34-0.6,0.55-0.87
			c0.35-0.43,0.76-0.46,1.23-0.13c0.59,0.42,1.26,0.76,1.79,1.24c0.31,0.28,0.49,0.76,0.63,1.18c0.15,0.44,0.1,0.97,0.32,1.35
			c0.2,0.34,0.62,0.62,1,0.76c0.43,0.16,0.52-0.32,0.72-0.59c1.63-2.27,3.12-4.62,4.87-6.82c1.43-1.8,3.25-3.1,4.77-4.75
			c0.33-0.36,0.68-0.27,0.99,0.09c0.66,0.76,0.59,0.69,1.34-0.01c0.75-0.7,1.65-1.24,2.48-1.86c0.57-0.43,1.16-0.83,1.68-1.31
			c0.46-0.42,0.89-0.8,1.56-0.86c0.17-0.02,0.44-0.37,0.45-0.58c0.01-0.6,0.28-1.01,0.75-1.31c0.94-0.61,1.71-1.5,2.92-1.66
			c0.23-0.03,0.45-0.26,0.63-0.44c0.61-0.62,1.18-1.28,1.8-1.9c0.52-0.52,0.74-0.48,1.14,0.11c0.51,0.74,1.15,1.24,2.11,1.22
			c1.53-0.04,2.83,0.64,4.08,1.42c0.17,0.1,0.32,0.26,0.44,0.42c0.25,0.34,0.19,0.62-0.23,0.74c-2.98,0.9-5.63,2.49-8.29,4.01
			c-1.84,1.06-3.61,2.29-5.27,3.61c-2.19,1.74-4.32,3.58-6.36,5.49c-2.02,1.9-3.95,3.92-5.84,5.96c-1.9,2.05-3.75,4.16-5.52,6.32
			c-0.83,1.01-1.46,2.2-2.13,3.33c-1.02,1.72-2.01,3.47-3,5.21c-0.35,0.62-0.07,1.04,0.64,1c0.16-0.01,0.33-0.02,0.48-0.08
			c1.08-0.46,2.12-1.14,3.24-1.33c1.53-0.26,3.13-0.15,4.7-0.2c1.17,0.79,2.25,1.58,2.87,3.01c0.82,1.89,0.79,3.79,0.73,5.73
			c-0.04,1.54-0.2,3.08-0.28,4.62c-0.03,0.63-0.26,1.02-0.92,1.17c-0.78,0.18-1.14,0.78-1.37,1.5c-0.37,1.14-0.73,2.27-1.11,3.41
			c-0.07,0.21-0.14,0.45-0.3,0.59c-0.66,0.62-0.77,1.39-0.67,2.24c0.02,0.18,0.01,0.38-0.06,0.54c-0.6,1.34-0.97,2.88-1.89,3.97
			c-1.18,1.41-1.47,3.18-2.42,4.65c-0.26,0.4-0.43,0.67-0.92,0.29c-0.37-0.29-0.73-0.2-0.96,0.23c-0.59,1.11-1.59,1.47-2.76,1.74
			c-1.35,0.31-2.67,0.45-3.93-0.12c-0.69-0.31-1.3-0.87-1.87-1.4c-0.38-0.36-0.07-0.75,0.21-1.06c0.69-0.79,1.44-1.55,2.07-2.39
			c1.13-1.49,2.18-3.03,3.29-4.53c2.42-3.26,4.2-6.86,5.55-10.66c0.61-1.72,0.83-3.59,1.2-5.39c0.09-0.43,0.15-0.89,0.12-1.33
			c-0.02-0.29-0.14-0.72-0.35-0.82c-0.24-0.12-0.71-0.07-0.94,0.09c-1.04,0.73-2.12,1.45-3.04,2.32c-1.91,1.82-3.83,3.63-5.41,5.77
			c-2.42,3.27-4.54,6.72-6.14,10.47c-0.53,1.25-0.99,2.53-1.47,3.8c-0.08,0.21-0.13,0.43-0.18,0.64c-0.52,2-1.04,3.99-1.54,6
			c-0.12,0.49-0.15,1-0.23,1.51c-0.16,1.04-0.34,2.08-0.46,3.12c-0.05,0.39-0.01,0.81,0.1,1.19c0.15,0.52,0.11,0.95-0.26,1.35
			c-1.22,1.31-2.58,2.34-4.5,2.32c-0.79-0.01-1.06-0.23-1.07-1.04c-0.01-0.89,0-1.79,0-2.68C131.35,78.91,131.4,78.91,131.46,78.91z
			"/>
		<path class="st0" d="M114.03,75.82c-1.29-0.19-2.6-0.34-3.89-0.57c-1.55-0.28-1.58-0.28-1.75,1.22c-0.29,2.63-0.35,5.26-0.08,7.89
			c0.03,0.28,0.02,0.57,0,0.85c-0.03,0.55-0.27,0.95-0.8,1.19c-0.55,0.25-1.07,0.58-1.62,0.85c-0.34,0.17-0.7,0.33-1.08,0.41
			c-1.31,0.28-1.67-0.06-1.72-1.38c-0.03-0.72-0.21-1.44-0.32-2.16c-0.23-1.48-0.5-2.96-0.64-4.45c-0.04-0.45,0.18-1.02,0.48-1.37
			c0.49-0.55,0.67-1.13,0.48-1.79c-0.45-1.57,0.15-3.15-0.08-4.72c-0.02-0.13,0.05-0.28,0.1-0.41c0.61-1.76,1.24-3.5,1.83-5.27
			c0.53-1.57,0.99-3.16,1.51-4.74c0.67-2.02,1.27-4.07,2.11-6.02c0.75-1.74,1.77-3.37,2.68-5.04c0.14-0.25,0.36-0.47,0.42-0.74
			c0.06-0.28,0.06-0.67-0.08-0.88c-0.29-0.42-0.19-0.75,0.02-1.13c0.23-0.42,0.41-0.88,0.64-1.3c0.29-0.53,0.58-1.07,0.96-1.53
			c0.12-0.15,0.56-0.17,0.8-0.08c0.96,0.35,1.26,0.19,1.45-0.82c0.27-1.41,0.91-2.54,2.31-3.13c0.33-0.14,0.6-0.41,0.91-0.6
			c0.58-0.37,1.15-0.74,1.75-1.09c0.65-0.37,1.29-0.79,1.98-1.05c1.33-0.49,2.69-0.88,4.03-1.32c0.52-0.17,1.01-0.44,1.54-0.55
			c0.99-0.2,1.88,0.12,2.66,0.75c0.7,0.56,1.43,1.04,2.36,1.19c0.32,0.05,0.63,0.35,0.9,0.58c1.45,1.19,2.04,2.77,2.04,4.62
			c0,1.89,0.07,3.81-0.53,5.62c-0.43,1.27-0.67,2.56-0.93,3.86c-0.19,0.95-0.74,1.83-1.13,2.74c-0.1,0.24-0.21,0.48-0.32,0.72
			c-0.9,1.86-1.76,3.73-2.72,5.56c-0.33,0.64-0.75,1.19-0.93,1.93c-0.12,0.49-0.61,0.94-1.01,1.32c-0.6,0.56-0.95,1.12-0.59,1.98
			c0.21,0.49-0.18,0.83-0.51,1.15c-1.65,1.62-3.29,3.25-4.95,4.86c-0.6,0.57-1.23,1.13-1.93,1.57c-0.53,0.34-1.17,0.58-1.79,0.69
			C117.1,75.47,115.59,75.62,114.03,75.82z M112.02,63.68c0,0.26-0.03,0.53,0.01,0.79c0.31,2.01,1.82,3.01,3.82,2.14
			c0.24-0.1,0.51-0.16,0.74-0.27c1.09-0.57,2.27-1.02,3.24-1.76c1.05-0.8,1.94-1.84,2.84-2.83c0.69-0.77,1.32-1.6,1.88-2.46
			c0.91-1.41,1.82-2.84,2.59-4.33c0.62-1.2,1.03-2.5,1.51-3.76c0.14-0.38,0.2-0.79,0.34-1.17c0.41-1.07,0.36-2.15,0.11-3.24
			c-0.25-1.1-1.44-1.94-2.55-1.87c-0.59,0.04-1.18-0.02-1.76,0.02c-0.31,0.02-0.67,0.05-0.92,0.21c-1.72,1.15-3.37,2.38-4.8,3.9
			c-0.87,0.93-1.64,1.9-2.07,3.12c-0.13,0.38-0.36,0.73-0.59,1.05c-1.19,1.67-2.43,3.3-3.06,5.29
			C112.81,60.21,112.21,61.89,112.02,63.68z"/>
		<path class="st0" d="M66.48,126.06c0.11-1.69,0.17-3.15,0.31-4.6c0.05-0.49,0.24-0.98,0.45-1.43c0.57-1.23,1.17-2.46,1.79-3.66
			c0.29-0.57,0.68-1.1,0.99-1.67c0.21-0.39,0.4-0.79,0.56-1.21c0.37-0.98,0.81-1.83,1.74-2.48c0.64-0.44,1.05-1.26,1.49-1.96
			c1.93-3.08,3.83-6.18,6.3-8.87c1.29-1.41,2.55-2.83,3.85-4.23c0.24-0.26,0.56-0.47,0.86-0.67c0.37-0.25,0.65-0.55,0.46-1.01
			c-0.2-0.46-0.66-0.48-1.05-0.36c-0.38,0.12-0.71,0.38-1.07,0.56c-0.52,0.26-1.05,0.5-1.58,0.74c-0.94,0.42-1.89,0.84-2.84,1.24
			c-0.93,0.38-1.87,0.72-2.8,1.11c-0.35,0.15-0.68,0.35-1,0.56c-0.77,0.51-1.55,1.03-2.29,1.58c-0.89,0.66-1.79,1.32-2.62,2.06
			c-0.81,0.73-1.57,1.38-2.75,1.51c-0.93,0.1-1.81,0.58-2.72,0.84c-1.59,0.46-3.19-0.11-4.16-1.44c-0.44-0.61-0.36-1.06,0.16-1.6
			c0.85-0.89,1.71-1.79,2.48-2.75c0.72-0.9,1.58-1.44,2.74-1.45c0.78-0.01,1.37-0.31,1.85-0.97c1.13-1.52,2.62-2.57,4.4-3.24
			c0.91-0.34,1.74-0.87,2.64-1.26c1.11-0.48,2.24-0.94,3.38-1.36c2.94-1.08,6.05-1.42,9.1-1.93c1.56-0.26,3.19-0.12,4.79-0.16
			c0.99-0.03,1.99-0.07,2.98-0.11c0.83-0.03,1.51,0.24,2.16,0.81c0.42,0.37,1,0.59,1.55,0.75c0.85,0.24,1.09,0.57,0.8,1.41
			c-0.15,0.44-0.37,0.85-0.56,1.28c-0.32,0.71-0.86,0.98-1.64,1.15c-0.93,0.2-1.78,0.73-2.68,1.09c-2.69,1.05-4.67,3.05-6.67,5.01
			c-1.72,1.68-2.83,3.77-3.95,5.88c-0.97,1.83-2.19,3.51-3.21,5.31c-0.62,1.09-1.07,2.27-1.6,3.4c-0.42,0.88-0.86,1.75-1.27,2.63
			c-0.73,1.54-1.51,3.06-2.15,4.64c-0.56,1.4-0.47,2.89-0.11,4.32c0.54,2.18,3.33,3.3,5.24,2.13c0.9-0.55,1.78-1.13,2.62-1.76
			c0.38-0.28,0.61-0.75,0.95-1.1c0.19-0.19,0.47-0.44,0.68-0.41c0.19,0.03,0.38,0.36,0.5,0.6c0.17,0.32,0.33,0.67,0.38,1.02
			c0.06,0.4,0.03,0.83-0.05,1.22c-0.07,0.33-0.3,0.62-0.39,0.95c-0.42,1.46-1.16,2.76-2,4c-0.43,0.63-0.93,1.23-1.45,1.79
			c-0.28,0.3-0.66,0.6-1.05,0.69c-1.21,0.28-2.17,1.01-3.14,1.69c-0.56,0.39-1.09,0.44-1.72,0.29c-1.06-0.26-2.15-0.4-3.2-0.71
			c-0.53-0.16-1.11-0.47-1.46-0.88c-1.02-1.2-1.91-2.51-2.9-3.74C67.28,129.69,66.45,127.93,66.48,126.06z"/>
		<path class="st0" d="M102.78,47.34c0.26,1.67-0.2,3.5-0.48,5.34c-0.13,0.88-0.23,1.77-0.31,2.66c-0.1,1.17-0.19,2.35-0.24,3.52
			c-0.04,1.03-0.03,2.07-0.03,3.11c0,0.56-0.14,1.01-0.72,1.2c-0.59,0.19-0.8,0.6-0.83,1.2c-0.06,1.36-0.09,2.73-0.29,4.07
			c-0.13,0.86-0.53,1.69-0.8,2.53c-0.24,0.75-0.41,1.53-0.71,2.25c-0.14,0.34-0.45,0.7-0.77,0.85c-0.84,0.4-1.71,0.83-2.61,0.99
			c-0.81,0.14-1.7,0.05-2.5-0.15c-0.77-0.2-0.87-0.78-0.36-1.41c0.86-1.07,1.58-2.2,1.95-3.54c0.05-0.17,0.29-0.28,0.38-0.45
			c0.13-0.25,0.27-0.53,0.27-0.8c0-0.14-0.32-0.43-0.42-0.4c-0.23,0.06-0.46,0.26-0.63,0.45c-1.18,1.31-2.35,2.63-3.52,3.95
			c-0.81,0.92-1.83,1.48-2.95,1.96c-1.6,0.69-3.26,0.62-4.91,0.68c-0.93,0.03-1.87-0.08-2.8-0.17c-1.22-0.12-2.34-0.5-3.16-1.48
			c-0.16-0.2-0.29-0.44-0.37-0.69c-0.35-1.04-0.67-2.08-1-3.12c-0.07-0.21-0.17-0.43-0.16-0.65c0.1-1.92-0.16-3.86,0.39-5.75
			c0.23-0.77,0.31-1.59,0.5-2.38c0.11-0.45,0.28-0.88,0.44-1.32c0.1-0.26,0.27-0.5,0.36-0.77c0.37-1.13,0.68-2.29,1.09-3.4
			c0.25-0.68,0.69-1.28,0.98-1.95c0.61-1.39,1.64-2.5,2.43-3.76c1.21-1.93,3.02-3.27,4.55-4.89c0.08-0.09,0.19-0.16,0.26-0.26
			c0.87-1.35,2.27-2.05,3.58-2.82c1.11-0.66,2.32-1.16,3.47-1.77c1.39-0.73,2.88-0.51,4.35-0.55c1.31-0.03,2.43,0.49,3.46,1.19
			c0.47,0.32,0.82,0.83,1.16,1.3c0.66,0.91,1.04,1.91,0.95,3.07C102.73,45.82,102.78,46.48,102.78,47.34z M93.35,46.58
			c-0.61,0.13-1.29,0.13-1.81,0.41c-1.49,0.82-2.94,1.72-4.11,2.99c-0.24,0.26-0.62,0.4-0.84,0.68c-0.46,0.59-0.86,1.22-1.27,1.85
			c-0.13,0.2-0.18,0.44-0.27,0.66c-0.18,0.49-0.28,1.03-0.56,1.45c-0.6,0.89-1.34,1.69-1.92,2.59c-0.58,0.89-1.17,1.82-1.52,2.82
			c-0.52,1.47-0.86,3-1.2,4.52c-0.09,0.41,0.01,0.92,0.18,1.32c0.37,0.86,1.2,0.99,2.02,1.13c1.81,0.3,3.33-0.52,4.84-1.3
			c0.75-0.39,1.49-0.86,2.1-1.44c2.29-2.18,3.97-4.79,5.42-7.58c0.93-1.8,1.6-3.67,2.09-5.62C97.1,48.74,95.65,46.33,93.35,46.58z"
			/>
		<path class="st0" d="M90.69,122.21c0.38-2.48,0.41-4.77,1.21-6.93c0.67-1.8,1.3-3.63,2.1-5.37c0.65-1.41,1.53-2.71,2.3-4.07
			c1.18-2.1,2.73-3.93,4.23-5.8c2.28-2.83,4.95-5.2,8.17-6.89c1.12-0.59,2.36-1.17,3.59-1.29c2.56-0.24,5.17-0.17,7.13,1.91
			c0.82,0.87,1.36,1.9,1.52,3.16c0.4,3.16-0.24,6.14-1.34,9.06c-0.04,0.09-0.08,0.19-0.09,0.29c-0.11,1.95-1.12,3.58-1.86,5.31
			c-0.37,0.86-0.64,1.75-1.04,2.59c-0.36,0.77-0.84,1.48-1.25,2.22c-0.33,0.6-0.61,1.22-0.96,1.82c-0.2,0.34-0.43,0.69-0.72,0.95
			c-0.6,0.54-0.98,1.1-0.73,1.97c0.08,0.26-0.08,0.71-0.28,0.91c-1.86,1.9-3.71,3.82-5.66,5.63c-1.28,1.18-2.89,1.82-4.64,1.93
			c-1.64,0.1-3.28,0.1-4.92,0.03c-0.68-0.03-1.37-0.31-2.03-0.57c-0.84-0.33-1.74-0.51-2.45-1.18c-0.76-0.71-1.22-1.6-1.54-2.52
			C91.08,124.29,90.91,123.13,90.69,122.21z M114.33,102.65c-0.14-0.59-0.26-1.18-0.43-1.76c-0.17-0.6-0.58-0.8-1.21-0.75
			c-0.51,0.04-1.04-0.12-1.55-0.12c-0.53-0.01-1.12-0.08-1.58,0.12c-0.71,0.31-1.33,0.83-1.99,1.25c-1.86,1.17-3.41,2.68-4.76,4.39
			c-0.18,0.23-0.21,0.58-0.28,0.88c-0.1,0.42-0.07,0.92-0.3,1.25c-1.08,1.64-2.29,3.21-3.33,4.88c-0.9,1.45-1.94,2.84-2.29,4.6
			c-0.25,1.24,0.26,2.31,1.03,2.96c0.72,0.61,1.9,0.87,2.88,0.9c0.86,0.03,1.77-0.39,2.6-0.76c2.24-1.02,3.95-2.68,5.36-4.66
			c1.48-2.06,2.86-4.17,3.96-6.47C113.45,107.22,114.26,105.08,114.33,102.65z"/>
		<path class="st0" d="M48.79,73.33c0.15-1.84,0.21-3.69,0.49-5.5c0.18-1.13,0.68-2.2,1.09-3.28c0.05-0.14,0.44-0.27,0.64-0.23
			c1.01,0.17,1.47-0.09,1.76-1.08c0.42-1.46,0.83-2.92,1.25-4.38c0.04-0.15,0.14-0.29,0.2-0.44c0.54-1.41,1.08-2.83,1.63-4.24
			c0.1-0.26,0.23-0.52,0.41-0.73c0.38-0.44,0.49-0.89,0.19-1.39c-0.38-0.64-1.14-1.02-1.68-0.84c-0.34,0.12-0.66,0.3-0.98,0.49
			c-0.59,0.35-0.97,0.23-1.5-0.53c-0.35-0.5-0.26-0.82,0.17-1.26c0.96-1.01,2.03-1.87,3.2-2.61c0.39-0.25,0.79-0.48,1.2-0.69
			c0.94-0.49,1.9-0.95,2.84-1.45c0.79-0.41,1.56-0.83,2.46-0.98c0.96-0.16,1.9-0.44,2.86-0.53c0.49-0.05,1.03,0.16,1.52,0.33
			c0.35,0.12,0.39,0.42,0.23,0.75c-0.39,0.82-0.76,1.65-1.15,2.47c-0.14,0.29-0.33,0.56-0.5,0.83c-0.43,0.7-0.87,1.4-1.29,2.11
			c-0.05,0.09,0.03,0.25,0.05,0.38c0.16-0.05,0.33-0.06,0.47-0.15c1.47-0.94,2.25-2.55,3.58-3.64c1.1-0.89,2.17-1.81,3.51-2.34
			c0.24-0.1,0.47-0.23,0.7-0.37c1.78-1.07,3.71-1.58,5.79-1.51c0.42,0.01,0.88,0.17,1.23,0.39c0.52,0.34,0.78,0.83,0.31,1.44
			c-0.09,0.12-0.14,0.3-0.15,0.46c-0.14,2.18-1.11,4.12-1.95,6.06c-0.84,1.92-1.9,3.75-2.99,5.55c-1.36,2.24-3.08,4.18-5.33,5.6
			c-0.32,0.2-0.69,0.34-1.05,0.46c-0.51,0.17-0.9-0.01-1.18-0.48c-0.22-0.36-0.52-0.67-0.75-1.02c-0.08-0.13-0.07-0.33-0.06-0.49
			c0.01-0.09,0.15-0.17,0.16-0.25c0.14-1.6,1.34-2.6,2.19-3.79c0.67-0.94,1.43-1.82,2.05-2.79c0.64-1,1.15-2.09,1.73-3.13
			c0.14-0.26,0.27-0.55,0.46-0.77c0.27-0.31,0.46-0.65,0.16-0.96c-0.32-0.34-0.72-0.18-1.04,0.08c-0.78,0.62-1.59,1.21-2.3,1.9
			c-1.19,1.15-2.29,2.4-3.47,3.56c-0.95,0.92-1.87,1.85-2.56,2.99c-0.3,0.5-0.61,1-0.91,1.51c-1.06,1.82-2.12,3.64-3.17,5.47
			c-0.32,0.56-0.62,1.14-0.93,1.7c-1.18,2.1-1.09,4.52-1.71,6.76c-0.24,0.88-0.46,1.77-0.72,2.64c-0.25,0.84-0.18,1.65,0.12,2.45
			c0.49,1.31,0.26,1.93-0.89,2.74c-1.34,0.93-2.67,1.15-4.17,0.35c-0.96-0.51-1.23-1.43-1.54-2.3c-0.6-1.7-0.52-3.48-0.48-5.25
			C48.9,73.34,48.84,73.34,48.79,73.33z"/>
		<path class="st0" d="M128.14,124.48c0.09,0.74,0.17,1.48,0.28,2.22c0.09,0.64-0.2,1.19-0.87,1.52c-1.17,0.56-2.33,0.97-3.69,0.52
			c-0.78-0.26-1.29-0.64-1.68-1.35c-1.05-1.88-1.05-3.93-1.05-5.97c0-1.62-0.11-3.28,0.17-4.87c0.27-1.55,0.93-3.04,1.49-4.54
			c0.16-0.42,0.58-0.42,0.99-0.2c0.78,0.43,0.9,0.3,1.13-0.54c0.44-1.62,0.92-3.23,1.5-4.8c0.77-2.09,1.66-4.13,2.46-6.21
			c0.09-0.22-0.03-0.6-0.18-0.82c-0.25-0.37-0.68-0.62-1.11-0.41c-0.67,0.32-1.51,0.09-2.07,0.75c-0.2,0.24-0.47,0.08-0.6-0.24
			c-0.53-1.39-0.37-2.02,0.84-2.95c1.55-1.19,3.2-2.21,4.97-3.06c1.12-0.54,2.19-1.18,3.35-1.6c0.82-0.3,1.74-0.33,2.62-0.42
			c0.56-0.06,1.14,0,1.7,0.01c0.62,0.02,0.94,0.41,0.69,0.96c-0.42,0.92-0.9,1.82-1.39,2.7c-0.4,0.73-0.89,1.41-1.28,2.14
			c-0.11,0.21,0,0.54,0.01,0.82c0.26-0.12,0.55-0.19,0.76-0.36c0.31-0.25,0.56-0.58,0.84-0.87c0.14-0.15,0.33-0.26,0.42-0.44
			c0.77-1.53,2.07-2.5,3.49-3.35c1.01-0.6,2-1.25,3.06-1.77c1.8-0.9,3.73-1.23,5.74-1.01c1.05,0.12,1.28,0.4,1.12,1.42
			c-0.35,2.26-1.11,4.39-2.17,6.42c-0.82,1.58-1.56,3.21-2.4,4.78c-1.03,1.93-2.23,3.75-3.91,5.17c-0.89,0.76-1.88,1.42-2.88,2.03
			c-0.26,0.16-0.75,0.08-1.09-0.04c-0.14-0.05-0.11-0.51-0.18-0.78c-0.08-0.31-0.19-0.62-0.29-0.93c-0.09-0.29-0.26-0.57-0.27-0.87
			c-0.05-1.31,0.64-2.25,1.65-2.99c0.11-0.08,0.22-0.19,0.3-0.31c0.84-1.26,1.68-2.52,2.5-3.79c0.48-0.75,0.94-1.51,1.41-2.26
			c0.09-0.14,0.24-0.28,0.23-0.42c-0.02-0.39,0.02-0.87-0.2-1.13c-0.29-0.35-0.75-0.11-1.02,0.17c-1.01,1.07-2.34,1.78-3.29,2.95
			c-0.84,1.05-1.92,1.91-2.82,2.93c-0.73,0.83-1.36,1.75-2,2.66c-0.81,1.16-1.62,2.32-2.34,3.54c-0.81,1.38-1.52,2.82-2.27,4.24
			c-0.81,1.52-1.2,3.16-1.42,4.86c-0.13,0.98-0.36,1.96-0.64,2.91C128.43,122.1,128.1,123.24,128.14,124.48z"/>
		<path class="st0" d="M168.33,46.49c0.61-0.63,1.18-1.33,1.85-1.89c1.33-1.12,2.66-2.25,4.08-3.25c1.74-1.23,3.61-2.26,5.7-2.82
			c0.72-0.19,1.44-0.39,2.16-0.58c1.1-0.3,2.13,0.11,3.18,0.31c0.19,0.04,0.43,0.3,0.46,0.49c0.03,0.18-0.13,0.45-0.29,0.6
			c-0.65,0.61-1.35,1.17-2,1.78c-0.85,0.79-1.71,1.57-2.49,2.42c-1.74,1.91-3.26,3.98-4.56,6.22c-0.36,0.61-0.8,1.17-1.14,1.79
			c-0.23,0.42-0.38,0.89-0.54,1.35c-0.25,0.73-0.49,1.46-0.73,2.19c-0.03,0.08-0.08,0.15-0.1,0.22c-0.31,1.85-0.89,3.66-0.7,5.58
			c0.07,0.76,0.3,0.91,1.08,0.85c0.35-0.03,0.95-0.01,1.03,0.16c0.14,0.34,0.04,0.81-0.05,1.21c-0.07,0.35-0.3,0.67-0.38,1.02
			c-0.39,1.72-1.27,3.17-2.42,4.49c-1.79,2.03-4.07,2.38-6.49,1.69c-0.89-0.25-1.63-1.08-2.39-1.71c-0.21-0.18-0.27-0.57-0.34-0.88
			c-0.24-1.08-0.42-2.18-0.71-3.25c-0.14-0.5-0.05-0.8,0.21-1.26c0.45-0.79,0.68-1.71,0.96-2.59c0.33-1.04,0.71-2.07,0.9-3.14
			c0.32-1.79,1.51-3.17,2.17-4.8c0.39-0.97,0.87-2,1.91-2.61c0.44-0.26,0.72-0.8,1.06-1.23c0.28-0.35,0.54-0.71,0.8-1.07
			c0.14-0.2,0.34-0.41,0.35-0.62c0.02-0.58,0.35-0.91,0.75-1.25c0.34-0.28,0.61-0.65,0.89-0.99c0.08-0.1,0.16-0.31,0.12-0.36
			c-0.09-0.1-0.27-0.18-0.4-0.17c-0.23,0.02-0.5,0.05-0.69,0.18c-0.8,0.55-1.56,1.14-2.35,1.7c-0.25,0.17-0.53,0.29-0.8,0.43
			C168.41,46.62,168.37,46.56,168.33,46.49z"/>
		<path class="st0" d="M172.25,32.16c0.01-1.35,0.31-1.75,1.61-2c0.82-0.16,1.33-0.63,1.83-1.28c0.61-0.8,1.37-1.48,2.1-2.18
			c0.14-0.13,0.41-0.12,0.62-0.19c0.76-0.25,1.57-0.41,2.25-0.8c1.36-0.78,2.69-1.56,4.26-1.86c1.67-0.32,3.8,1.15,3.75,2.77
			c-0.04,1.41-0.55,2.68-1.76,3.57c-1.52,1.12-2.96,2.35-4.53,3.39c-1.23,0.82-2.52,1.62-4.1,1.73c-0.5,0.03-1.01,0.3-1.48,0.53
			c-1.57,0.77-3.13,0.26-3.83-1.32c-0.33-0.75-0.6-1.52-0.89-2.29C172.14,32.2,172.19,32.18,172.25,32.16z"/>
		<path class="st0" d="M158.49,14.54c-0.04,0.54-0.32,0.92-0.85,1.04c-0.56,0.12-1.01,0.36-1.39,0.8c-0.22,0.25-0.53,0.45-0.83,0.61
			c-0.44,0.24-0.82,0.09-1.14-0.26c-0.32-0.35-0.09-0.63,0.13-0.91c0.53-0.69,1.05-1.4,1.6-2.07c0.37-0.46,0.96-0.54,1.62-0.28
			C158.1,13.65,158.43,13.98,158.49,14.54z"/>
		<path class="st0" d="M132.76,155.03c0.32,0.06,0.54,0.1,0.76,0.14c0.45,0.09,0.89,0.3,0.86,0.78c-0.02,0.28-0.34,0.59-0.6,0.79
			c-0.73,0.59-1.71,0.81-2.31,1.63c-0.14,0.2-0.69,0.24-0.98,0.14c-0.15-0.05-0.32-0.63-0.21-0.83c0.46-0.82,0.97-1.61,1.56-2.34
			C132.02,155.12,132.5,155.11,132.76,155.03z"/>
		<path class="st0" d="M178.94,75.46c-0.01,0.65-0.65,1.05-1.05,0.65c-0.66-0.66-1.27-1.41-1.74-2.21
			c-0.27-0.46,0.15-0.96,0.52-1.32c0.34-0.32,0.74-0.35,1.12-0.12c0.2,0.12,0.44,0.38,0.44,0.59c0.01,0.78,0.24,1.47,0.63,2.12
			C178.92,75.26,178.93,75.4,178.94,75.46z"/>
		<path class="st0" d="M83.49,119.66c0.28-0.35,0.58-0.8,0.95-1.16c0.09-0.09,0.51,0.03,0.67,0.17c0.18,0.16,0.23,0.46,0.33,0.7
			c0.24,0.63,0.46,1.27,0.71,1.9c0.16,0.41,0.33,0.86-0.06,1.18c-0.39,0.32-0.81,0.1-1.15-0.2
			C84.21,121.6,83.76,120.78,83.49,119.66z"/>
		<path class="st0" d="M33.62,40.99c0.02-1.12,0.41-2,1.44-2.56c0.42-0.22,0.78-0.22,1.11,0.11c0.32,0.32,0.45,0.72,0.15,1.1
			c-0.61,0.77-1.26,1.51-1.92,2.25c-0.24,0.27-0.49,0.18-0.61-0.13C33.69,41.51,33.67,41.24,33.62,40.99z"/>
		<path class="st0" d="M46.33,84.45c0.09-0.95,0.66-1.64,1.33-1.55c0.26,0.03,0.58,0.27,0.7,0.5c0.17,0.32-0.11,0.52-0.42,0.67
			c-0.34,0.17-0.62,0.45-0.94,0.64c-0.14,0.08-0.36,0.11-0.5,0.06C46.39,84.72,46.35,84.5,46.33,84.45z"/>
	</g>
</g>
</svg>
