<?xml version="1.0" encoding="utf-8"?>
<!-- Generator: Adobe Illustrator 24.0.2, SVG Export Plug-In . SVG Version: 6.00 Build 0)  -->
<svg version="1.1" id="Capa_1" xmlns="http://www.w3.org/2000/svg" xmlns:xlink="http://www.w3.org/1999/xlink" x="0px" y="0px"
	 viewBox="0 0 715 9" style="enable-background:new 0 0 715 9;" xml:space="preserve">
<style type="text/css">
	.st0{fill:#FAC402;}
</style>
<g>
	<path class="st0" d="M3.69,5.36l22.15-0.38L47.98,4.7l44.29-0.56l88.59-0.7c29.53-0.28,59.06-0.3,88.59-0.45l88.59-0.14l88.59,0.13
		c29.53,0.14,59.06,0.18,88.59,0.42c29.53,0.17,59.06,0.43,88.59,0.73L668.1,4.7l22.15,0.28l22.15,0.38l-22.15,0.38L668.1,6.02
		L623.8,6.59c-29.53,0.29-59.06,0.56-88.59,0.73c-29.53,0.23-59.06,0.28-88.59,0.42l-88.59,0.13l-88.59-0.14
		c-29.53-0.14-59.06-0.17-88.59-0.45l-88.59-0.7L47.98,6.02L25.83,5.74L3.69,5.36z"/>
</g>
</svg>
