<?xml version="1.0" encoding="utf-8"?>
<!-- Generator: Adobe Illustrator 24.0.2, SVG Export Plug-In . SVG Version: 6.00 Build 0)  -->
<svg version="1.1" id="Capa_1" xmlns="http://www.w3.org/2000/svg" xmlns:xlink="http://www.w3.org/1999/xlink" x="0px" y="0px"
	 viewBox="0 0 5.8 362.6" style="enable-background:new 0 0 5.8 362.6;" xml:space="preserve">
<style type="text/css">
	.st0{fill:#CCCCCC;}
</style>
<g>
	<path class="st0" d="M3.2,10.8l0.3,10.5l0.2,10.5l0.4,21.1C4.4,66.9,4.7,81,4.8,95C5,109,5,123.1,5.1,137.1l0.1,42.1l-0.1,42.1
		c-0.1,14-0.1,28.1-0.3,42.1c-0.1,14-0.3,28.1-0.6,42.1l-0.5,21.1l-0.2,10.5l-0.3,10.5l-0.3-10.5l-0.2-10.5l-0.5-21.1
		c-0.2-14-0.4-28.1-0.6-42.1c-0.2-14-0.2-28.1-0.3-42.1l-0.1-42.1l0.1-42.1c0.1-14,0.1-28.1,0.3-42.1C1.8,81,2,66.9,2.3,52.9
		l0.4-21.1l0.2-10.5L3.2,10.8z"/>
</g>
</svg>
