<?xml version="1.0" encoding="utf-8"?>
<!-- Generator: Adobe Illustrator 24.0.2, SVG Export Plug-In . SVG Version: 6.00 Build 0)  -->
<svg version="1.1" id="Capa_1" xmlns="http://www.w3.org/2000/svg" xmlns:xlink="http://www.w3.org/1999/xlink" x="0px" y="0px"
	 viewBox="0 0 19.8 20.6" style="enable-background:new 0 0 19.8 20.6;" xml:space="preserve">
<style type="text/css">
	.st0{opacity:0.2;}
	.st1{fill:#7A9097;}
</style>
<g class="st0">
	<defs>
		<rect id="SVGID_3_" x="-691" y="-1078.5" class="st0" width="1500" height="623"/>
	</defs>
	<clipPath id="SVGID_2_">
		<use xlink:href="#SVGID_3_"  style="overflow:visible;"/>
	</clipPath>
	<g style="clip-path:url(#SVGID_2_);">
		
			<image style="overflow:visible;" width="1920" height="2881" xlink:href="2F24D0E8.png"  transform="matrix(1 0 0 1 -900.96 -1215.62)">
		</image>
	</g>
</g>
<g class="st0">
	<defs>
		<rect id="SVGID_1_" x="-331" y="-1051.1" class="st0" width="1500" height="623"/>
	</defs>
	<clipPath id="SVGID_4_">
		<use xlink:href="#SVGID_1_"  style="overflow:visible;"/>
	</clipPath>
	<g style="clip-path:url(#SVGID_4_);">
		
			<image style="overflow:visible;" width="1920" height="2881" xlink:href="2F24D0E9.png"  transform="matrix(1 0 0 1 -540.96 -1188.26)">
		</image>
	</g>
</g>
<g>
	<path class="st1" d="M16.9,20.6c-0.1,0-0.1-0.1-0.2-0.1c-1.3-0.9-2.6-1.7-3.9-2.6c-0.1-0.1-0.2-0.1-0.3-0.1c-1.9,0-3.9,0-5.8,0
		c-0.1,0-0.1,0-0.2,0c0-1.3,0-2.6,0-3.9c-1.2,0.8-2.3,1.5-3.5,2.3c0-1,0-1.9,0-2.8c-0.8,0-1.5,0-2.3,0c0-2.7,0-5.4,0-8.1
		c1.9,0,3.9,0,5.8,0c0-1.5,0-3,0-4.4c4.3,0,8.5,0,12.8,0c0,2.3,0,4.6,0,7c-0.8,0-1.5,0-2.3,0c0,0.9,0,1.9,0,2.8
		c-1.2-0.8-2.3-1.5-3.5-2.3c0,0.9,0,1.7,0,2.5c1.9,0,3.9,0,5.8,0c0,2.3,0,4.6,0,7c-0.8,0-1.5,0-2.3,0C16.9,18.8,16.9,19.7,16.9,20.6
		C16.9,20.6,16.9,20.6,16.9,20.6z M4.1,14.1C4.2,14,4.2,14,4.3,13.9c0.8-0.5,1.6-1.1,2.4-1.6c0.1-0.1,0.2-0.1,0.3-0.1
		c1.7,0,3.3,0,5,0c0.1,0,0.2,0,0.2,0c0-1.9,0-3.9,0-5.8c-3.5,0-7,0-10.4,0c0,1.9,0,3.9,0,5.8c0.8,0,1.5,0,2.3,0
		C4.1,12.8,4.1,13.4,4.1,14.1z M7.6,2c0,1.1,0,2.2,0,3.3c1.9,0,3.9,0,5.8,0c0,0.5,0,1,0,1.5c0,0.1,0,0.2,0.1,0.3
		c0.7,0.4,1.4,0.9,2,1.4c0,0,0.1,0.1,0.2,0.1c0-0.6,0-1.2,0-1.8c0.8,0,1.5,0,2.3,0c0-1.6,0-3.1,0-4.6C14.6,2,11.1,2,7.6,2z
		 M7.6,13.4c0,1.1,0,2.2,0,3.3c0.1,0,0.1,0,0.2,0c1.7,0,3.3,0,5,0c0.1,0,0.2,0,0.3,0.1c0.8,0.5,1.6,1.1,2.4,1.6
		c0.1,0,0.1,0.1,0.2,0.1c0-0.6,0-1.2,0-1.8c0.8,0,1.5,0,2.3,0c0-1.6,0-3.1,0-4.6c-1.5,0-3.1,0-4.6,0c0,0.5,0,0.9,0,1.4
		C11.5,13.4,9.5,13.4,7.6,13.4z"/>
</g>
</svg>
