<?xml version="1.0" encoding="utf-8"?>
<!-- Generator: Adobe Illustrator 24.0.2, SVG Export Plug-In . SVG Version: 6.00 Build 0)  -->
<svg version="1.1" id="Capa_1" xmlns="http://www.w3.org/2000/svg" xmlns:xlink="http://www.w3.org/1999/xlink" x="0px" y="0px"
	 viewBox="0 0 36.44 34.67" style="enable-background:new 0 0 36.44 34.67;" xml:space="preserve">
<g>
	<g>
		<path d="M34.33,13.37L5.64,1.47c-1.21-0.5-2.57-0.28-3.56,0.58C1.09,2.9,0.67,4.22,1,5.48l2.82,11.05L1,27.59
			c-0.32,1.27,0.09,2.59,1.08,3.44c0.99,0.86,2.36,1.08,3.56,0.58l28.69-11.9c1.31-0.54,2.12-1.76,2.12-3.17
			S35.63,13.91,34.33,13.37z M33.53,17.79L4.84,29.69c-0.48,0.2-1.01,0.12-1.4-0.23c-0.39-0.34-0.55-0.85-0.42-1.35L5.7,17.58h10.35
			c0.58,0,1.04-0.47,1.04-1.04c0-0.58-0.47-1.04-1.04-1.04H5.7L3.02,4.97C2.89,4.46,3.05,3.96,3.44,3.62s0.92-0.43,1.4-0.23
			l28.69,11.9c0.77,0.32,0.83,1.04,0.83,1.25S34.3,17.47,33.53,17.79z"/>
	</g>
</g>
</svg>
