<?xml version="1.0" encoding="utf-8"?>
<!-- Generator: Adobe Illustrator 24.0.2, SVG Export Plug-In . SVG Version: 6.00 Build 0)  -->
<svg version="1.1" id="Capa_1" xmlns="http://www.w3.org/2000/svg" xmlns:xlink="http://www.w3.org/1999/xlink" x="0px" y="0px"
	 viewBox="0 0 19.8 17.4" style="enable-background:new 0 0 19.8 17.4;" xml:space="preserve">
<style type="text/css">
	.st0{opacity:0.2;}
	.st1{fill:#7A9097;}
</style>
<g class="st0">
	<defs>
		<rect id="SVGID_3_" x="-691" y="-1079.8" class="st0" width="1500" height="623"/>
	</defs>
	<clipPath id="SVGID_2_">
		<use xlink:href="#SVGID_3_"  style="overflow:visible;"/>
	</clipPath>
	<g style="clip-path:url(#SVGID_2_);">
		
			<image style="overflow:visible;" width="1920" height="2881" xlink:href="A011D889.png"  transform="matrix(1 0 0 1 -900.96 -1216.9399)">
		</image>
	</g>
</g>
<g class="st0">
	<defs>
		<rect id="SVGID_1_" x="-331" y="-1052.5" class="st0" width="1500" height="623"/>
	</defs>
	<clipPath id="SVGID_4_">
		<use xlink:href="#SVGID_1_"  style="overflow:visible;"/>
	</clipPath>
	<g style="clip-path:url(#SVGID_4_);">
		
			<image style="overflow:visible;" width="1920" height="2881" xlink:href="A011D88B.png"  transform="matrix(1 0 0 1 -540.96 -1189.58)">
		</image>
	</g>
</g>
<g>
	<path class="st1" d="M0,15.5C0,11,0,6.4,0,1.9c0,0,0,0,0-0.1C0.2,0.7,1.1,0,2.2,0c5.2,0,10.3,0,15.5,0c1.3,0,2.2,0.9,2.2,2.2
		c0,4.3,0,8.6,0,12.9c0,0.2,0,0.4-0.1,0.6c-0.2,1-1.1,1.7-2.2,1.7c-1.6,0-13.8,0-15.4,0c-1,0-1.8-0.6-2.1-1.5
		C0.1,15.7,0,15.6,0,15.5z M17.6,16.2c0.7,0,1.1-0.4,1.1-1.1c0-4.3,0-8.5,0-12.8c0-0.7-0.4-1.1-1.1-1.1c-5.1,0-10.2,0-15.3,0
		c-0.7,0-1.1,0.4-1.1,1.1c0,4.3,0,8.5,0,12.8c0,0.7,0.4,1.1,1.1,1.1C4,16.2,15.9,16.2,17.6,16.2z"/>
	<path class="st1" d="M6.3,13c0.1-0.5,0.2-0.9,0.2-1.4c0.1-0.6,0.2-1.1,0.3-1.7c0-0.1,0-0.2-0.1-0.3c-0.7-0.7-1.4-1.3-2-2
		C4.5,7.6,4.4,7.3,4.5,7.1C4.6,6.8,4.8,6.7,5,6.7C6,6.5,6.9,6.4,7.8,6.3C8,6.3,8,6.2,8.1,6.1c0.4-0.8,0.8-1.7,1.2-2.5
		c0.1-0.2,0.3-0.4,0.6-0.4c0.3,0,0.5,0.2,0.6,0.4c0.4,0.8,0.8,1.7,1.2,2.5c0.1,0.1,0.2,0.2,0.3,0.2c0.9,0.1,1.8,0.3,2.8,0.4
		c0.5,0.1,0.7,0.4,0.6,0.8c0,0.1-0.1,0.2-0.2,0.3c-0.7,0.7-1.3,1.3-2,2C13,9.8,13,9.9,13,10c0.2,0.9,0.3,1.9,0.5,2.8
		c0,0.3,0,0.5-0.2,0.7c-0.2,0.2-0.5,0.1-0.7,0c-0.8-0.4-1.7-0.9-2.5-1.3c-0.1-0.1-0.2-0.1-0.3,0c-0.9,0.5-1.7,0.9-2.6,1.4
		c-0.3,0.2-0.7,0.1-0.8-0.2C6.3,13.2,6.3,13.1,6.3,13z M13.5,7.6C13.5,7.6,13.5,7.7,13.5,7.6C13.5,7.7,13.5,7.7,13.5,7.6
		c-0.7-0.1-1.3-0.2-2-0.3c-0.3,0-0.5-0.2-0.6-0.4c-0.3-0.6-0.6-1.1-0.8-1.7C10,5.2,10,5.1,9.9,5C9.6,5.7,9.3,6.3,9,7
		C8.9,7.2,8.7,7.3,8.4,7.4C8,7.4,7.7,7.5,7.3,7.5c-0.3,0-0.6,0.1-1,0.1c0,0,0,0,0,0.1c0.1,0,0.1,0.1,0.2,0.1
		c0.5,0.5,0.9,0.9,1.4,1.4C8,9.4,8.1,9.6,8,9.8c-0.1,0.3-0.1,0.6-0.1,0.9c-0.1,0.4-0.1,0.8-0.2,1.3c0.1,0,0.2-0.1,0.2-0.1
		C8.4,11.6,9,11.3,9.6,11c0.2-0.1,0.5-0.1,0.7,0c0.3,0.2,0.7,0.4,1,0.5c0.3,0.2,0.6,0.3,0.9,0.5c0-0.1,0-0.1,0-0.1
		c-0.1-0.6-0.2-1.2-0.3-1.8c-0.1-0.4,0-0.7,0.3-0.9C12.6,8.6,13,8.1,13.5,7.6z"/>
</g>
</svg>
