<?xml version="1.0" encoding="utf-8"?>
<!-- Generator: Adobe Illustrator 24.0.2, SVG Export Plug-In . SVG Version: 6.00 Build 0)  -->
<svg version="1.1" id="Capa_1" xmlns="http://www.w3.org/2000/svg" xmlns:xlink="http://www.w3.org/1999/xlink" x="0px" y="0px"
	 viewBox="0 0 126.36 109.5" style="enable-background:new 0 0 126.36 109.5;" xml:space="preserve">
<style type="text/css">
	.st0{fill:#8F8F8F;}
	.st1{fill:#33333C;}
	.st2{fill:#FFFFFF;}
	.st3{fill-rule:evenodd;clip-rule:evenodd;fill:#33333C;}
</style>
<g>
	<g>
		<g>
			<path class="st0" d="M126.36,43.99c-31.15,0.22-28.21-12.84-11.58-26.22c-17.66,8.86-33.07,4.95-31.21-11.31
				c-6.19,12.6-29.53,13.28-38.37-3.93c2.69,16.1-3.09,18.86-21.4,8.62c10.11,12.54,10.13,20.18-9.75,15.21
				C25.76,34.96,31.16,51.96,0,58.48c17.85,2.44,35.19,8.85,14.6,25.99c16.71-5.77,33.81,7.48,32.3,22.51
				c5.16-11.69,25.53-21.55,42.68-0.13c-4.85-12.32-1.84-26.83,18.39-12.89c-14.59-17.45-4.43-24.67,17.77-21.1
				C103.87,64.83,99.32,52.54,126.36,43.99z"/>
		</g>
		<path class="st1" d="M118.68,44.94c-27.36,0.2-24.78-11.7-10.17-23.9c-15.51,8.07-29.05,4.51-27.41-10.31
			c-5.44,11.49-25.94,12.1-33.7-3.58c2.36,14.68-2.71,17.19-18.8,7.85c8.88,11.43,8.9,18.39-8.56,13.86
			c10.29,7.84,15.03,23.34-12.34,29.28c15.68,2.22,30.91,8.07,12.82,23.69c14.68-5.26,29.7,6.82,28.37,20.51
			c4.53-10.66,22.42-19.64,37.49-0.12c-4.26-11.23-1.62-24.45,16.15-11.74C89.69,74.57,98.62,68,118.12,71.25
			C98.92,63.94,94.93,52.73,118.68,44.94z"/>
	</g>
	<path class="st2" d="M102.81,47.58c-19.54,0.15-17.69-8.55-7.26-17.47c-11.08,5.9-20.74,3.3-19.57-7.53
		c-3.88,8.4-18.52,8.84-24.06-2.61c1.69,10.73-1.94,12.56-13.42,5.74c6.34,8.35,6.35,13.44-6.11,10.13
		c7.34,5.73,10.73,17.06-8.81,21.4c11.2,1.62,22.07,5.89,9.15,17.31c10.48-3.84,21.21,4.98,20.26,14.99
		c3.23-7.79,16.01-14.36,26.77-0.09c-3.04-8.21-1.15-17.87,11.53-8.58c-9.15-11.63-2.78-16.43,11.15-14.06
		C88.7,61.47,85.85,53.28,102.81,47.58z"/>
	<path class="st3" d="M67.77,41.41c1.23-0.04,2.45-0.01,3.69-0.01c0.15,0,0.3,0,0.51,0v-6.39c-0.66-0.07-1.34-0.16-2.03-0.19
		c-1.26-0.06-2.52-0.12-3.78-0.09c-1.92,0.04-3.75,0.51-5.34,1.65c-1.82,1.31-2.83,3.16-3.21,5.33c-0.16,0.9-0.2,1.83-0.22,2.74
		c-0.04,1.43-0.01,2.87,0,4.3v0.54h-6.11v7.13h6.08v17.93h7.42v-17.9h6.06c0.31-2.37,0.61-4.72,0.93-7.17c-0.49,0-0.92,0-1.36,0
		c-1.72,0.01-5.68,0-5.68,0s0.02-3.54,0.06-5.07C64.84,42.11,66.08,41.47,67.77,41.41z"/>
</g>
</svg>
