<?xml version="1.0" encoding="utf-8"?>
<!-- Generator: Adobe Illustrator 24.0.2, SVG Export Plug-In . SVG Version: 6.00 Build 0)  -->
<svg version="1.1" id="Capa_1" xmlns="http://www.w3.org/2000/svg" xmlns:xlink="http://www.w3.org/1999/xlink" x="0px" y="0px"
	 viewBox="0 0 78.4 71.8" style="enable-background:new 0 0 78.4 71.8;" xml:space="preserve">
<style type="text/css">
	.st0{fill:#808080;}
</style>
<g>
	<g>
		<g>
			<path class="st0" d="M68.5,7.5H19.7c-2.7,0-4.9,2.2-4.9,4.9s2.2,4.9,4.9,4.9h48.8c2.7,0,4.9-2.2,4.9-4.9S71.2,7.5,68.5,7.5z"/>
		</g>
	</g>
	<g>
		<g>
			<path class="st0" d="M10,12.4c0-1.3-0.5-2.5-1.4-3.4C6.6,7,3.5,7,1.6,8.9c-0.9,0.9-1.4,2.1-1.4,3.4c0,0.3,0,0.6,0,1
				c0.1,0.3,0.1,0.6,0.3,0.9c0.1,0.3,0.3,0.6,0.5,0.8c0.2,0.3,0.4,0.5,0.6,0.8c0.2,0.2,0.5,0.4,0.7,0.6c0.3,0.2,0.5,0.3,0.8,0.5
				c0.3,0.2,0.7,0.3,1,0.4c0.3,0,0.6,0,1,0c1.3,0,2.5-0.5,3.4-1.4c0.2-0.2,0.4-0.5,0.6-0.8c0.2-0.3,0.3-0.5,0.5-0.8
				c0.2-0.3,0.3-0.6,0.4-0.9C10,13,10,12.7,10,12.4z"/>
		</g>
	</g>
	<g>
		<g>
			<path class="st0" d="M10,34.3c0-0.3,0-0.6,0-1c-0.1-0.3-0.2-0.6-0.4-0.9c-0.1-0.3-0.3-0.6-0.5-0.9c-0.2-0.3-0.4-0.5-0.6-0.7
				c-1.9-1.9-5-1.9-6.9,0c-0.9,0.9-1.4,2.1-1.4,3.4c0,0.6,0.1,1.3,0.4,1.9C0.7,36.5,0.8,36.8,1,37c0.2,0.3,0.4,0.5,0.6,0.7
				c0.2,0.2,0.5,0.4,0.7,0.6c0.3,0.2,0.5,0.3,0.8,0.5C3.5,39,3.8,39,4.1,39.1c0.3,0.1,0.6,0.1,1,0.1c0.3,0,0.6,0,1,0
				c0.3-0.1,0.6-0.1,0.9-0.3c0.3-0.1,0.6-0.3,0.9-0.5c0.3-0.2,0.5-0.4,0.7-0.6c0.2-0.2,0.4-0.5,0.6-0.7c0.2-0.3,0.3-0.5,0.5-0.8
				c0.2-0.3,0.3-0.7,0.4-1C10,35,10,34.6,10,34.3z"/>
		</g>
	</g>
	<g>
		<g>
			<path class="st0" d="M10,56.3c0-0.3,0-0.6,0-1c-0.1-0.3-0.2-0.6-0.4-0.9c-0.1-0.3-0.3-0.6-0.5-0.8C9,53.3,8.8,53,8.5,52.8
				c-1.9-1.9-5-1.9-6.9,0C1.4,53,1.2,53.3,1,53.6c-0.2,0.3-0.3,0.5-0.5,0.8c-0.1,0.3-0.2,0.6-0.3,0.9c-0.1,0.3-0.1,0.6-0.1,1
				c0,1.3,0.5,2.5,1.4,3.4c0.2,0.2,0.5,0.4,0.7,0.6c0.3,0.2,0.5,0.3,0.8,0.5C3.5,60.9,3.8,61,4.1,61c0.3,0.1,0.6,0.1,1,0.1
				c0.3,0,0.6,0,1,0c0.3-0.1,0.6-0.1,0.9-0.3c0.3-0.1,0.6-0.3,0.9-0.5c0.3-0.2,0.5-0.4,0.7-0.6c0.2-0.2,0.4-0.5,0.6-0.7
				c0.2-0.3,0.3-0.5,0.5-0.8c0.2-0.3,0.3-0.7,0.4-1C10,56.9,10,56.6,10,56.3z"/>
		</g>
	</g>
	<g>
		<g>
			<path class="st0" d="M73.4,29.4H19.7c-2.7,0-4.9,2.2-4.9,4.9s2.2,4.9,4.9,4.9h53.7c2.7,0,4.9-2.2,4.9-4.9S76.1,29.4,73.4,29.4z"
				/>
		</g>
	</g>
	<g>
		<g>
			<path class="st0" d="M51.4,51.4H19.7c-2.7,0-4.9,2.2-4.9,4.9c0,2.7,2.2,4.9,4.9,4.9h31.7c2.7,0,4.9-2.2,4.9-4.9
				C56.3,53.6,54.1,51.4,51.4,51.4z"/>
		</g>
	</g>
</g>
</svg>
