<svg width="77" height="67" viewBox="0 0 77 67" fill="none" xmlns="http://www.w3.org/2000/svg">
<path d="M22.9 0.600098H7.69998C3.49998 0.600098 0.0999756 4.0001 0.0999756 8.2001V23.3001C0.0999756 27.5001 3.49998 30.9001 7.69998 30.9001H22.8C27 30.9001 30.4 27.5001 30.4 23.3001V8.2001C30.5 4.0001 27.1 0.600098 22.9 0.600098ZM25.4 23.4001C25.4 24.8001 24.3 25.9001 22.9 25.9001H7.69998C6.29998 25.9001 5.19998 24.8001 5.19998 23.4001V8.2001C5.19998 6.8001 6.29998 5.7001 7.69998 5.7001H22.8C24.2 5.7001 25.3 6.8001 25.3 8.2001V23.4001H25.4Z" fill="#808080"/>
<path d="M22.9 36.1001H7.69998C3.49998 36.1001 0.0999756 39.5001 0.0999756 43.7001V58.8001C0.0999756 63.0001 3.49998 66.4001 7.69998 66.4001H22.8C27 66.4001 30.4 63.0001 30.4 58.8001V43.8001C30.5 39.6001 27.1 36.1001 22.9 36.1001ZM25.4 58.9001C25.4 60.3001 24.3 61.4001 22.9 61.4001H7.69998C6.29998 61.4001 5.19998 60.3001 5.19998 58.9001V43.8001C5.19998 42.4001 6.29998 41.3001 7.69998 41.3001H22.8C24.2 41.3001 25.3 42.4001 25.3 43.8001V58.9001H25.4Z" fill="#808080"/>
<path d="M75.2 14.3002H36.1C35.4 14.3002 34.8 13.7002 34.8 13.0002V7.0002C34.8 6.3002 35.4 5.7002 36.1 5.7002H75.2C75.9 5.7002 76.5 6.3002 76.5 7.0002V13.1002C76.4 13.8002 75.9 14.3002 75.2 14.3002Z" fill="#808080"/>
<path d="M63.4 25.8H35.8C35.3 25.8 34.9 25.4 34.9 24.9V20.4C34.9 19.9 35.3 19.5 35.8 19.5H63.4C63.9 19.5 64.3 19.9 64.3 20.4V24.9C64.3 25.4 63.9 25.8 63.4 25.8Z" fill="#808080"/>
<path d="M75.2 49.9002H36.1C35.4 49.9002 34.8 49.3002 34.8 48.6002V42.5002C34.8 41.8002 35.4 41.2002 36.1 41.2002H75.2C75.9 41.2002 76.5 41.8002 76.5 42.5002V48.6002C76.4 49.3002 75.9 49.9002 75.2 49.9002Z" fill="#808080"/>
<path d="M63.4 61.4001H35.8C35.3 61.4001 34.9 61.0001 34.9 60.5001V56.0001C34.9 55.5001 35.3 55.1001 35.8 55.1001H63.4C63.9 55.1001 64.3 55.5001 64.3 56.0001V60.5001C64.3 61.0001 63.9 61.4001 63.4 61.4001Z" fill="#808080"/>
</svg>
