<svg width="71" height="71" viewBox="0 0 71 71" fill="none" xmlns="http://www.w3.org/2000/svg">
<path d="M24.6 0.899902H8.6C4.1 0.899902 0.5 4.4999 0.5 8.9999V25.0999C0.5 29.5999 4.1 33.1999 8.6 33.1999H24.7C29.2 33.1999 32.8 29.5999 32.8 25.0999V8.9999C32.7 4.4999 29.1 0.899902 24.6 0.899902ZM27.2 25.0999C27.2 26.4999 26 27.6999 24.6 27.6999H8.6C7.2 27.6999 6 26.4999 6 25.0999V8.9999C6 7.5999 7.2 6.3999 8.6 6.3999H24.7C26.1 6.3999 27.3 7.5999 27.3 8.9999V25.0999H27.2Z" fill="#808080"/>
<path d="M62.2 0.899902H46.4C41.9 0.899902 38.2 4.5999 38.2 9.0999V24.9999C38.2 29.4999 41.9 33.1999 46.4 33.1999H62.3C66.8 33.1999 70.5 29.4999 70.5 24.9999V9.0999C70.4 4.5999 66.7 0.899902 62.2 0.899902ZM65 24.8999C65 26.3999 63.8 27.5999 62.3 27.5999H46.4C44.9 27.5999 43.7 26.3999 43.7 24.8999V9.0999C43.7 7.5999 44.9 6.3999 46.4 6.3999H62.3C63.8 6.3999 65 7.5999 65 9.0999V24.8999Z" fill="#808080"/>
<path d="M24.6 38.5999H8.6C4.1 38.5999 0.5 42.1999 0.5 46.6999V62.7999C0.5 67.2999 4.1 70.8999 8.6 70.8999H24.7C29.2 70.8999 32.8 67.2999 32.8 62.7999V46.6999C32.7 42.1999 29.1 38.5999 24.6 38.5999ZM27.2 62.7999C27.2 64.1999 26 65.3999 24.6 65.3999H8.6C7.2 65.3999 6 64.1999 6 62.7999V46.6999C6 45.2999 7.2 44.0999 8.6 44.0999H24.7C26.1 44.0999 27.3 45.2999 27.3 46.6999V62.7999H27.2Z" fill="#808080"/>
<path d="M62.2 38.5999H46.4C41.9 38.5999 38.2 42.2999 38.2 46.7999V62.6999C38.2 67.1999 41.9 70.8999 46.4 70.8999H62.3C66.8 70.8999 70.5 67.1999 70.5 62.6999V46.7999C70.4 42.2999 66.7 38.5999 62.2 38.5999ZM65 62.6999C65 64.1999 63.8 65.3999 62.3 65.3999H46.4C44.9 65.3999 43.7 64.1999 43.7 62.6999V46.7999C43.7 45.2999 44.9 44.0999 46.4 44.0999H62.3C63.8 44.0999 65 45.2999 65 46.7999V62.6999Z" fill="#808080"/>
</svg>
