<svg width="105" height="73" viewBox="0 0 105 73" fill="none" xmlns="http://www.w3.org/2000/svg">
<path d="M13.1573 6.96055C13.1499 5.22353 12.4539 3.56032 11.2221 2.33561C8.66338 -0.207899 4.53087 -0.207899 1.97219 2.33561C0.740101 3.56032 0.0441056 5.22353 0.0369304 6.96055C-0.012066 7.38552 -0.012066 7.81481 0.0369304 8.23978C0.111143 8.66722 0.232096 9.08523 0.397741 9.48622C0.573841 9.87471 0.782332 10.2478 1.02096 10.6015C1.25651 10.9692 1.53142 11.3102 1.84098 11.6183C2.13947 11.9155 2.46933 12.1796 2.82501 12.4055C3.17045 12.657 3.54499 12.8664 3.94024 13.0287C4.37506 13.2542 4.83858 13.4199 5.31788 13.5207C5.74286 13.5683 6.17214 13.5683 6.59712 13.5207C8.32942 13.5222 9.99202 12.8383 11.2221 11.6183C11.5316 11.3102 11.8065 10.9692 12.0421 10.6015C12.2807 10.2478 12.4892 9.87471 12.6653 9.48622C12.8746 9.09015 13.0396 8.67214 13.1573 8.23978C13.2063 7.81481 13.2063 7.38552 13.1573 6.96055Z" fill="#808080"/>
<path d="M91.8796 0.400635H26.2777C22.6546 0.400635 19.7175 3.33776 19.7175 6.96083C19.7175 10.5839 22.6546 13.521 26.2777 13.521H91.8796C95.5027 13.521 98.4398 10.5839 98.4398 6.96083C98.4398 3.33776 95.5027 0.400635 91.8796 0.400635Z" fill="#808080"/>
<path d="M13.1573 36.4815C13.2061 36.0566 13.2061 35.6273 13.1573 35.2023C13.0439 34.779 12.8787 34.3714 12.6653 33.9887C12.4964 33.5862 12.2875 33.2017 12.0421 32.8406C11.8147 32.477 11.5388 32.1459 11.2221 31.8566C8.66338 29.3131 4.53086 29.3131 1.97218 31.8566C0.740097 33.0813 0.0441015 34.7445 0.0369263 36.4815C0.0496366 37.3461 0.216307 38.2011 0.528941 39.0072C0.693356 39.3953 0.890981 39.7684 1.11936 40.1225C1.36885 40.479 1.65463 40.8088 1.97218 41.1065C2.26206 41.4226 2.59294 41.6985 2.95621 41.9265C3.30165 42.1783 3.67599 42.3876 4.07145 42.5497C4.47141 42.718 4.88983 42.8392 5.31788 42.9105C5.73753 43.0046 6.16702 43.0487 6.59712 43.0417C7.0221 43.0907 7.45138 43.0907 7.87636 43.0417C8.29375 42.9702 8.7013 42.849 9.08999 42.6809C9.49611 42.5198 9.88152 42.3105 10.238 42.0577C10.6013 41.8297 10.9322 41.5538 11.2221 41.2377C11.5382 40.9478 11.8141 40.6169 12.0421 40.2537C12.2942 39.9084 12.5035 39.5341 12.6653 39.1384C12.8894 38.703 13.0548 38.2397 13.1573 37.7608C13.2077 37.3358 13.2077 36.9065 13.1573 36.4815Z" fill="#808080"/>
<path d="M13.1573 66.0025C13.2059 65.5776 13.2059 65.1483 13.1573 64.7233C13.0439 64.2895 12.8787 63.8711 12.6653 63.4769C12.4892 63.0884 12.2807 62.7153 12.0421 62.3616C11.8141 61.9984 11.5382 61.6675 11.222 61.3776C8.66335 58.8341 4.53084 58.8341 1.97216 61.3776C1.65604 61.6675 1.3801 61.9984 1.15213 62.3616C0.913507 62.7153 0.705016 63.0884 0.528916 63.4769C0.358761 63.8762 0.237602 64.2948 0.168105 64.7233C0.0756473 65.1434 0.031776 65.5724 0.0369012 66.0025C0.0442814 67.7396 0.740277 69.4028 1.97216 70.6275C2.26204 70.9436 2.59292 71.2195 2.95619 71.4475C3.30162 71.6992 3.67596 71.9086 4.07142 72.0707C4.47139 72.239 4.8898 72.3602 5.31786 72.4315C5.7375 72.5256 6.16699 72.5697 6.59709 72.5627C7.02207 72.6117 7.45135 72.6117 7.87633 72.5627C8.29372 72.4912 8.70128 72.37 9.08997 72.2019C9.49609 72.0408 9.8815 71.8315 10.238 71.5787C10.6013 71.3507 10.9322 71.0748 11.222 70.7587C11.5382 70.4688 11.8141 70.1379 12.0421 69.7746C12.2944 69.4296 12.5037 69.0551 12.6653 68.6594C12.8891 68.2238 13.0546 67.7607 13.1573 67.2818C13.2077 66.8568 13.2077 66.4275 13.1573 66.0025Z" fill="#808080"/>
<path d="M98.4398 29.9214H26.2777C22.6546 29.9214 19.7175 32.8585 19.7175 36.4816C19.7175 40.1047 22.6546 43.0418 26.2777 43.0418H98.4398C102.063 43.0418 105 40.1047 105 36.4816C105 32.8585 102.063 29.9214 98.4398 29.9214Z" fill="#808080"/>
<path d="M68.9189 59.4421H26.2777C22.6546 59.4421 19.7175 62.3793 19.7175 66.0023C19.7175 69.6254 22.6546 72.5625 26.2777 72.5625H68.9189C72.542 72.5625 75.4791 69.6254 75.4791 66.0023C75.4791 62.3793 72.542 59.4421 68.9189 59.4421Z" fill="#808080"/>
</svg>
