<?xml version="1.0" encoding="utf-8"?>
<!-- Generator: Adobe Illustrator 24.0.2, SVG Export Plug-In . SVG Version: 6.00 Build 0)  -->
<svg version="1.1" id="Capa_1" xmlns="http://www.w3.org/2000/svg" xmlns:xlink="http://www.w3.org/1999/xlink" x="0px" y="0px"
	 viewBox="0 0 126.36 109.5" style="enable-background:new 0 0 126.36 109.5;" xml:space="preserve">
<style type="text/css">
	.st0{fill:#8F8F8F;}
	.st1{fill:#33333C;}
	.st2{fill:#FFFFFF;}
</style>
<g>
	<g>
		<g>
			<path class="st0" d="M126.77,43.49c-31.15,0.22-28.21-12.84-11.58-26.22c-17.66,8.86-33.07,4.95-31.21-11.31
				c-6.19,12.6-29.53,13.28-38.37-3.93c2.69,16.1-3.09,18.86-21.4,8.62c10.11,12.54,10.13,20.18-9.75,15.21
				c11.71,8.6,17.11,25.6-14.05,32.12c17.85,2.44,35.19,8.85,14.6,25.99c16.71-5.77,33.81,7.48,32.3,22.51
				c5.16-11.69,25.53-21.55,42.68-0.13c-4.85-12.32-1.84-26.83,18.39-12.89c-14.59-17.45-4.43-24.67,17.77-21.1
				C104.28,64.33,99.73,52.04,126.77,43.49z"/>
		</g>
		<path class="st1" d="M119.09,44.44c-27.36,0.2-24.78-11.7-10.17-23.9c-15.51,8.07-29.05,4.51-27.41-10.31
			c-5.44,11.49-25.94,12.1-33.7-3.58c2.36,14.68-2.71,17.19-18.8,7.85c8.88,11.43,8.9,18.39-8.56,13.86
			C30.72,36.21,35.47,51.7,8.09,57.65C23.77,59.87,39,65.71,20.91,81.33c14.68-5.26,29.7,6.82,28.37,20.51
			c4.53-10.66,22.42-19.64,37.49-0.12c-4.26-11.23-1.62-24.45,16.15-11.74c-12.82-15.91-3.9-22.48,15.61-19.23
			C99.34,63.44,95.34,52.23,119.09,44.44z"/>
	</g>
	<path class="st2" d="M103.22,47.08c-19.54,0.15-17.69-8.55-7.26-17.47c-11.08,5.9-20.74,3.3-19.57-7.53
		c-3.88,8.4-18.52,8.84-24.06-2.61c1.69,10.73-1.94,12.56-13.42,5.74c6.34,8.35,6.35,13.44-6.11,10.13
		c7.34,5.73,10.73,17.06-8.81,21.4c11.2,1.62,22.07,5.89,9.15,17.31c10.48-3.84,21.21,4.98,20.26,14.99
		c3.23-7.79,16.01-14.36,26.77-0.09c-3.04-8.21-1.15-17.87,11.53-8.58c-9.15-11.63-2.78-16.43,11.15-14.06
		C89.11,60.97,86.26,52.78,103.22,47.08z"/>
	<g>
		<g>
			<path class="st1" d="M83.22,45.55c-0.26-2.5-1.21-4.72-3.08-6.49c-1.96-1.87-4.35-2.69-6.98-2.83
				c-4.47-0.24-15.09-0.4-18.82,0.21c-4.26,0.69-7.05,3.18-8.23,7.39c-0.91,3.24-0.73,18.16-0.2,21.36c0.72,4.38,3.31,7.18,7.64,8.3
				c3,0.77,17.75,0.68,21.06,0.14c4.38-0.71,7.2-3.28,8.33-7.61C83.83,62.69,83.52,48.55,83.22,45.55z M79.72,64.56
				c-0.51,3.32-2.71,5.38-6.06,5.75c-3.07,0.34-16.77,0.52-19.62-0.27c-2.72-0.76-4.28-2.63-4.73-5.37
				c-0.43-2.62-0.54-15.7-0.01-19.2c0.5-3.29,2.71-5.35,6.03-5.72c3.37-0.38,15.5-0.42,18.73,0.08c3.32,0.51,5.37,2.72,5.74,6.07
				C80.14,49,80.23,61.21,79.72,64.56z M64.51,45.27c-5.39,0-9.76,4.36-9.76,9.75c0,5.39,4.36,9.76,9.75,9.76
				c5.39,0,9.76-4.36,9.76-9.75C74.26,49.65,69.9,45.28,64.51,45.27z M64.44,61.33c-3.48-0.03-6.28-2.88-6.25-6.36
				c0.03-3.48,2.88-6.28,6.36-6.25c3.48,0.03,6.28,2.88,6.25,6.36C70.78,58.56,67.93,61.36,64.44,61.33z M76.93,44.9
				c0,1.26-1.03,2.28-2.29,2.28c-1.26,0-2.28-1.03-2.28-2.29c0-1.26,1.03-2.28,2.29-2.28C75.91,42.62,76.93,43.64,76.93,44.9z"/>
		</g>
	</g>
</g>
</svg>
