<?xml version="1.0" encoding="utf-8"?>
<!-- Generator: Adobe Illustrator 24.0.2, SVG Export Plug-In . SVG Version: 6.00 Build 0)  -->
<svg version="1.1" id="Capa_1" xmlns="http://www.w3.org/2000/svg" xmlns:xlink="http://www.w3.org/1999/xlink" x="0px" y="0px"
	 viewBox="0 0 27 28" style="enable-background:new 0 0 27 28;" xml:space="preserve">
<style type="text/css">
	.st0{fill:#A8B2B2;}
</style>
<g id="surface1_3_">
	<path class="st0" d="M18.3,15.81c3-4.23,1.99-10.09-2.24-13.08S5.98,0.73,2.98,4.96c-3,4.23-1.99,10.09,2.24,13.08
		c3.02,2.14,7.01,2.3,10.2,0.42l6.92,6.88c0.75,0.79,1.99,0.82,2.78,0.07c0.79-0.75,0.82-1.99,0.07-2.78
		c-0.02-0.03-0.05-0.05-0.07-0.07L18.3,15.81z M10.64,16.45c-3.34,0-6.05-2.71-6.06-6.05c0-3.34,2.71-6.05,6.05-6.05
		c3.34,0,6.05,2.7,6.05,6.04C16.69,13.73,13.99,16.44,10.64,16.45C10.64,16.45,10.64,16.45,10.64,16.45z"/>
</g>
</svg>
