<?xml version="1.0" encoding="utf-8"?>
<!-- Generator: Adobe Illustrator 24.0.2, SVG Export Plug-In . SVG Version: 6.00 Build 0)  -->
<svg version="1.1" id="Capa_1" xmlns="http://www.w3.org/2000/svg" xmlns:xlink="http://www.w3.org/1999/xlink" x="0px" y="0px"
	 viewBox="0 0 712.59 6.81" style="enable-background:new 0 0 712.59 6.81;" xml:space="preserve">
<g>
	<path d="M3.05,3.11l22.04-0.38l22.04-0.28l44.08-0.56l88.16-0.7c29.39-0.28,58.78-0.3,88.16-0.45l88.16-0.14l88.16,0.13
		c29.39,0.14,58.78,0.18,88.16,0.42c29.39,0.17,58.78,0.43,88.16,0.73l44.08,0.56l22.04,0.28l22.04,0.38l-22.04,0.38l-22.04,0.28
		l-44.08,0.56c-29.39,0.29-58.78,0.56-88.16,0.73c-29.39,0.23-58.78,0.28-88.16,0.42L355.7,5.61l-88.16-0.14
		c-29.39-0.14-58.78-0.17-88.16-0.45l-88.16-0.7L47.13,3.77L25.09,3.49L3.05,3.11z"/>
</g>
</svg>
