<?xml version="1.0" encoding="utf-8"?>
<!-- Generator: Adobe Illustrator 24.0.2, SVG Export Plug-In . SVG Version: 6.00 Build 0)  -->
<svg version="1.1" id="Capa_1" xmlns="http://www.w3.org/2000/svg" xmlns:xlink="http://www.w3.org/1999/xlink" x="0px" y="0px"
	 viewBox="0 0 7.56 389.12" style="enable-background:new 0 0 7.56 389.12;" xml:space="preserve">
<g>
	<path d="M4.07,1.99c1.03,32.26,1.58,64.52,1.94,96.78c0.23,16.13,0.28,32.26,0.42,48.39l0.14,48.39l-0.13,48.39
		c-0.14,16.13-0.18,32.26-0.42,48.39c-0.37,32.26-0.91,64.52-1.95,96.78c-1.04-32.26-1.58-64.52-1.95-96.78
		c-0.23-16.13-0.28-32.26-0.42-48.39l-0.13-48.39l0.14-48.39c0.14-16.13,0.19-32.26,0.42-48.39C2.5,66.51,3.04,34.25,4.07,1.99z"/>
</g>
</svg>
