<?xml version="1.0" encoding="utf-8"?>
<!-- Generator: Adobe Illustrator 24.0.2, SVG Export Plug-In . SVG Version: 6.00 Build 0)  -->
<svg version="1.1" id="Capa_1" xmlns="http://www.w3.org/2000/svg" xmlns:xlink="http://www.w3.org/1999/xlink" x="0px" y="0px"
	 viewBox="0 0 126.36 109.5" style="enable-background:new 0 0 126.36 109.5;" xml:space="preserve">
<style type="text/css">
	.st0{fill:#8F8F8F;}
	.st1{fill:#33333C;}
	.st2{fill:#FFFFFF;}
	.st3{fill-rule:evenodd;clip-rule:evenodd;fill:#33333C;}
</style>
<g>
	<g>
		<g>
			<path class="st0" d="M126.47,44.63c-31.2,0.22-28.26-12.86-11.6-26.27c-17.69,8.87-33.12,4.96-31.26-11.33
				c-6.2,12.63-29.58,13.3-38.44-3.93c2.7,16.13-3.09,18.89-21.44,8.63c10.13,12.56,10.15,20.22-9.77,15.23
				C25.7,35.58,31.11,52.61-0.11,59.14c17.88,2.44,35.25,8.87,14.62,26.04c16.74-5.78,33.87,7.49,32.36,22.55
				c5.17-11.71,25.57-21.59,42.75-0.13c-4.86-12.35-1.84-26.88,18.42-12.91c-14.62-17.48-4.44-24.71,17.8-21.14
				C103.94,65.51,99.38,53.19,126.47,44.63z"/>
		</g>
		<path class="st1" d="M118.78,45.58c-27.41,0.2-24.83-11.73-10.19-23.94c-15.54,8.09-29.1,4.52-27.46-10.33
			c-5.45,11.51-25.99,12.12-33.76-3.58c2.37,14.7-2.72,17.22-18.83,7.87c8.9,11.45,8.91,18.42-8.58,13.88
			C30.25,37.34,35,52.86,7.58,58.81c15.71,2.23,30.97,8.08,12.84,23.73c14.71-5.26,29.75,6.83,28.42,20.55
			c4.54-10.68,22.46-19.68,37.56-0.12c-4.27-11.25-1.62-24.5,16.18-11.77c-12.84-15.94-3.9-22.52,15.64-19.27
			C98.99,64.62,94.98,53.39,118.78,45.58z"/>
	</g>
	<path class="st2" d="M102.88,48.23c-19.57,0.15-17.73-8.57-7.28-17.5c-11.09,5.91-20.78,3.3-19.61-7.55
		c-3.89,8.41-18.55,8.86-24.11-2.62c1.69,10.75-1.94,12.58-13.45,5.75c6.35,8.37,6.36,13.47-6.13,10.15
		c7.36,5.74,10.75,17.09-8.83,21.44c11.22,1.63,22.11,5.91,9.17,17.34c10.5-3.85,21.24,4.99,20.29,15.02
		c3.24-7.8,16.04-14.38,26.82-0.09c-3.05-8.22-1.16-17.9,11.55-8.6c-9.17-11.65-2.79-16.46,11.17-14.08
		C88.75,62.14,85.89,53.93,102.88,48.23z"/>
	<path class="st3" d="M55.89,65c-3.94-0.14-6.4-2.96-7.05-5.26c1.1,0.21,2.18,0.17,3.25-0.1c0.03-0.01,0.06-0.03,0.11-0.05
		c-2.13-0.5-3.78-1.64-4.92-3.48c-0.76-1.22-1.12-2.56-1.11-4.03c1.07,0.57,2.18,0.89,3.37,0.92c-1.6-1.16-2.68-2.67-3.12-4.6
		c-0.44-1.93-0.15-3.76,0.81-5.49c4.1,4.83,9.3,7.49,15.64,7.92c-0.04-0.3-0.09-0.56-0.12-0.83c-0.21-1.78,0.14-3.45,1.11-4.96
		c1.21-1.89,2.93-3.07,5.14-3.43c2.55-0.42,4.78,0.31,6.64,2.11c0.13,0.12,0.23,0.16,0.4,0.12c1.56-0.34,3.03-0.9,4.41-1.7
		c0.03-0.02,0.07-0.04,0.1-0.05c0.01-0.01,0.02,0,0.05,0c-0.6,1.76-1.69,3.12-3.25,4.13c1.47-0.16,2.87-0.55,4.22-1.14
		c0.01,0.01,0.02,0.02,0.03,0.03c-0.29,0.38-0.57,0.77-0.87,1.14c-0.8,0.99-1.73,1.86-2.76,2.62c-0.09,0.06-0.13,0.13-0.12,0.24
		c0.04,1.13,0,2.25-0.14,3.37c-0.29,2.36-0.95,4.6-1.95,6.75c-1.04,2.21-2.39,4.22-4.1,5.98c-2.89,2.99-6.37,4.91-10.42,5.81
		c-1.39,0.3-2.8,0.46-4.22,0.5c-4.37,0.13-8.41-0.96-12.13-3.26c-0.05-0.03-0.09-0.06-0.18-0.12c2.65,0.28,5.16-0.05,7.58-1.05
		C53.57,66.57,54.76,65.88,55.89,65z"/>
</g>
</svg>
