<?xml version="1.0" encoding="utf-8"?>
<!-- Generator: Adobe Illustrator 24.0.2, SVG Export Plug-In . SVG Version: 6.00 Build 0)  -->
<svg version="1.1" id="Capa_1" xmlns="http://www.w3.org/2000/svg" xmlns:xlink="http://www.w3.org/1999/xlink" x="0px" y="0px"
	 viewBox="0 0 19.8 20.6" style="enable-background:new 0 0 19.8 20.6;" xml:space="preserve">
<style type="text/css">
	.st0{opacity:0.2;}
	.st1{fill:#7A9097;}
</style>
<g class="st0">
	<defs>
		<rect id="SVGID_3_" x="-691" y="-1078.5" class="st0" width="1500" height="623"/>
	</defs>
	<clipPath id="SVGID_2_">
		<use xlink:href="#SVGID_3_"  style="overflow:visible;"/>
	</clipPath>
	<g style="clip-path:url(#SVGID_2_);">
		
			<image style="overflow:visible;" width="1920" height="2881" xlink:href="2AEE2A20.png"  transform="matrix(1 0 0 1 -900.96 -1215.62)">
		</image>
	</g>
</g>
<g class="st0">
	<defs>
		<rect id="SVGID_1_" x="-331" y="-1051.1" class="st0" width="1500" height="623"/>
	</defs>
	<clipPath id="SVGID_4_">
		<use xlink:href="#SVGID_1_"  style="overflow:visible;"/>
	</clipPath>
	<g style="clip-path:url(#SVGID_4_);">
		
			<image style="overflow:visible;" width="1920" height="2881" xlink:href="2AEE2A21.png"  transform="matrix(1 0 0 1 -540.96 -1188.26)">
		</image>
	</g>
</g>
<g>
	<path class="st1" d="M11.5,20.2c-1,0-2.1,0-3.1,0c0,0-0.1,0-0.1,0c-2.1-0.3-4.1-0.7-6.2-1c-0.4-0.1-0.6-0.3-0.6-0.7
		c0-0.4,0-0.9,0-1.3c0-0.1,0-0.1,0-0.2c-0.2,0-0.5,0-0.7,0c-0.5,0-0.7-0.2-0.7-0.7c0-0.9,0-1.7,0-2.6c0-0.5,0.2-0.7,0.7-0.7
		c0.2,0,0.4,0,0.7,0c0-0.1,0-0.2,0-0.3c0-0.6,0-1.2,0-1.8c0-0.4,0.3-0.7,0.7-0.6c0.9,0.1,1.7,0.3,2.6,0.4c0.4,0.1,0.7,0.1,1,0.2
		C5.7,10.1,5.6,9.6,5.5,9C5.3,9,5.1,9,4.9,9C4,9,3.2,8.3,3.2,7.3c0-1,0.7-1.8,1.8-1.8c0.2,0,0.4,0,0.5,0c0-0.1,0-0.1,0-0.1
		c0-0.6,0-1.2-0.1-1.8c-0.1-0.8,0-1.6,0-2.4c0-0.4,0.2-0.6,0.6-0.7c0.3-0.1,0.5,0,0.7,0.2c0.6,0.5,1.3,0.7,2,0.7c1.1,0,2.2,0,3.3,0
		c0.6,0,1.2,0.2,1.7,0.6c0.6,0.5,0.9,1.3,0.7,2c-0.2,0.5-0.1,1-0.1,1.6c0.2,0,0.3,0,0.4,0c0.2,0,0.4,0,0.5,0c0.9,0.2,1.5,1,1.4,1.9
		C16.5,8.3,15.8,9,14.9,9c-0.2,0-0.4,0-0.5,0c-0.1,0.6-0.2,1.1-0.3,1.7c0,0,0,0,0,0c1.2-0.2,2.3-0.4,3.5-0.6
		c0.5-0.1,0.8,0.1,0.8,0.7c0,0.6,0,1.2,0,1.8c0,0.1,0,0.1,0,0.2c0.2,0,0.4,0,0.6,0c0.5,0,0.6,0.1,0.8,0.6c0,1,0,2,0,2.9
		c-0.2,0.5-0.3,0.5-0.8,0.5c-0.2,0-0.4,0-0.7,0c0,0.5,0,1.1,0,1.6c0,0.4-0.2,0.6-0.6,0.7c-1.7,0.3-3.4,0.6-5.1,0.9
		C12.3,20,11.9,20.1,11.5,20.2z M6.7,5.1C6.7,5.1,6.7,5.1,6.7,5.1c0,1.4,0,2.8,0,4.1c0,0.6,0.2,1.1,0.4,1.6c0,0.1,0.1,0.1,0.2,0.2
		c0.7,0.1,1.5,0.2,2.2,0.2c1,0,1.9,0,2.9-0.2c0.1,0,0.2-0.1,0.2-0.2c0.3-0.6,0.4-1.2,0.4-1.9c0-1.2,0-2.4,0-3.7c0-0.1,0-0.1,0-0.2
		C11,5.1,8.8,5.1,6.7,5.1z M17.2,16.9C15.9,16.7,15.1,16,15,15c0-0.5,0.1-1,0.4-1.4c0.4-0.6,1-0.9,1.8-0.9c0-0.5,0-1,0-1.4
		c-1.8,0.3-3.5,0.6-5.3,0.9c0,2.2,0,4.4,0,6.7c1.8-0.3,3.5-0.6,5.3-0.9C17.2,17.6,17.2,17.2,17.2,16.9z M2.6,18
		c1.8,0.3,3.5,0.6,5.3,0.9c0-0.1,0-0.1,0-0.2c0-2.1,0-4.2,0-6.3c0-0.2-0.1-0.2-0.2-0.2c-1.4-0.2-2.9-0.5-4.3-0.7
		c-0.3,0-0.6-0.1-0.8-0.1c0,0.5,0,1,0,1.4c0.6,0,1.1,0.1,1.5,0.5c0.4,0.4,0.6,0.9,0.6,1.5c0,0.5-0.2,0.9-0.5,1.3
		c-0.4,0.5-1,0.7-1.7,0.7C2.6,17.2,2.6,17.6,2.6,18z M9.1,12.3c0,2.2,0,4.5,0,6.7c0.5,0,1,0,1.6,0c0-2.2,0-4.4,0-6.7
		C10.2,12.3,9.6,12.3,9.1,12.3z M6.6,2c0,0.5,0,1,0,1.5c0,0.1,0.1,0.2,0.2,0.3c0.1,0.1,0.3,0.1,0.5,0.1c1.8,0,3.6,0,5.4,0
		c0.1,0,0.2,0,0.3,0c0.3-0.1,0.5-0.4,0.3-0.7C13.2,3,13.1,2.9,13,2.8c-0.3-0.2-0.6-0.3-0.9-0.3c-1.1,0-2.2,0-3.4,0
		c-0.4,0-0.8-0.1-1.2-0.2C7.2,2.3,6.9,2.1,6.6,2z M1.2,15.7c0.5,0,1,0,1.5,0c0.5,0,0.9-0.4,0.9-0.9c0-0.5-0.4-0.9-0.9-0.9
		c-0.4,0-0.9,0-1.3,0c-0.1,0-0.1,0-0.2,0C1.2,14.5,1.2,15.1,1.2,15.7z M18.6,14c-0.6,0-1.1,0-1.7,0c-0.4,0-0.7,0.4-0.7,0.8
		c0,0.4,0.3,0.8,0.7,0.8c0.6,0,1.1,0,1.7,0C18.6,15.1,18.6,14.5,18.6,14z M14.3,7.9c0.2,0,0.4,0,0.6,0c0.3,0,0.5-0.2,0.5-0.5
		c0-0.3-0.1-0.6-0.4-0.6c-0.2-0.1-0.5,0-0.8-0.1C14.3,7.1,14.3,7.5,14.3,7.9z M5.5,6.7c-0.2,0-0.4,0-0.6,0C4.6,6.7,4.4,7,4.4,7.2
		c0,0.3,0.1,0.6,0.4,0.6c0.2,0,0.5,0,0.7,0C5.5,7.5,5.5,7.1,5.5,6.7z"/>
</g>
</svg>
