<?xml version="1.0" encoding="utf-8"?>
<!-- Generator: Adobe Illustrator 24.0.2, SVG Export Plug-In . SVG Version: 6.00 Build 0)  -->
<svg version="1.1" id="Capa_1" xmlns="http://www.w3.org/2000/svg" xmlns:xlink="http://www.w3.org/1999/xlink" x="0px" y="0px"
	 viewBox="0 0 46 44" style="enable-background:new 0 0 46 44;" xml:space="preserve">
<style type="text/css">
	.st0{fill:#1A1C1E;}
</style>
<g>
	<g>
		<path class="st0" d="M31.03,44c-0.65-0.14-1.01-0.57-1.26-1.17c-0.53-1.29-1.1-2.57-1.65-3.85c-0.94,0.24-1.85,0.53-2.78,0.71
			c-1.76,0.34-3.55,0.44-5.34,0.28c-2.86-0.25-5.53-1.1-8-2.56c-2.61-1.53-4.74-3.57-6.4-6.1c-1.57-2.39-2.58-5.01-2.94-7.84
			c-0.69-5.41,0.61-10.31,4.02-14.6c2.91-3.66,6.69-5.94,11.27-6.88c0.75-0.16,1.52-0.2,2.29-0.3c0.15-0.02,0.3-0.05,0.45-0.07
			c0.69,0,1.38,0,2.07,0c0.67,0.08,1.33,0.14,2,0.25c3.49,0.57,6.6,2,9.3,4.29c2.77,2.34,4.72,5.23,5.87,8.66
			c0.47,1.42,0.76,2.88,0.89,4.38c0.24,2.74-0.14,5.4-1.02,8.05c0.22,0.1,0.44,0.2,0.66,0.29c1.14,0.49,2.29,0.98,3.43,1.47
			c0.65,0.28,1,0.79,0.96,1.4c-0.04,0.61-0.44,1.1-1.08,1.31c-2.68,0.89-5.36,1.78-8.04,2.66c-0.26,0.08-0.39,0.21-0.48,0.48
			c-0.87,2.66-1.77,5.32-2.65,7.98c-0.2,0.61-0.6,1-1.23,1.14C31.25,44,31.14,44,31.03,44z M31.03,38.67
			c0.06-0.17,0.08-0.23,0.1-0.29c0.58-1.72,1.16-3.45,1.72-5.17c0.19-0.59,0.55-0.99,1.15-1.19c0.86-0.28,1.72-0.56,2.58-0.85
			c0.95-0.32,1.9-0.63,2.95-0.98c-4.98-2.13-9.87-4.22-14.85-6.35C26.81,28.82,28.9,33.69,31.03,38.67z M27.5,19.41
			c-0.05-2.14-0.29-4.21-0.7-6.27c-3.44,0-6.82,0-10.32,0c-0.24,2.08-0.47,4.16-0.71,6.27C19.75,19.41,23.6,19.41,27.5,19.41z
			 M38.02,19.4c-0.16-2.17-0.78-4.18-1.77-6.09c-0.05-0.1-0.25-0.18-0.39-0.18c-0.85-0.02-1.71-0.01-2.56-0.01
			c-1.21,0-2.42,0-3.58,0c0.22,2.1,0.43,4.18,0.65,6.28C32.89,19.4,35.45,19.4,38.02,19.4z M12.98,22.26c-2.52,0-5.07,0-7.64,0
			c0.02,0.25,0.02,0.47,0.05,0.69c0.26,1.83,0.78,3.58,1.61,5.24c0.12,0.24,0.23,0.35,0.52,0.34c1.94-0.01,3.88-0.01,5.83-0.01
			c0.12,0,0.23-0.01,0.28-0.02C13.42,26.41,13.2,24.35,12.98,22.26z M13.7,13.13c-2.11,0-4.2,0-6.29,0.01
			c-0.11,0-0.27,0.13-0.31,0.23c-0.37,0.87-0.77,1.73-1.08,2.62c-0.39,1.1-0.6,2.24-0.66,3.41c2.59,0,5.14,0,7.68,0
			c0.08-1.06,0.12-2.09,0.23-3.12C13.38,15.24,13.55,14.21,13.7,13.13z M23.6,28.51c-0.01-0.07-0.02-0.12-0.03-0.15
			c-0.84-1.97-1.67-3.93-2.52-5.89c-0.05-0.11-0.26-0.22-0.4-0.22c-1.5-0.02-3-0.01-4.51-0.01c-0.09,0-0.18,0.02-0.37,0.05
			c0.24,2.09,0.47,4.16,0.7,6.23C18.91,28.51,21.24,28.51,23.6,28.51z M17.3,10.3c2.93,0,5.83,0,8.76,0
			c-0.55-1.68-1.19-3.28-2.32-4.64c-0.51-0.61-1.08-1.16-1.93-1.23c-0.98-0.07-1.62,0.53-2.18,1.21C18.49,7,17.85,8.62,17.3,10.3z
			 M17.29,31.34c0.17,0.49,0.31,0.96,0.5,1.41c0.55,1.35,1.18,2.66,2.25,3.7c1.08,1.05,2.21,1.04,3.29-0.02
			c0.97-0.95,1.58-2.13,2.1-3.36c0.05-0.11,0.03-0.27-0.01-0.39c-0.14-0.38-0.3-0.76-0.48-1.13c-0.05-0.1-0.19-0.21-0.29-0.21
			C22.21,31.33,19.77,31.34,17.29,31.34z M38.11,22.26c-2.67,0-5.24,0-7.82,0c0,0.33,0,0.63,0,0.95c2.29,0.98,4.58,1.96,6.99,2.99
			C37.57,24.86,37.83,23.58,38.11,22.26z M9.09,31.34c2.02,2.37,4.44,4.04,7.23,5c-0.67-1.63-1.36-3.3-2.06-5
			C12.61,31.34,10.89,31.34,9.09,31.34z M26.87,5.26c0.93,1.57,1.57,3.15,2.03,4.8c0.06,0.23,0.2,0.28,0.42,0.27
			c1.54-0.01,3.09,0,4.63-0.01c0.1,0,0.2-0.02,0.32-0.03C32.26,7.94,29.84,6.29,26.87,5.26z M14.26,10.31
			c0.7-1.7,1.39-3.37,2.06-4.99c-2.8,0.97-5.21,2.64-7.23,4.99C10.87,10.31,12.59,10.31,14.26,10.31z"/>
	</g>
</g>
</svg>
